<?xml version="1.0" encoding="utf-8"?>
<!-- Generator: Adobe Illustrator 26.3.1, SVG Export Plug-In . SVG Version: 6.00 Build 0)  -->
<svg version="1.1" id="圖層_1" xmlns="http://www.w3.org/2000/svg" xmlns:xlink="http://www.w3.org/1999/xlink" x="0px" y="0px"
	 viewBox="0 0 217.39 95.58" style="enable-background:new 0 0 217.39 95.58;" xml:space="preserve">
<style type="text/css">
	.st0{fill:#FFD601;}
	.st1{fill:#FFF2BB;}
	.st2{fill:none;stroke:#000000;stroke-miterlimit:10;}
	.st3{fill:#FFFFFF;stroke:#000000;stroke-width:1.5;stroke-miterlimit:10;}
</style>
<g>
	
		<ellipse transform="matrix(0.5214 -0.8533 0.8533 0.5214 -6.9849 57.5286)" class="st0" cx="47.79" cy="34.99" rx="12.13" ry="12.13"/>
	<path class="st0" d="M59.92,60.59c0,6.7-5.43,12.13-12.13,12.13c-6.7,0-12.13-5.43-12.13-12.13c0-6.7,5.43-12.13,12.13-12.13
		C54.49,48.46,59.92,53.89,59.92,60.59z"/>
</g>
<g>
	<g>
		<path class="st3" d="M111.13,57.53c6.71-6.1,11.22-10.97,11.22-14.87c0-2.45-1.37-3.79-3.5-3.79c-1.84,0-3.28,1.23-4.55,2.6
			l-3.5-3.46c2.63-2.78,5.09-4.15,8.91-4.15c5.2,0,8.8,3.32,8.8,8.44c0,4.62-3.97,9.71-8.08,13.86c1.33-0.18,3.18-0.36,4.37-0.36
			h4.94v5.41h-18.62V57.53z"/>
		<path class="st3" d="M135.78,47.65c0-9.24,3.83-13.78,9.49-13.78c5.66,0,9.53,4.62,9.53,13.78c0,9.24-3.86,14.07-9.53,14.07
			C139.6,61.72,135.78,56.88,135.78,47.65z M148.73,47.65c0-7.33-1.55-8.84-3.46-8.84c-1.91,0-3.43,1.52-3.43,8.84
			c0,7.36,1.52,9.09,3.43,9.09C147.18,56.74,148.73,55.01,148.73,47.65z"/>
		<path d="M161.8,56.02h5.7V40.75h-4.94v-3.97c2.89-0.54,4.76-1.26,6.64-2.42h4.73v21.65h4.83v5.2H161.8V56.02z"/>
		<path d="M184.57,58l2.92-4.04c1.52,1.44,3.39,2.56,5.52,2.56c2.6,0,4.22-1.41,4.22-4.19c0-2.71-1.62-4.15-3.93-4.15
			c-1.48,0-2.2,0.29-3.79,1.3l-2.81-1.84l0.69-13.28h15.08v5.34h-9.56l-0.4,4.55c0.97-0.4,1.77-0.54,2.78-0.54
			c4.55,0,8.37,2.67,8.37,8.48c0,6.03-4.55,9.53-9.71,9.53C189.66,61.72,186.7,60.1,184.57,58z"/>
	</g>
</g>
</svg>
