<?xml version="1.0" encoding="utf-8"?>
<!-- Generator: Adobe Illustrator 26.3.1, SVG Export Plug-In . SVG Version: 6.00 Build 0)  -->
<svg version="1.1" id="圖層_1" xmlns="http://www.w3.org/2000/svg" xmlns:xlink="http://www.w3.org/1999/xlink" x="0px" y="0px"
	 viewBox="0 0 217.39 95.58" style="enable-background:new 0 0 217.39 95.58;" xml:space="preserve">
<style type="text/css">
	.st0{fill:#FFD601;}
	.st1{fill:#FFF2BB;}
	.st2{fill:none;stroke:#000000;stroke-miterlimit:10;}
	.st3{fill:#FFFFFF;stroke:#000000;stroke-width:1.5;stroke-miterlimit:10;}
</style>
<g>
	<polygon class="st0" points="22.98,21.71 22.98,70.89 72.6,21.71 	"/>
	<polygon class="st0" points="22.98,73.87 72.6,24.54 72.6,73.87 	"/>
</g>
<g>
	<g>
		<path class="st3" d="M110.86,57.53c6.71-6.1,11.22-10.97,11.22-14.87c0-2.45-1.37-3.79-3.5-3.79c-1.84,0-3.28,1.23-4.55,2.6
			l-3.5-3.46c2.63-2.78,5.09-4.15,8.91-4.15c5.2,0,8.8,3.32,8.8,8.44c0,4.62-3.97,9.71-8.08,13.86c1.33-0.18,3.18-0.36,4.37-0.36
			h4.94v5.41h-18.62V57.53z"/>
		<path class="st3" d="M135.51,47.65c0-9.24,3.83-13.78,9.49-13.78c5.66,0,9.53,4.62,9.53,13.78c0,9.24-3.86,14.07-9.53,14.07
			C139.33,61.72,135.51,56.88,135.51,47.65z M148.46,47.65c0-7.33-1.55-8.84-3.46-8.84c-1.91,0-3.43,1.52-3.43,8.84
			c0,7.36,1.52,9.09,3.43,9.09C146.91,56.74,148.46,55.01,148.46,47.65z"/>
		<path d="M161.53,56.02h5.7V40.75h-4.94v-3.97c2.89-0.54,4.76-1.26,6.64-2.42h4.73v21.65h4.83v5.2h-16.96V56.02z"/>
		<path d="M200.18,40.86c-0.87-0.94-2.53-1.88-4.01-1.88c-2.78,0-4.98,1.98-5.23,7.83c1.33-1.7,3.61-2.63,5.12-2.63
			c4.47,0,7.87,2.6,7.87,8.44c0,5.7-4.04,9.09-8.84,9.09c-5.05,0-10.03-3.93-10.03-13.71c0-9.71,5.12-14.15,10.68-14.15
			c3.54,0,6.13,1.48,7.83,3.21L200.18,40.86z M198.05,52.63c0-2.96-1.44-3.93-3.21-3.93c-1.33,0-2.71,0.65-3.79,2.42
			c0.54,4.47,2.2,5.81,3.9,5.81C196.65,56.92,198.05,55.66,198.05,52.63z"/>
	</g>
</g>
</svg>
