<?xml version="1.0" encoding="utf-8"?>
<!-- Generator: Adobe Illustrator 26.3.1, SVG Export Plug-In . SVG Version: 6.00 Build 0)  -->
<svg version="1.1" id="圖層_1" xmlns="http://www.w3.org/2000/svg" xmlns:xlink="http://www.w3.org/1999/xlink" x="0px" y="0px"
	 viewBox="0 0 217.39 95.58" style="enable-background:new 0 0 217.39 95.58;" xml:space="preserve">
<style type="text/css">
	.st0{fill:#FFD601;}
	.st1{fill:#FFF2BB;}
	.st2{fill:none;stroke:#000000;stroke-miterlimit:10;}
	.st3{fill:#FFFFFF;stroke:#000000;stroke-width:1.5;stroke-miterlimit:10;}
</style>
<g>
	<polygon class="st0" points="67.54,64.88 42.87,73.44 23.11,56.35 28.04,30.7 52.71,22.14 72.47,39.23 	"/>
</g>
<g>
	<g>
		<path class="st3" d="M110.96,57.53c6.71-6.1,11.22-10.97,11.22-14.87c0-2.45-1.37-3.79-3.5-3.79c-1.84,0-3.28,1.23-4.55,2.6
			l-3.5-3.46c2.63-2.78,5.09-4.15,8.91-4.15c5.2,0,8.8,3.32,8.8,8.44c0,4.62-3.97,9.71-8.08,13.86c1.33-0.18,3.18-0.36,4.37-0.36
			h4.94v5.41h-18.62V57.53z"/>
		<path class="st3" d="M135.61,47.65c0-9.24,3.83-13.78,9.49-13.78c5.66,0,9.53,4.62,9.53,13.78c0,9.24-3.86,14.07-9.53,14.07
			C139.44,61.72,135.61,56.88,135.61,47.65z M148.57,47.65c0-7.33-1.55-8.84-3.46-8.84c-1.91,0-3.43,1.52-3.43,8.84
			c0,7.36,1.52,9.09,3.43,9.09C147.02,56.74,148.57,55.01,148.57,47.65z"/>
		<path d="M161.64,56.02h5.7V40.75h-4.94v-3.97c2.89-0.54,4.76-1.26,6.64-2.42h4.73v21.65h4.83v5.2h-16.96V56.02z"/>
		<path d="M185.24,54.54c0-3.36,1.91-5.45,4.4-6.78v-0.18c-2.09-1.55-3.5-3.61-3.5-6.46c0-4.47,3.54-7.25,8.52-7.25
			c4.83,0,8.05,2.81,8.05,7.18c0,2.56-1.55,4.69-3.39,5.95v0.18c2.56,1.34,4.51,3.57,4.51,7.25c0,4.15-3.75,7.29-9.38,7.29
			C189.18,61.72,185.24,58.8,185.24,54.54z M197.87,54.18c0-2.35-2.06-3.36-5.34-4.76c-1.08,1.05-1.8,2.67-1.8,4.37
			c0,2.2,1.77,3.46,3.86,3.46C196.43,57.24,197.87,56.31,197.87,54.18z M197.51,41.47c0-1.95-1.12-3.18-3.03-3.18
			c-1.44,0-2.71,0.9-2.71,2.81c0,2.13,1.66,3.28,4.29,4.33C197.08,44.22,197.51,42.85,197.51,41.47z"/>
	</g>
</g>
</svg>
