<?xml version="1.0" encoding="utf-8"?>
<!-- Generator: Adobe Illustrator 26.3.1, SVG Export Plug-In . SVG Version: 6.00 Build 0)  -->
<svg version="1.1" id="圖層_1" xmlns="http://www.w3.org/2000/svg" xmlns:xlink="http://www.w3.org/1999/xlink" x="0px" y="0px"
	 viewBox="0 0 217.39 95.58" style="enable-background:new 0 0 217.39 95.58;" xml:space="preserve">
<style type="text/css">
	.st0{fill:#FFD601;}
	.st1{fill:#FFF2BB;}
	.st2{fill:none;stroke:#000000;stroke-miterlimit:10;}
	.st3{fill:#FFFFFF;stroke:#000000;stroke-width:1.5;stroke-miterlimit:10;}
</style>
<g>
	<rect x="23.19" y="23.19" class="st0" width="37.88" height="49.19"/>
	<rect x="63.92" y="23.19" class="st0" width="8.46" height="49.19"/>
</g>
<g>
	<g>
		<path class="st3" d="M111,57.53c6.71-6.1,11.22-10.97,11.22-14.87c0-2.45-1.37-3.79-3.5-3.79c-1.84,0-3.28,1.23-4.55,2.6
			l-3.5-3.46c2.63-2.78,5.09-4.15,8.91-4.15c5.2,0,8.8,3.32,8.8,8.44c0,4.62-3.97,9.71-8.08,13.86c1.33-0.18,3.18-0.36,4.37-0.36
			h4.94v5.41H111V57.53z"/>
		<path class="st3" d="M135.65,47.65c0-9.24,3.83-13.78,9.49-13.78c5.67,0,9.53,4.62,9.53,13.78c0,9.24-3.86,14.07-9.53,14.07
			C139.48,61.72,135.65,56.88,135.65,47.65z M148.61,47.65c0-7.33-1.55-8.84-3.46-8.84c-1.91,0-3.43,1.52-3.43,8.84
			c0,7.36,1.52,9.09,3.43,9.09C147.05,56.74,148.61,55.01,148.61,47.65z"/>
		<path d="M161.67,56.02h5.7V40.75h-4.94v-3.97c2.89-0.54,4.76-1.26,6.64-2.42h4.73v21.65h4.83v5.2h-16.96V56.02z"/>
		<path d="M188.63,54.68c0.9,0.97,2.56,1.84,4.11,1.84c2.74,0,4.91-1.95,5.16-7.83c-1.3,1.73-3.57,2.71-5.12,2.71
			c-4.51,0-7.87-2.67-7.87-8.44c0-5.7,4.04-9.09,8.84-9.09c5.09,0,10.03,3.86,10.03,13.6c0,9.74-5.12,14.25-10.61,14.25
			c-3.61,0-6.21-1.52-7.9-3.21L188.63,54.68z M197.8,44.36c-0.54-4.44-2.24-5.7-3.9-5.7c-1.7,0-3.14,1.19-3.14,4.29
			c0,2.89,1.44,3.93,3.25,3.93C195.31,46.89,196.75,46.2,197.8,44.36z"/>
	</g>
</g>
</svg>
