<?xml version="1.0" encoding="utf-8"?>
<!-- Generator: Adobe Illustrator 26.3.1, SVG Export Plug-In . SVG Version: 6.00 Build 0)  -->
<svg version="1.1" id="圖層_1" xmlns="http://www.w3.org/2000/svg" xmlns:xlink="http://www.w3.org/1999/xlink" x="0px" y="0px"
	 viewBox="0 0 217.39 95.58" style="enable-background:new 0 0 217.39 95.58;" xml:space="preserve">
<style type="text/css">
	.st0{fill:#FFD601;}
	.st1{fill:#FFF2BB;}
	.st2{fill:none;stroke:#000000;stroke-miterlimit:10;}
	.st3{fill:#FFFFFF;stroke:#000000;stroke-width:1.5;stroke-miterlimit:10;}
</style>
<g>
	<g>
		<polygon class="st0" points="39.6,23.93 15.39,62.09 39.6,79.91 80.19,44.4 58.52,15.11 		"/>
		<polygon class="st1" points="41.75,50.69 47.79,68.18 66.24,72.26 73.43,57.69 47.79,47.51 		"/>
	</g>
</g>
<g>
	<g>
		<path class="st3" d="M110.87,57.53c6.71-6.1,11.22-10.97,11.22-14.87c0-2.45-1.37-3.79-3.5-3.79c-1.84,0-3.28,1.23-4.55,2.6
			l-3.5-3.46c2.63-2.78,5.09-4.15,8.91-4.15c5.2,0,8.8,3.32,8.8,8.44c0,4.62-3.97,9.71-8.08,13.86c1.33-0.18,3.18-0.36,4.37-0.36
			h4.94v5.41h-18.62V57.53z"/>
		<path class="st3" d="M135.52,47.65c0-9.24,3.83-13.78,9.49-13.78c5.67,0,9.53,4.62,9.53,13.78c0,9.24-3.86,14.07-9.53,14.07
			C139.35,61.72,135.52,56.88,135.52,47.65z M148.48,47.65c0-7.33-1.55-8.84-3.46-8.84c-1.91,0-3.43,1.52-3.43,8.84
			c0,7.36,1.52,9.09,3.43,9.09C146.93,56.74,148.48,55.01,148.48,47.65z"/>
		<path d="M160.25,57.53c6.71-6.1,11.22-10.97,11.22-14.87c0-2.45-1.37-3.79-3.5-3.79c-1.84,0-3.28,1.23-4.55,2.6l-3.5-3.46
			c2.63-2.78,5.09-4.15,8.91-4.15c5.2,0,8.8,3.32,8.8,8.44c0,4.62-3.97,9.71-8.08,13.86c1.33-0.18,3.18-0.36,4.37-0.36h4.94v5.41
			h-18.62V57.53z"/>
		<path d="M184.9,47.65c0-9.24,3.83-13.78,9.49-13.78c5.67,0,9.53,4.62,9.53,13.78c0,9.24-3.86,14.07-9.53,14.07
			C188.72,61.72,184.9,56.88,184.9,47.65z M197.85,47.65c0-7.33-1.55-8.84-3.46-8.84c-1.91,0-3.43,1.52-3.43,8.84
			c0,7.36,1.52,9.09,3.43,9.09C196.3,56.74,197.85,55.01,197.85,47.65z"/>
	</g>
</g>
</svg>
