<?xml version="1.0" encoding="utf-8"?>
<!-- Generator: Adobe Illustrator 25.4.1, SVG Export Plug-In . SVG Version: 6.00 Build 0)  -->
<svg version="1.1" id="圖層_1" xmlns="http://www.w3.org/2000/svg" xmlns:xlink="http://www.w3.org/1999/xlink" x="0px" y="0px"
	 viewBox="0 0 1620 843" style="enable-background:new 0 0 1620 843;" xml:space="preserve">
<style type="text/css">
	.st0{fill:#FFC331;}
	.st1{fill:#FFC331;stroke:#FFFFFF;stroke-miterlimit:10;}
</style>
<rect class="st0" width="1620" height="843"/>
<rect x="69" y="363.42" width="17" height="4"/>
<g>
	<g>
		<path d="M79.94,71.46c2.15,0.78,4.96,1.8,6.48,2.51l-1.06,1.79c-1.63-0.84-5-2.18-7.33-3.08l0.8-1.22h-0.8
			c-0.87,2.24-2.91,3.55-8.24,4.16c-0.11-0.55-0.63-1.42-1.01-1.9c4.03-0.36,5.81-1.06,6.65-2.26h-6.31v-1.86h7.01
			c0.06-0.29,0.09-0.59,0.13-0.91h2.38c-0.04,0.32-0.08,0.63-0.11,0.91h7.79v1.86H79.94z M72.76,68.95h-2.11v-9.73h5.66
			c0.17-0.47,0.32-0.95,0.42-1.33l2.47,0.23c-0.17,0.38-0.34,0.76-0.51,1.1h6.21v8.05c0,0.82-0.13,1.25-0.63,1.54
			c-0.47,0.29-1.08,0.32-1.8,0.32c-0.11-0.44-0.38-1.04-0.61-1.48l-0.61,0.8c-0.63-0.44-1.69-1.08-2.72-1.65v1.37h-1.69v-1.5
			c-0.84,0.8-1.84,1.5-2.77,1.92c-0.25-0.38-0.74-0.95-1.08-1.25c1.06-0.38,2.22-1.06,3.08-1.82H73.4v-1.33h1.31
			c-0.09-0.3-0.23-0.65-0.38-0.91l1.24-0.36c0.23,0.36,0.46,0.87,0.55,1.22l-0.17,0.06h0.89v-1.35c-1.03,0.04-2.03,0.06-2.96,0.04
			c-0.04-0.32-0.21-0.82-0.36-1.14c2.56-0.04,5.72-0.21,7.48-0.51l0.91,1.16c-0.97,0.15-2.15,0.29-3.38,0.36v1.44h0.82l-0.11-0.04
			c0.21-0.42,0.48-1.01,0.59-1.37l1.37,0.38c-0.25,0.38-0.46,0.72-0.63,1.03h1.5v1.33H79.1c1.12,0.55,2.38,1.23,3.08,1.71
			l-0.17,0.27c0.21,0,0.42,0,0.51,0c0.15,0,0.19-0.06,0.19-0.21v-6.29h-9.95V68.95z"/>
		<path d="M95.18,62.79c-0.42,0.85-0.91,1.75-1.46,2.64h0.02v10.2h-2.11V68.4c-0.46,0.59-0.93,1.12-1.37,1.56
			c-0.23-0.48-0.87-1.62-1.23-2.11c1.52-1.44,3.13-3.63,4.14-5.78L95.18,62.79z M94.85,58.73c-1.24,1.8-3.08,3.91-4.65,5.3
			c-0.23-0.51-0.72-1.39-1.04-1.86c1.31-1.1,2.91-2.93,3.69-4.26L94.85,58.73z M93.87,73.96c0.67-0.87,1.2-2.3,1.48-3.51l1.71,0.67
			c-0.32,1.25-0.82,2.81-1.5,3.82L93.87,73.96z M106.99,69.69h-5.76c0.4,0.67,0.84,1.48,1.08,2.01l-1.75,0.63
			c-0.23-0.59-0.74-1.58-1.14-2.32l0.97-0.32h-5.66v-1.8h12.25V69.69z M99.51,61.99c0.04-0.3,0.08-0.63,0.11-0.97h-4.63v-1.79h4.79
			c0.04-0.51,0.06-0.97,0.08-1.41l2.39,0.08l-0.19,1.33h4.86v1.79h-5.11c-0.06,0.34-0.11,0.67-0.15,0.97h4.69v5.04H95.67v-5.04
			H99.51z M101.9,73.7c0.53,0,0.65-0.21,0.7-1.58c0.4,0.27,1.2,0.55,1.73,0.67c-0.21,2.07-0.74,2.58-2.2,2.58h-2.36
			c-1.96,0-2.43-0.53-2.43-2.19v-2.32h1.98v2.3c0,0.48,0.11,0.53,0.74,0.53H101.9z M98.73,63.59h-1.29v1.84h1.29V63.59z
			 M101.6,63.59h-1.33v1.84h1.33V63.59z M103.12,65.43h1.39v-1.84h-1.39V65.43z M105.15,70.33c0.84,1.12,1.71,2.58,2.01,3.59
			l-1.77,0.8c-0.25-0.99-1.06-2.53-1.9-3.65L105.15,70.33z"/>
		<path d="M113.17,66.82c-0.74-0.67-2.3-1.54-3.51-2.07l1.18-1.69c1.2,0.46,2.81,1.25,3.59,1.9L113.17,66.82z M115.41,69.4
			c-0.95,1.99-2.09,4.16-3.19,5.98l-1.94-1.48c0.97-1.43,2.34-3.78,3.44-5.96L115.41,69.4z M114.23,61.77
			c-0.7-0.68-2.26-1.6-3.48-2.13l1.23-1.67c1.22,0.46,2.79,1.29,3.57,1.96L114.23,61.77z M126.47,67.22
			c-0.67,2.07-1.73,3.69-3.1,4.94c1.25,0.63,2.68,1.1,4.25,1.41c-0.51,0.47-1.16,1.41-1.48,2.03c-1.8-0.44-3.38-1.1-4.75-2
			c-1.62,0.95-3.48,1.58-5.55,2.01c-0.21-0.61-0.7-1.54-1.12-2.03c1.77-0.29,3.4-0.76,4.79-1.46c-0.89-0.85-1.65-1.82-2.28-2.92
			l1.46-0.49h-2.56v-2.01h8.43l0.4-0.08L126.47,67.22z M119.7,61.58c-0.65,2.07-1.61,3.8-2.93,5.02c-0.4-0.38-1.41-1.12-1.96-1.42
			c1.94-1.52,2.93-4.14,3.31-7.28l2.34,0.27c-0.08,0.48-0.15,0.93-0.25,1.39h6.19c0,0-0.02,0.53-0.06,0.84
			c-0.19,3.06-0.44,4.43-0.95,5c-0.4,0.46-0.87,0.61-1.52,0.68c-0.55,0.06-1.46,0.06-2.47,0.04c-0.04-0.65-0.29-1.5-0.67-2.09
			c0.86,0.1,1.71,0.12,2.09,0.12c0.3,0,0.47-0.04,0.67-0.19c0.23-0.23,0.4-0.91,0.51-2.36H119.7z M119.36,68.7
			c0.51,0.82,1.22,1.56,2.03,2.22c0.8-0.63,1.44-1.37,1.96-2.22H119.36z"/>
		<path d="M133.56,65.55c-0.65,1.12-1.37,2.07-2.15,2.75c-0.32-0.49-0.99-1.2-1.44-1.56c1.25-0.93,2.49-2.58,3.23-4.24h-2.75v-1.92
			h3.12v-2.68h2.15v2.68h2.68v1.92h-2.68v0.7c0.76,0.44,2.56,1.73,3,2.09l-1.18,1.8c-0.44-0.48-1.14-1.16-1.82-1.79v3.97h-2.15
			V65.55z M130.1,73.56c0.68-1.01,1.33-2.56,1.65-3.91l2.01,0.8c-0.38,1.35-0.93,3.04-1.6,4.14L130.1,73.56z M140.95,73.26
			c0.89,0,1.03-0.27,1.14-2.18c0.46,0.36,1.41,0.68,2.03,0.8c-0.28,2.72-0.91,3.38-3,3.38h-3.42c-2.58,0-3.23-0.63-3.23-2.6v-2.6
			h2.22v2.57c0,0.57,0.19,0.65,1.22,0.65H140.95z M138.74,68.55l0.38,0.34V58.84h7.71v10.22h-7.52c0.74,0.68,1.56,1.48,2.01,2.01
			l-1.63,1.37c-0.53-0.68-1.65-1.84-2.51-2.64L138.74,68.55z M141.17,61.73h3.5v-1.1h-3.5V61.73z M141.17,64.5h3.5v-1.1h-3.5V64.5z
			 M141.17,67.29h3.5v-1.14h-3.5V67.29z M145.56,69.4c0.76,1.18,1.86,2.79,2.37,3.78l-2.11,1.08c-0.46-1.01-1.5-2.68-2.24-3.95
			L145.56,69.4z"/>
		<path d="M155.88,66.76c-0.34,1.73-0.84,3.51-1.48,4.94c0.3,0.19,0.67,0.46,1.16,0.76c1.31,0.78,3.1,0.89,5.32,0.89
			c2.17,0,5.58-0.19,7.69-0.49c-0.27,0.61-0.65,1.71-0.66,2.32c-1.56,0.09-4.92,0.23-7.14,0.23c-2.53,0-4.12-0.21-5.49-1.01
			c-0.8-0.44-1.48-1.06-1.86-1.06c-0.44,0-1.12,1.29-1.6,2.38l-1.5-2.15c0.67-0.8,1.35-1.43,2-1.82c0.44-0.93,0.82-2.13,1.1-3.29
			h-2.39c0.44-1.12,0.93-2.64,1.37-4.12h-1.71v-2.01h4.45c-0.4,1.33-0.86,2.85-1.31,4.18h0.78l0.34-0.08L155.88,66.76z
			 M152.69,61.77c-0.21-0.85-0.72-2.22-1.04-3.27l1.99-0.61c0.36,1.03,0.86,2.3,1.12,3.15L152.69,61.77z M158.28,72.52h-1.96v-8.26
			h1.41v-5.81h8.19v5.81h1.39v6.34c0,0.89-0.15,1.37-0.74,1.67c-0.55,0.29-1.33,0.3-2.36,0.3c-0.06-0.49-0.27-1.14-0.49-1.63h-2.85
			v0.59h-1.61v-4.79h4.96v4.08c0.36,0,0.67,0,0.78,0c0.21,0,0.27-0.06,0.27-0.25v-4.62h-6.97V72.52z M159.68,64.26h1.06v-2.98h3.13
			v-1.16h-4.2V64.26z M162.57,68.19h-1.71v1.33h1.71V68.19z M163.88,62.68h-1.5v1.58h1.5V62.68z"/>
		<path d="M181.7,58.75c-0.13,0.19-0.27,0.36-0.4,0.55c1.86,1.92,4.9,3.89,7.48,5.02c-0.59,0.47-1.37,1.44-1.77,2.07
			c-1.18-0.61-2.45-1.44-3.67-2.38v1.86h-6.61v-1.9c-1.31,1.01-2.74,1.9-4.14,2.62c-0.38-0.65-1.08-1.52-1.75-2.09
			c3.32-1.44,6.72-3.86,8.59-6.82L181.7,58.75z M185.31,66.8l1.79,0.86c-1.67,2.39-4.1,5.53-6.16,8.07l-2.36-1.1
			c1.42-1.67,3.08-3.7,4.39-5.4h-9.67v-2.32h11.61L185.31,66.8z M182.97,63.72c-1.06-0.85-2.11-1.79-3.02-2.75
			c-0.87,1.01-1.86,1.92-2.91,2.75H182.97z"/>
		<path d="M201.86,67.18c1.33,3.02,3.76,5.24,7.47,6.21c-0.55,0.48-1.23,1.46-1.56,2.11c-3.57-1.14-5.87-3.34-7.47-6.46
			c-1.04,2.53-3.19,4.92-7.47,6.52c-0.3-0.57-0.99-1.52-1.48-1.96c4.39-1.56,6.25-4.01,7.03-6.42h-6.36v-2.32h6.84
			c0.04-0.51,0.06-0.99,0.06-1.46v-1.92h-6.21v-2.32h15.05v2.32h-6.46v1.96c0,0.46-0.02,0.93-0.04,1.42h7.24v2.32H201.86z"/>
		<path d="M222.29,58.44c-0.09,0.11-0.19,0.25-0.29,0.36c1.75,1.52,4.86,2.83,7.88,3.42c-0.47,0.4-1.12,1.2-1.42,1.73
			c-0.38-0.09-0.78-0.23-1.18-0.34v4.9h-13.2v-4.79c-0.4,0.13-0.8,0.27-1.18,0.36c-0.23-0.42-0.84-1.33-1.22-1.75
			c3.5-0.82,6.88-2.39,8.61-4.6L222.29,58.44z M226.6,63.36c-0.89-0.32-1.75-0.72-2.58-1.16v0.49h-6.67v-0.38
			c-0.74,0.38-1.5,0.74-2.3,1.04H226.6z M215.14,69.14h11.17v6.42H224V75.1h-6.63v0.51h-2.22V69.14z M217.29,67.14
			c-0.09-0.59-0.34-1.37-0.65-1.98l1.46-0.42h-2.15v2.39H217.29z M217.37,70.62v0.76H224v-0.76H217.37z M224,73.62v-0.76h-6.63v0.76
			H224z M219.68,64.75h-1.48c0.34,0.64,0.65,1.46,0.76,2.01l-1.22,0.38h1.94V64.75z M222.42,61.23c-0.57-0.4-1.12-0.82-1.6-1.23
			c-0.49,0.42-1.04,0.84-1.61,1.23H222.42z M221.51,64.75v2.39h1.77l-1.14-0.32c0.27-0.57,0.57-1.44,0.74-2.07H221.51z
			 M225.27,64.75h-1.98l1.48,0.36c-0.38,0.76-0.74,1.5-1.04,2.03h1.54V64.75z"/>
		<path d="M242.45,73.18c0.49,0.04,1.01,0.06,1.52,0.06c1.06,0,4.71,0,6.06-0.06c-0.3,0.51-0.65,1.5-0.76,2.17h-5.41
			c-3.48,0-5.83-0.49-7.43-2.7c-0.68,1.25-1.56,2.26-2.66,3.02c-0.32-0.42-1.2-1.25-1.71-1.58c1.94-1.2,3.1-3.21,3.53-5.76
			l2.26,0.34c-0.13,0.61-0.29,1.18-0.44,1.73c0.59,1.29,1.52,2,2.74,2.38v-4.83h-7.41v-2h16.76v2h-7.05v1.42h5.85v1.96h-5.85V73.18z
			 M247.69,65.13h-13.2v-6.59h13.2V65.13z M245.39,60.11h-8.7v0.97h8.7V60.11z M245.39,62.56h-8.7v0.99h8.7V62.56z"/>
		<path d="M258.22,66.99c-0.3,1.69-0.84,3.36-1.6,4.77c0.28,0.17,0.63,0.38,1.06,0.63c1.31,0.74,3.12,0.85,5.28,0.85
			c2.13,0,5.57-0.19,7.71-0.51c-0.27,0.63-0.65,1.75-0.68,2.39c-1.54,0.12-4.9,0.23-7.12,0.23c-2.49,0-4.1-0.21-5.49-0.97
			c-0.8-0.42-1.44-0.99-1.84-0.99c-0.44,0-1.14,1.24-1.65,2.26l-1.48-2.19c0.57-0.68,1.2-1.23,1.8-1.6c0.68-0.95,1.24-2.2,1.58-3.42
			h-2.66c0.49-1.12,1.06-2.64,1.56-4.12h-1.9v-2.01h4.77c-0.46,1.35-1.01,2.87-1.5,4.18h0.49l0.34-0.06L258.22,66.99z M254.97,61.8
			c-0.32-0.87-0.97-2.26-1.41-3.29l1.96-0.72c0.48,1.04,1.1,2.32,1.46,3.13L254.97,61.8z M270.11,61.75h-12.08V60h5.03
			c-0.23-0.53-0.53-1.14-0.82-1.62l2.18-0.68c0.4,0.63,0.89,1.5,1.12,2.05L264.79,60h5.32V61.75z M259.18,67.41h9.5v4.81h-9.5V67.41
			z M268.51,64.08h-9.12v-1.6h9.12V64.08z M259.39,64.94h9.12v1.6h-9.12V64.94z M261.29,70.6h5.17V69h-5.17V70.6z"/>
		<path d="M278.66,58.58c-0.42,1.2-0.91,2.41-1.48,3.61v13.47h-2.15v-9.73c-0.42,0.59-0.84,1.14-1.27,1.63
			c-0.17-0.55-0.72-1.88-1.06-2.45c1.58-1.73,3.02-4.45,3.88-7.18L278.66,58.58z M290.27,58.86v16.58h-2.15v-0.93h-7.14v1.1h-2.05
			V58.86H290.27z M288.12,72.56V60.82h-7.14v11.74H288.12z M285.38,64.79v1.63h1.82v5.09h-5.26v-5.09h1.69v-1.63h-2.18v-1.63h2.18
			v-1.94h1.75v1.94h2.3v1.63H285.38z M285.52,67.98h-1.94v2h1.94V67.98z"/>
		<path d="M299.18,69.65c-0.23-0.55-0.63-1.41-1.04-2.22v8.19h-2.05v-7.1c-0.49,1.46-1.08,2.79-1.73,3.74
			c-0.21-0.63-0.67-1.48-0.99-2c1.06-1.48,2.07-4.12,2.55-6.36h-2.11V61.8h2.28v-3.91h2.05v3.91h1.9v2.09h-1.9v0.84
			c0.51,0.7,1.88,2.79,2.2,3.3L299.18,69.65z M304.35,70.43c-0.68,2.34-2.15,3.99-3.93,4.9c-0.25-0.42-0.8-1.08-1.16-1.44
			c1.04-0.47,2.01-1.33,2.64-2.38h-2.07v-1.52h2.96l0.32-0.06L304.35,70.43z M311.13,69.52c-0.93,0.68-1.94,1.39-2.79,1.92
			c0.87,0.89,1.96,1.61,3.15,2.05c-0.44,0.38-1.03,1.16-1.33,1.65c-1.37-0.66-2.56-1.73-3.5-3.04v1.48c0,0.95-0.17,1.44-0.82,1.75
			c-0.63,0.3-1.46,0.32-2.62,0.32c-0.06-0.57-0.32-1.35-0.57-1.84c0.67,0.02,1.39,0.02,1.6,0c0.23,0,0.3-0.06,0.3-0.27v-4.2h-3.12
			v-1.54H306c-0.87-0.36-1.84-0.72-2.68-0.97l0.55-0.61H300v-1.65h4.52v-0.74h-3.31V62.3h3.31v-0.7h-3.99V60h2.01
			c-0.23-0.49-0.55-1.04-0.86-1.5l1.65-0.61c0.44,0.57,0.93,1.39,1.16,1.9L304,60h3.06l-0.38-0.13c0.34-0.57,0.76-1.42,0.99-1.98
			l2,0.57c-0.42,0.57-0.8,1.08-1.14,1.54h2.34v1.6h-4.18v0.7h3.72v1.54h-3.72v0.74h4.5v1.65h-4.73c0.89,0.32,1.79,0.68,2.38,1.03
			l-1.2,1.35c-0.27-0.15-0.59-0.32-0.97-0.49v0.95c0.19,0.42,0.42,0.8,0.68,1.18c0.76-0.61,1.6-1.37,2.13-1.96L311.13,69.52z"/>
		<path d="M331.44,68.36h-7.37v4.58c0,1.27-0.29,1.9-1.18,2.26c-0.93,0.36-2.22,0.42-3.97,0.4c-0.13-0.67-0.59-1.69-0.97-2.34
			c1.33,0.08,2.81,0.08,3.21,0.06c0.42-0.02,0.55-0.11,0.55-0.44v-4.52h-7.52V66.1h7.52v-2.64c1.2-0.57,2.56-1.42,3.67-2.24h-9.31
			v-2.24h11.83l0.53-0.11l1.71,1.31c-1.62,1.6-3.89,3.31-6.08,4.48v1.44h7.37V68.36z"/>
		<path d="M338.53,63.71c1.71,0,3.08,1.39,3.08,3.08s-1.37,3.08-3.08,3.08c-1.69,0-3.08-1.39-3.08-3.08S336.84,63.71,338.53,63.71z
			 M338.53,68.49c0.95,0,1.71-0.76,1.71-1.71s-0.76-1.71-1.71-1.71c-0.93,0-1.71,0.76-1.71,1.71S337.6,68.49,338.53,68.49z"/>
		<path d="M84.69,93.34v15.25h-2.41v-0.93h-9.02v0.95h-2.3V93.34h4.86c0.21-0.82,0.42-1.73,0.51-2.49l2.74,0.3
			c-0.29,0.76-0.59,1.5-0.89,2.18H84.69z M73.25,95.51v1.96h9.02v-1.96H73.25z M73.25,99.55v1.96h9.02v-1.96H73.25z M82.27,105.58
			v-1.98h-9.02v1.98H82.27z"/>
		<path d="M95.2,95.7c-0.42,0.76-0.91,1.54-1.44,2.3v10.68h-2.11v-8.13c-0.49,0.53-0.99,0.99-1.48,1.41
			c-0.21-0.49-0.82-1.63-1.18-2.11c1.6-1.2,3.25-3.04,4.24-4.88L95.2,95.7z M94.87,91.69c-1.2,1.63-2.96,3.48-4.54,4.63
			c-0.29-0.46-0.84-1.25-1.18-1.65c1.35-0.95,2.92-2.53,3.72-3.76L94.87,91.69z M102.21,106.28c0.46,0.08,0.95,0.09,1.44,0.09
			c0.53,0.02,2.62,0,3.34-0.02c-0.29,0.47-0.55,1.46-0.63,2.03h-2.91c-2.58,0-4.6-0.63-5.98-2.96c-0.47,1.25-1.12,2.32-2.01,3.17
			c-0.32-0.38-1.22-1.14-1.71-1.44c1.79-1.52,2.43-4.12,2.6-7.29l2.19,0.17c-0.08,0.95-0.17,1.82-0.32,2.66
			c0.46,1.35,1.1,2.22,1.88,2.79v-6.9h0.68c-0.42-0.32-0.89-0.67-1.22-0.85c1.84-1.42,2.85-3.88,3.23-6.82l2.11,0.25
			c-0.17,1.14-0.4,2.2-0.72,3.17c1.08,0.99,2.34,2.2,2.94,3.04l-1.5,1.5c-0.48-0.7-1.35-1.69-2.24-2.58
			c-0.44,0.87-0.97,1.63-1.58,2.3h0.4v2.68h3.67v1.9h-3.67V106.28z M99.94,97.18c-0.34-0.38-0.93-0.87-1.52-1.35
			c-0.63,1.29-1.39,2.41-2.3,3.27c-0.32-0.42-1.12-1.2-1.6-1.54c1.69-1.46,2.72-3.91,3.19-6.65l2.15,0.32
			c-0.19,0.97-0.42,1.9-0.72,2.77c0.68,0.48,1.41,1.03,1.8,1.41L99.94,97.18z"/>
		<path d="M115.81,91.63c-0.51,1.35-1.16,2.72-1.88,4.05v12.92h-2.17v-9.58c-0.4,0.51-0.8,0.97-1.18,1.39
			c-0.21-0.55-0.84-1.8-1.24-2.36c1.73-1.71,3.38-4.39,4.33-7.1L115.81,91.63z M124.04,106.43c1.12,0,1.33-0.48,1.46-2.6
			c0.51,0.34,1.41,0.7,2,0.84c-0.29,2.83-0.95,3.78-3.29,3.78h-4.31c-2.64,0-3.4-0.68-3.4-3.33V99.8l-1.44,0.57l-0.85-2l2.3-0.89V93
			h2.13v3.63l1.9-0.74v-4.92h2.03v4.12l2.55-0.99l0.19-0.13l1.69,0.51l-0.08,0.36c-0.09,2.72-0.34,6.29-0.76,8.64l-1.86-0.53
			c0.21-1.6,0.34-4.1,0.42-6.42l-2.15,0.87v6.73h-2.03v-5.95l-1.9,0.78v6.16c0,1.12,0.19,1.31,1.44,1.31H124.04z"/>
		<path d="M147.37,93.82c0,0,0,0.76-0.02,1.03c-0.25,8.49-0.46,11.51-1.23,12.52c-0.53,0.7-1.06,0.91-1.82,1.04
			c-0.72,0.1-1.86,0.08-2.98,0.04c-0.04-0.63-0.34-1.58-0.74-2.2c1.22,0.11,2.34,0.11,2.83,0.11c0.38,0,0.59-0.08,0.84-0.32
			c0.55-0.61,0.8-3.46,1.01-10.16h-4.07c-0.49,1.14-1.08,2.18-1.67,3c-0.3-0.29-0.95-0.72-1.46-1.06v8.87h-5.07v1.39h-2.05V93.95
			h2.15c0.25-0.95,0.47-2.17,0.55-3.06l2.47,0.34c-0.32,0.95-0.67,1.9-0.99,2.72h2.94v3.08c1.1-1.6,2.01-3.89,2.57-6.12l2.15,0.49
			c-0.19,0.82-0.46,1.62-0.74,2.41H147.37z M135.99,95.93h-3.02V99h3.02V95.93z M135.99,104.68v-3.72h-3.02v3.72H135.99z
			 M142.3,103.66c-0.53-1.14-1.71-3-2.64-4.39l1.77-1.01c0.95,1.31,2.2,3.12,2.79,4.22L142.3,103.66z"/>
		<path d="M167.79,96.89v1.69H151v-1.69h7.2V96h-5.34v-1.6h5.34v-0.86h-6.04v-1.69h6.04v-0.97h2.3v0.97h6.33v1.69h-6.33v0.86h5.49
			V96h-5.49v0.89H167.79z M165.46,106.47c0,1.06-0.27,1.54-1.04,1.82c-0.78,0.27-1.92,0.29-3.44,0.29c-0.11-0.55-0.42-1.29-0.7-1.8
			c0.93,0.06,2.17,0.06,2.45,0.04c0.34-0.02,0.44-0.09,0.44-0.38v-0.74h-7.75c-0.23,1.16-0.66,2.3-1.42,3.15
			c-0.34-0.44-1.27-1.31-1.73-1.62c1.1-1.27,1.18-3.04,1.18-4.46v-3.34h12.03V106.47z M163.16,104.23v-0.87h-7.48
			c-0.02,0.29-0.04,0.57-0.06,0.87H163.16z M155.67,101.04v0.84h7.48v-0.84H155.67z"/>
		<path d="M184.57,99.5c1.12,1.22,2.66,2.26,4.27,2.85c-0.51,0.42-1.22,1.29-1.54,1.86c-0.78-0.34-1.5-0.8-2.2-1.33v5.68h-2.49
			v-0.72h-5.76v0.8h-2.36v-5.76c-0.65,0.51-1.33,0.97-2.11,1.39c-0.28-0.59-1.01-1.48-1.54-1.84c1.6-0.82,2.87-1.81,3.89-2.93h-3.5
			v-1.94h4.96c0.17-0.3,0.34-0.59,0.51-0.89h-3.8v-1.79h4.56c0.09-0.29,0.15-0.55,0.25-0.84h-5.51v-1.9h5.93
			c0.08-0.42,0.13-0.85,0.17-1.25l2.41,0.23c-0.04,0.32-0.09,0.68-0.17,1.03h6.8v1.9h-7.2c-0.08,0.29-0.15,0.55-0.23,0.84h6.86v1.79
			h-7.54c-0.11,0.3-0.25,0.59-0.4,0.89h9.58v1.94H184.57z M182.61,102.25h-5.76v1.01h5.76V102.25z M182.61,105.96v-1.04h-5.76v1.04
			H182.61z M177.69,99.5c-0.19,0.32-0.42,0.63-0.67,0.93h5.64c-0.23-0.3-0.46-0.61-0.65-0.93H177.69z"/>
		<path d="M197.11,103.79c-0.3-0.53-0.86-1.33-1.39-2.09v6.93h-2.09v-6.67c-0.55,0.65-1.08,1.18-1.63,1.65
			c-0.15-0.63-0.63-1.8-0.91-2.22c1.56-1.18,3.15-3.19,4.14-5.26h-3.7V94.1h2.91c-0.32-0.7-0.87-1.61-1.31-2.32l1.71-0.87
			c0.57,0.76,1.2,1.79,1.54,2.45l-1.23,0.74h1.18l0.34-0.09l1.1,0.89c-0.51,1.44-1.22,2.87-2.03,4.2v0.19l0.29,0.29
			c0.46-0.53,1.01-1.27,1.29-1.81l1.31,1.24c-0.63,0.55-1.2,1.14-1.65,1.6c0.53,0.59,1.06,1.2,1.27,1.44L197.11,103.79z
			 M208.47,98.62c-0.55,2.55-1.5,4.58-2.81,6.19c1.03,0.8,2.24,1.42,3.67,1.82c-0.47,0.44-1.08,1.33-1.39,1.94
			c-1.48-0.53-2.74-1.27-3.8-2.2c-1.1,0.95-2.37,1.67-3.76,2.24c-0.27-0.55-0.78-1.41-1.2-1.84c1.31-0.42,2.49-1.08,3.53-1.94
			c-0.87-1.12-1.56-2.41-2.11-3.88c-0.23,2.6-0.87,5.58-2.64,7.6c-0.32-0.42-1.18-1.2-1.61-1.46c2.09-2.39,2.28-5.95,2.28-8.57
			v-5.09h3.97v-2.55h2.11v2.55h2.47l0.34-0.06l1.6,0.32c-0.34,1.46-0.82,3.1-1.22,4.12l-1.9-0.44c0.17-0.49,0.34-1.16,0.49-1.86
			h-1.79v2.66h2.03l0.38-0.08L208.47,98.62z M200.7,95.53v2.66h1.9v-2.66H200.7z M202.3,100.16c0.46,1.18,1.08,2.26,1.84,3.19
			c0.74-0.91,1.35-1.99,1.77-3.19H202.3z"/>
		<path d="M219.85,100.62c0.3,0.68,0.65,1.56,0.8,2.09l-0.76,0.27h0.29v1.82c0,1.5-0.38,2.91-2.77,3.74
			c-0.17-0.36-0.65-0.97-0.97-1.25c0.99-0.27,1.54-0.67,1.84-1.12h-2.15v-2.87h1.37v1.61h1.14v-0.15v-1.79h0.84
			c-0.04-0.13-0.08-0.3-0.11-0.48c-2.6,0.32-3.06,0.42-3.36,0.55v-0.02c-0.06-0.27-0.25-0.91-0.38-1.25
			c0.27-0.04,0.61-0.23,0.99-0.51c0.15-0.11,0.46-0.36,0.82-0.7c-0.89,0.08-1.18,0.15-1.35,0.23v-0.02
			c-0.08-0.29-0.29-0.93-0.46-1.29c0.21-0.04,0.44-0.13,0.63-0.34c0.19-0.15,0.74-0.68,1.12-1.35h-2.51v10.85h-2.17V91.61h7.33v6.17
			h-1.92l0.7,0.38c-0.38,0.49-0.85,1.01-1.31,1.41l0.99-0.04c0.25-0.29,0.48-0.59,0.7-0.87l1.1,0.76c-0.74,0.78-1.6,1.58-2.47,2.2
			l1.18-0.11c-0.06-0.21-0.15-0.42-0.23-0.61L219.85,100.62z M214.86,93.13v0.89h3.04v-0.89H214.86z M214.86,96.27h3.04v-0.87h-3.04
			V96.27z M228.74,106.03c0,1.08-0.15,1.71-0.8,2.09c-0.63,0.38-1.52,0.42-2.79,0.42c-0.06-0.49-0.25-1.25-0.48-1.84h-0.91v-0.53
			h-1.14v2.22h-1.58v-5.41h0.04c-0.1-0.3-0.27-0.85-0.4-1.18c0.3-0.02,0.63-0.21,1.01-0.51c0.15-0.11,0.44-0.36,0.8-0.7
			c-0.89,0.08-1.18,0.15-1.35,0.23c-0.08-0.3-0.29-0.95-0.46-1.29c0.21-0.06,0.44-0.15,0.63-0.34c0.17-0.17,0.72-0.7,1.12-1.39
			h-1.16v-6.17h7.47V106.03z M225.21,106.36c0.46,0.02,0.85,0.02,1.03,0c0.25,0,0.32-0.1,0.32-0.34v-8.23h-3.44l0.74,0.4
			c-0.38,0.49-0.82,0.99-1.27,1.39l0.93-0.04c0.28-0.3,0.55-0.61,0.78-0.91l1.08,0.78c-0.76,0.8-1.6,1.6-2.45,2.26l1.16-0.11
			c-0.09-0.21-0.17-0.42-0.27-0.61l1.06-0.34c0.34,0.68,0.72,1.58,0.89,2.09l-1.12,0.44c-0.06-0.17-0.13-0.4-0.19-0.63
			c-1.98,0.25-2.72,0.38-3.1,0.48h1.25v1.94h1.14v-1.61h1.44V106.36z M223.42,93.13v0.89h3.13v-0.89H223.42z M223.42,96.27h3.13
			v-0.87h-3.13V96.27z"/>
		<path d="M237.58,99.76c-0.34,1.73-0.86,3.51-1.5,4.94c0.3,0.19,0.67,0.46,1.18,0.76c1.29,0.78,3.08,0.89,5.3,0.89
			c2.19,0,5.59-0.19,7.68-0.49c-0.25,0.61-0.63,1.71-0.65,2.32c-1.58,0.09-4.92,0.23-7.14,0.23c-2.53,0-4.12-0.21-5.49-1.01
			c-0.8-0.44-1.46-1.06-1.86-1.06c-0.44,0-1.1,1.29-1.58,2.38l-1.5-2.15c0.65-0.8,1.35-1.43,2-1.8c0.42-0.95,0.8-2.15,1.08-3.31
			h-2.39c0.44-1.12,0.95-2.64,1.37-4.12h-1.71v-2.01h4.45c-0.4,1.33-0.85,2.85-1.29,4.18h0.76l0.34-0.08L237.58,99.76z
			 M234.37,94.77c-0.21-0.85-0.7-2.24-1.03-3.27l1.99-0.61c0.36,1.03,0.84,2.3,1.1,3.15L234.37,94.77z M238.72,97.73
			c-0.32,0.38-0.65,0.7-0.97,1.03c-0.21-0.46-0.84-1.58-1.22-2.07c1.52-1.37,2.89-3.53,3.65-5.76l2.05,0.57
			c-0.29,0.82-0.65,1.61-1.03,2.41h2.83c-0.25-0.68-0.57-1.42-0.89-2.05l2.13-0.61c0.48,0.82,0.97,1.86,1.22,2.66h3v1.9h-3.84v1.08
			h3.06v1.82h-3.06v1.18h2.98v1.82h-2.98v1.2h4.05v1.9h-8.8v0.8h-2.18V97.73z M243.51,95.81h-2.6v1.08h2.6V95.81z M243.51,98.72
			h-2.6v1.18h2.6V98.72z M243.51,101.72h-2.6v1.2h2.6V101.72z"/>
		<path d="M267.9,106.18h2.28v1.94h-17.33v-1.94h2.2v-4.33h12.84V106.18z M270.18,93.57v1.9h-5.74c-0.42,0.87-0.89,1.67-1.41,2.28
			c-0.34-0.32-1.18-0.91-1.67-1.24v1.6h-2.56v1.12h3.21v1.71h-8.66v-9.42h8.55v1.71h-3.1v0.99h2.56v2.18
			c1.12-1.33,1.96-3.4,2.41-5.51l2.09,0.42c-0.19,0.78-0.4,1.52-0.67,2.26H270.18z M255.38,93.23v0.99H257v-0.99H255.38z
			 M259.53,95.66h-4.14v1.01h4.14V95.66z M257,98.11h-1.62v1.12H257V98.11z M257.17,106.18h1.42v-2.58h-1.42V106.18z M260.67,103.6
			v2.58h1.5v-2.58H260.67z M269.84,100.33h-6.55V98.3h6.55V100.33z M264.22,103.6v2.58h1.46v-2.58H264.22z"/>
		<path d="M278.68,92.11c-0.48,0.97-1.06,1.86-1.71,2.72c0.7,1.97,0.82,4.03,0.82,6.25c0,2.62-0.13,5.39-0.91,6.52
			c-0.23,0.34-0.59,0.59-1.03,0.67c-0.53,0.13-1.18,0.17-1.86,0.15c-0.02-0.7-0.17-1.44-0.49-2.05c0.61,0.06,1.04,0.04,1.33,0
			c0.23-0.02,0.38-0.1,0.49-0.27c0.34-0.4,0.46-2.26,0.48-4.25c-0.55,0.85-1.14,1.61-1.71,2.22c-0.27-0.53-0.8-1.35-1.22-1.77
			c1.06-0.87,2.18-2.56,2.81-4.06c-0.06-0.55-0.15-1.1-0.27-1.62c-0.38,0.38-0.76,0.74-1.18,1.06c-0.32-0.42-0.97-1.04-1.39-1.39
			c0.65-0.51,1.29-1.12,1.88-1.8c-0.38-0.84-0.89-1.63-1.58-2.43l1.54-1.04c0.51,0.57,0.95,1.18,1.31,1.79
			c0.36-0.57,0.68-1.14,0.93-1.69L278.68,92.11z M288.21,97.67c0.36,3.78,1.06,7.28,2.87,9.02c-0.48,0.4-1.2,1.29-1.52,1.86
			c-1.12-1.27-1.8-3.13-2.26-5.32c-0.47,2.13-1.27,3.97-2.53,5.43c-0.34-0.48-1.01-1.12-1.52-1.42l0.02-0.02h-2.87v0.95h-1.71v-6.14
			h5.22v4.37c1.48-2.22,1.99-5.24,2.18-8.72h-1.67v-1.77h-6.36v-1.79h2.79c-0.23-0.67-0.68-1.63-1.08-2.37l1.69-0.63
			c0.46,0.74,0.95,1.73,1.2,2.37l-1.41,0.63h3.42v1.69h1.48c0.04-1.44,0.04-2.96,0.04-4.52h1.98v1.35l1.35-0.59
			c0.53,0.85,1.08,1.98,1.29,2.72l-1.52,0.65c-0.17-0.7-0.63-1.82-1.14-2.68c0,1.04-0.02,2.09-0.04,3.08h2.47v1.84H288.21z
			 M283.96,98.58h-5.26v-1.77h5.26V98.58z M278.7,99.44h5.26v1.77h-5.26V99.44z M282.29,103.66h-1.88v1.94h1.88V103.66z"/>
		<path d="M301.65,103.28c-2.51,1.12-5.32,2.32-7.47,3.21l-0.76-2.41c0.72-0.25,1.58-0.55,2.53-0.93l-0.38-11.09l2.36-0.1
			l0.34,10.28c0.95-0.4,1.92-0.8,2.87-1.18L301.65,103.28z M309.51,108.62c-0.7-1.23-2.15-2.98-3.55-4.58
			c-1.39,1.98-3.27,3.5-5.78,4.62c-0.32-0.49-1.25-1.52-1.8-2c6.02-2.28,7.98-6.88,8.68-14.68l2.49,0.23
			c-0.4,3.89-1.08,7.07-2.32,9.65c1.58,1.63,3.34,3.55,4.22,4.88L309.51,108.62z M302.39,98.87c-0.47-1.31-1.69-3.31-2.83-4.71
			l2.05-1.03c1.24,1.39,2.43,3.25,3,4.56L302.39,98.87z"/>
		<path d="M319.87,95.68c-0.42,0.84-0.93,1.67-1.5,2.51v10.51h-2.13v-7.88c-0.4,0.42-0.82,0.8-1.2,1.14
			c-0.21-0.47-0.82-1.61-1.2-2.11c1.5-1.2,3.1-3.02,4.03-4.86L319.87,95.68z M319.53,91.67c-1.1,1.67-2.81,3.5-4.33,4.65
			c-0.28-0.46-0.84-1.23-1.2-1.63c1.29-0.97,2.79-2.55,3.53-3.78L319.53,91.67z M330.11,101.26c-0.72,1.77-1.8,3.15-3.17,4.27
			c1.33,0.55,2.83,0.95,4.46,1.22c-0.48,0.46-1.06,1.37-1.35,1.96c-1.96-0.38-3.69-0.99-5.17-1.8c-1.58,0.84-3.36,1.44-5.24,1.84
			c-0.21-0.57-0.67-1.46-1.06-1.92c1.54-0.25,3-0.67,4.33-1.23c-0.44-0.34-0.87-0.72-1.25-1.12c-0.42,0.36-0.82,0.7-1.23,0.99
			c-0.3-0.4-1.06-1.25-1.48-1.63c0.46-0.3,0.91-0.63,1.37-1.01c-0.38-0.53-0.72-1.08-1.01-1.67l1.84-0.61
			c0.15,0.32,0.32,0.63,0.51,0.91c0.49-0.57,0.93-1.18,1.31-1.82c-2.05,0.17-2.58,0.27-3,0.42c-0.09-0.42-0.42-1.5-0.67-2.05
			c0.65-0.09,1.25-0.4,2.15-0.93c0.34-0.17,0.99-0.51,1.73-1.01c-1.98,0.09-2.45,0.19-2.79,0.32c-0.13-0.47-0.47-1.54-0.72-2.13
			c0.4-0.1,0.8-0.32,1.27-0.67c0.49-0.3,2.03-1.42,3.06-2.66l2.26,0.99c-0.91,0.87-1.98,1.71-3.04,2.43l2.45-0.04
			c0.72-0.57,1.42-1.16,2.05-1.77l2.11,1.14c-1.86,1.56-3.93,2.96-5.98,4.07l3.97-0.21c-0.27-0.38-0.53-0.74-0.78-1.08l1.73-0.89
			c0.97,1.27,2.26,3.02,2.87,4.12l-1.86,1.06c-0.21-0.44-0.51-0.97-0.87-1.54l-3.5,0.23c-0.21,0.44-0.44,0.86-0.67,1.27h3.61
			l0.36-0.1L330.11,101.26z M323.48,102.5c-0.15,0.19-0.3,0.38-0.46,0.55c0.55,0.53,1.2,1.03,1.9,1.46c0.86-0.57,1.6-1.23,2.15-2.01
			H323.48z"/>
		<path d="M336.27,102.4c1.48-0.48,2.34-1.29,2.45-2.3c-0.06,0.02-0.13,0.02-0.21,0.02c-0.95,0-1.8-0.61-1.8-1.69
			c0-1.06,0.86-1.71,1.86-1.71c1.35,0,2.05,1.01,2.05,2.6c0,2.15-1.39,3.91-3.74,4.6L336.27,102.4z"/>
		<path d="M351.41,91.63c-0.51,1.35-1.16,2.72-1.88,4.05v12.92h-2.17v-9.58c-0.4,0.51-0.8,0.97-1.18,1.39
			c-0.21-0.55-0.84-1.8-1.24-2.36c1.73-1.71,3.38-4.39,4.33-7.1L351.41,91.63z M359.64,106.43c1.12,0,1.33-0.48,1.46-2.6
			c0.51,0.34,1.41,0.7,2,0.84c-0.29,2.83-0.95,3.78-3.29,3.78h-4.31c-2.64,0-3.4-0.68-3.4-3.33V99.8l-1.44,0.57l-0.85-2l2.3-0.89V93
			h2.13v3.63l1.9-0.74v-4.92h2.03v4.12l2.55-0.99l0.19-0.13l1.69,0.51l-0.08,0.36c-0.09,2.72-0.34,6.29-0.76,8.64l-1.86-0.53
			c0.21-1.6,0.34-4.1,0.42-6.42l-2.15,0.87v6.73h-2.03v-5.95l-1.9,0.78v6.16c0,1.12,0.19,1.31,1.44,1.31H359.64z"/>
		<path d="M378.92,106.34c1.71,0,2-0.51,2.26-2.98c0.55,0.34,1.5,0.7,2.11,0.84c-0.38,3.15-1.14,4.18-4.22,4.18h-5.93
			c-3.34,0-4.33-0.76-4.33-3.69v-5.09l-2.66,0.84l-0.59-2.05l3.25-1.01v-5.15h2.22v4.45l2.91-0.91v-4.84h2.26v4.12l3.51-1.08
			l0.61-0.42l1.69,0.53l-0.08,0.34c-0.11,2.66-0.4,6.17-0.84,8.49l-1.86-0.53c0.23-1.54,0.38-3.97,0.46-6.23l-3.5,1.12v7.1h-2.26
			v-6.4l-2.91,0.93v5.81c0,1.41,0.27,1.63,2.13,1.63H378.92z"/>
		<path d="M387.21,97.5c-0.36-0.36-0.84-0.76-1.18-0.95c1.44-1.67,2.28-3.86,2.68-5.66l2.03,0.25c-0.13,0.49-0.27,0.99-0.44,1.48
			h1.77l0.36-0.11l1.25,0.84c-0.34,0.78-0.78,1.6-1.22,2.36h2.15v7.66h-7.41V97.5z M386.03,107.82c0.76-0.91,1.14-2.41,1.29-3.91
			l1.56,0.38c-0.19,1.65-0.49,3.34-1.39,4.37L386.03,107.82z M389.01,98.66h1.06v-1.18h-1.06V98.66z M389.01,101.57h1.06v-1.24
			h-1.06V101.57z M389.68,94.31c-0.19,0.47-0.42,0.93-0.65,1.39h1.42c0.21-0.4,0.46-0.89,0.65-1.39H389.68z M390.59,103.92
			c0.21,1.2,0.3,2.74,0.27,3.76l-1.54,0.17c0.08-1.01,0-2.54-0.17-3.76L390.59,103.92z M392.37,103.88c0.44,1.1,0.76,2.57,0.85,3.53
			l-1.46,0.32c-0.06-0.97-0.38-2.45-0.76-3.59L392.37,103.88z M392.72,97.48h-1.08v1.18h1.08V97.48z M392.72,100.33h-1.08v1.24h1.08
			V100.33z M394.22,103.6c0.63,1.1,1.18,2.53,1.41,3.5l-1.46,0.57c-0.15-0.99-0.72-2.47-1.27-3.59L394.22,103.6z M403.91,104.04
			h-3.55v4.56h-2.2v-4.56h-3.23v-1.98h3.23v-1.79h-2.72v-1.94h2.72v-1.65h-3.12v-1.98h1.46c-0.21-0.93-0.7-2.18-1.22-3.15l1.84-0.65
			c0.65,1.06,1.2,2.45,1.41,3.4l-1.04,0.4h3.63l-1.27-0.32c0.46-0.97,1.01-2.45,1.27-3.5l2.3,0.49c-0.53,1.22-1.12,2.47-1.61,3.33
			h1.67v1.98h-3.12v1.65h2.83v1.94h-2.83v1.79h3.55V104.04z"/>
		<path d="M421.97,101.59c-2.7,4.5-7.73,6.23-14.5,7.01c-0.19-0.67-0.63-1.58-1.04-2.17c6.35-0.53,11.11-1.9,13.47-5.76
			L421.97,101.59z M412.21,94.23c-0.93,2.41-2.28,5.04-3.46,6.69c-0.46-0.32-1.42-0.86-1.98-1.1c1.25-1.52,2.53-3.95,3.29-6.14
			L412.21,94.23z M416.31,90.91v11.82h-2.24V90.91H416.31z M420.66,93.59c1.29,1.96,2.77,4.45,3.53,6.12l-1.94,1.14
			c-0.7-1.67-2.2-4.35-3.42-6.31L420.66,93.59z"/>
		<path d="M435.47,100.75c-1.04,1.67-2.3,3.29-3.53,4.65l7.69-0.46c-0.67-0.97-1.37-1.92-2.03-2.74l2.09-0.91
			c1.65,1.9,3.38,4.39,4.22,6.12l-2.2,1.14c-0.21-0.47-0.47-1.01-0.8-1.58c-9.57,0.76-10.9,0.82-11.85,1.18
			c-0.13-0.46-0.51-1.6-0.78-2.22c0.49-0.11,0.89-0.49,1.46-1.14c0.46-0.47,1.8-2.18,2.87-4.05h-5.34v-2.28h7.39v-2.7h-5.95v-2.28
			h5.95v-2.62h2.39v2.62h6.12v2.28h-6.12v2.7h7.49v2.28H435.47z"/>
		<path d="M453.16,100.9c-0.51,0.19-1.03,0.4-1.56,0.57v4.6c0,1.04-0.17,1.6-0.74,1.98c-0.57,0.34-1.39,0.44-2.56,0.42
			c-0.06-0.57-0.32-1.5-0.59-2.11c0.67,0.04,1.29,0.04,1.52,0.04c0.23,0,0.3-0.08,0.3-0.32v-3.86c-0.53,0.19-1.04,0.36-1.54,0.53
			l-0.53-2.17c0.59-0.15,1.29-0.36,2.07-0.61v-3.4h-1.8v-2.09h1.8v-3.59h2.07v3.59h1.29v2.09h-1.29v2.72l1.2-0.4L453.16,100.9z
			 M461.06,102.33c1.06,1.39,2.62,2.7,4.16,3.42c-0.49,0.42-1.2,1.24-1.54,1.77c-1.41-0.85-2.79-2.2-3.89-3.72v4.86h-2.22V104
			c-1.04,1.52-2.36,2.83-3.86,3.65c-0.32-0.53-0.99-1.29-1.44-1.71c1.63-0.76,3.13-2.09,4.14-3.61h-3.04v-2.01h4.2v-1.88h2.22v1.88
			h4.94v2.01H461.06z M458.46,94.2c-0.15,2.68-0.82,4.2-4.45,4.98c-0.19-0.53-0.68-1.35-1.1-1.75c3-0.47,3.38-1.35,3.5-3.23H458.46z
			 M455.44,95.64h-2.09v-3.88h11.23v3.76h-2.2v-1.84h-6.93V95.64z M463.43,96.8c0.34,0,0.87-0.06,1.18-0.13
			c0.06,0.51,0.11,1.39,0.17,1.88c-0.3,0.11-0.82,0.11-1.31,0.11h-1.69c-1.96,0-2.41-0.63-2.41-2.51v-1.98h2v1.99
			c0,0.46,0.06,0.63,0.38,0.63H463.43z"/>
		<path d="M474.17,103.07c-0.32-0.47-0.85-1.18-1.39-1.82v7.37h-2.22v-6.97c-0.72,0.65-1.42,1.24-2.17,1.67
			c-0.15-0.63-0.59-1.88-0.86-2.3c1.9-1.04,3.74-2.91,4.88-4.92h-4.33v-2.03h3.23c-0.36-0.67-0.89-1.46-1.39-2.05l1.73-1.06
			c0.65,0.72,1.37,1.69,1.69,2.39l-1.06,0.72h1.35l0.4-0.1l1.2,0.87c-0.55,1.39-1.31,2.74-2.18,3.97c0.76,0.67,2.15,2.01,2.51,2.39
			L474.17,103.07z M483.48,106.58c0.32,0,0.38-0.25,0.44-2.15c0.38,0.34,1.27,0.68,1.84,0.83c-0.19,2.58-0.72,3.27-2.01,3.27h-1.25
			c-1.67,0-2.03-0.65-2.03-2.53v-3.72h-1.06c-0.27,3.1-1.01,5.19-4.65,6.37c-0.19-0.51-0.74-1.27-1.12-1.65
			c3.04-0.87,3.55-2.37,3.76-4.71h-1.25V91.65h8.42v10.64h-2v3.72c0,0.51,0.04,0.57,0.3,0.57H483.48z M478.18,94.67h4.2v-1.23h-4.2
			V94.67z M478.18,97.56h4.2v-1.22h-4.2V97.56z M478.18,100.48h4.2v-1.23h-4.2V100.48z"/>
		<path d="M505.04,93.3v4.43h-2.38v-2.26H491.4v2.26h-2.26V93.3h7.11c-0.21-0.63-0.51-1.35-0.82-1.96l2.2-0.65
			c0.47,0.82,0.91,1.86,1.12,2.6H505.04z M500.79,105.97c1.46,0,1.69-0.42,1.92-2.87c0.57,0.38,1.6,0.78,2.26,0.93
			c-0.38,3.23-1.12,4.18-4.07,4.18h-5.11c-3.25,0-4.2-0.74-4.2-3.34v-7.85h2.37v3.69c2.7-0.72,5.41-1.67,7.2-2.6l1.8,1.8
			c-2.58,1.16-5.91,2.13-9,2.85v2.07c0,1.01,0.27,1.14,1.92,1.14H500.79z"/>
		<path d="M512.85,96.71c1.71,0,3.08,1.39,3.08,3.08s-1.37,3.08-3.08,3.08c-1.69,0-3.08-1.39-3.08-3.08S511.16,96.71,512.85,96.71z
			 M512.85,101.49c0.95,0,1.71-0.76,1.71-1.71s-0.76-1.71-1.71-1.71c-0.93,0-1.71,0.76-1.71,1.71S511.92,101.49,512.85,101.49z"/>
		<path d="M75.87,134.7c0.95,1.56,2.11,3.63,2.62,4.96l-2.11,1.12c-0.15-0.47-0.38-1.04-0.67-1.63c-4.46,1.41-5.22,1.71-5.76,2.07
			c-0.13-0.65-0.51-1.75-0.87-2.3c0.42-0.21,0.87-0.59,0.87-1.33v-12.75h8v9.38h-5.68v3.74l2.53-0.72c-0.3-0.55-0.61-1.1-0.89-1.6
			L75.87,134.7z M72.28,126.86v1.61h3.42v-1.61H72.28z M75.7,132.21v-1.73h-3.42v1.73H75.7z M85.83,135.9c0,1.03-0.17,1.61-0.82,2
			c-0.61,0.36-1.48,0.38-2.7,0.38c-0.08-0.61-0.34-1.54-0.63-2.13c0.68,0.04,1.39,0.04,1.6,0.02c0.23,0,0.32-0.08,0.32-0.32v-8.79
			h-2.3v14.59h-2.28v-16.66h6.8V135.9z"/>
		<path d="M101.84,134.68c-0.15,1.18-0.47,2.3-1.04,3.31c1.75,0.84,3.93,1.37,6.5,1.6c-0.47,0.49-1.06,1.42-1.35,2.01
			c-2.56-0.32-4.73-0.99-6.5-2c-0.91,0.84-2.2,1.54-3.89,2.03c-0.28-0.49-0.95-1.41-1.41-1.88c1.52-0.34,2.64-0.84,3.46-1.46
			c-0.93-0.78-1.69-1.75-2.34-2.83l1.84-0.57c0.46,0.74,1.06,1.39,1.77,1.96c0.38-0.68,0.59-1.39,0.7-2.17h-4.24v-5.55h4.37v-1.33
			h-4.77v-1.75c-0.34,0.72-0.72,1.46-1.14,2.19v13.43h-2.15v-10.2c-0.51,0.65-1.03,1.25-1.56,1.79c-0.21-0.55-0.82-1.77-1.2-2.32
			c1.8-1.71,3.57-4.39,4.6-7.09l2.09,0.68c-0.17,0.4-0.34,0.8-0.51,1.22h4.64v-1.73h2.24v1.73h5.03v2.05h-5.03v1.33h4.52v5.55
			H101.84z M99.72,132.86v-0.25v-1.63h-2.34v1.88H99.72z M101.96,130.98v1.65v0.23h2.36v-1.88H101.96z"/>
		<path d="M119.89,139.18c0.49,0.04,1.01,0.06,1.52,0.06c1.06,0,4.71,0,6.06-0.06c-0.3,0.51-0.65,1.5-0.76,2.17h-5.41
			c-3.48,0-5.83-0.49-7.43-2.7c-0.68,1.25-1.56,2.26-2.66,3.02c-0.32-0.42-1.2-1.25-1.71-1.58c1.94-1.2,3.1-3.21,3.53-5.76
			l2.26,0.34c-0.13,0.61-0.29,1.18-0.44,1.73c0.59,1.29,1.52,2,2.74,2.38v-4.83h-7.41v-2h16.76v2h-7.05v1.42h5.85v1.96h-5.85V139.18
			z M125.14,131.13h-13.2v-6.59h13.2V131.13z M122.84,126.11h-8.7v0.97h8.7V126.11z M122.84,128.56h-8.7v0.99h8.7V128.56z"/>
		<path d="M140.59,133.18c1.33,3.02,3.76,5.24,7.47,6.21c-0.55,0.48-1.23,1.46-1.56,2.11c-3.57-1.14-5.87-3.34-7.47-6.46
			c-1.04,2.53-3.19,4.92-7.47,6.52c-0.3-0.57-0.99-1.52-1.48-1.96c4.39-1.56,6.25-4.01,7.03-6.42h-6.36v-2.32h6.84
			c0.04-0.51,0.06-0.99,0.06-1.46v-1.92h-6.21v-2.32h15.05v2.32h-6.46v1.96c0,0.46-0.02,0.93-0.04,1.42h7.24v2.32H140.59z"/>
		<path d="M165.17,130.35c-0.06,5.17,0.13,8.99,1.24,8.99c0.29,0,0.38-1.04,0.4-2.66c0.44,0.55,0.99,1.12,1.44,1.44
			c-0.15,2.43-0.59,3.48-2.01,3.48c-2.83,0-3.27-4.01-3.34-9.56h-10.24v-1.5c-0.23,0.21-0.44,0.4-0.67,0.57
			c-0.3-0.46-1.1-1.41-1.58-1.84c1.77-1.22,3.36-3.23,4.24-5.36l2.2,0.67c-0.13,0.3-0.29,0.63-0.46,0.95h11.13v1.69h-12.1
			c-0.15,0.25-0.32,0.49-0.49,0.74h11v1.63h-11.09v-1.5c-0.63,0.84-1.27,1.62-1.98,2.26H165.17z M156,137.85
			c-0.85,1.48-2.36,2.98-3.86,3.74c-0.32-0.49-0.95-1.22-1.41-1.61c1.39-0.55,2.85-1.63,3.61-2.74L156,137.85z M158.24,137v4.58
			h-2.13V137h-4.69v-1.71h2.18c-0.19-0.63-0.66-1.54-1.16-2.17l1.71-0.68c0.53,0.68,1.08,1.58,1.25,2.2l-1.58,0.65h2.28v-2.87h2.13
			v2.87h1.6l-1.03-0.4c0.44-0.67,1.01-1.67,1.31-2.38l1.98,0.61c-0.61,0.78-1.24,1.58-1.73,2.17h2.28V137H158.24z M159.74,137.19
			c1.14,0.78,2.72,1.94,3.5,2.74l-1.35,1.37c-0.74-0.8-2.28-2.03-3.44-2.89L159.74,137.19z"/>
		<path d="M177.14,138.25h-3.59v1.5h-1.92v-14.42h5.51V138.25z M173.55,127.35v3.36h1.79v-3.36H173.55z M175.34,136.24v-3.55h-1.79
			v3.55H175.34z M187.57,139.49c0,0.99-0.19,1.52-0.89,1.82c-0.65,0.32-1.6,0.32-2.91,0.32c-0.08-0.55-0.36-1.37-0.61-1.92
			c0.78,0.06,1.67,0.04,1.92,0.04c0.27,0,0.34-0.08,0.34-0.3v-0.65h-4.96c-0.25,1.1-0.68,2.17-1.39,3c-0.3-0.42-1.2-1.22-1.63-1.5
			c1.1-1.33,1.2-3.15,1.2-4.63v-3.44h8.93V139.49z M188.56,129.89v1.62h-10.73v-1.62h4.18v-0.82h-3.5v-1.52h3.5v-0.76h-4.14v-1.61
			h4.14v-1.29h2.13v1.29h4.2v1.61h-4.2v0.76h3.67v1.52h-3.67v0.82H188.56z M185.42,137.25v-0.87h-4.69c0,0.28-0.02,0.57-0.04,0.87
			H185.42z M180.75,133.81v0.97h4.67v-0.97H180.75z"/>
		<path d="M208.38,138.9c0,1.14-0.21,1.77-0.89,2.15c-0.67,0.38-1.63,0.42-3.06,0.42c-0.08-0.63-0.38-1.65-0.68-2.24
			c0.84,0.04,1.75,0.04,2.03,0.04c0.29-0.02,0.38-0.11,0.38-0.4v-3.21h-3.04c-0.29,2.15-0.84,4.35-2,5.96
			c-0.42-0.36-1.35-0.97-1.88-1.2c0.25-0.34,0.47-0.7,0.66-1.1l-1.75,0.84c-0.1-0.34-0.25-0.76-0.42-1.2
			c-4.05,1.75-4.77,2.17-5.26,2.56c-0.19-0.47-0.82-1.31-1.18-1.65c0.42-0.34,0.91-1.01,0.91-2v-11.99h3.08
			c-0.17-0.49-0.4-1.04-0.63-1.5l2.22-0.44c0.32,0.61,0.68,1.37,0.87,1.94h2.39v8.38h-5.68v3.71l2.37-0.97
			c-0.3-0.59-0.61-1.2-0.91-1.75l1.92-0.8c0.82,1.35,1.77,3.13,2.26,4.39c1.01-2.38,1.1-5.3,1.1-7.56v-6.55h7.16V138.9z
			 M194.47,127.9v1.18h3.48v-1.18H194.47z M197.95,132.23v-1.25h-3.48v1.25H197.95z M206.15,133.6v-2.51h-2.77v0.19
			c0,0.72-0.02,1.5-0.06,2.32H206.15z M203.38,126.78v2.3h2.77v-2.3H203.38z"/>
		<path d="M229.07,126.82c0,0,0,0.76-0.02,1.03c-0.25,8.49-0.46,11.51-1.23,12.52c-0.53,0.7-1.06,0.91-1.82,1.04
			c-0.72,0.1-1.86,0.08-2.98,0.04c-0.04-0.63-0.34-1.58-0.74-2.2c1.22,0.11,2.34,0.11,2.83,0.11c0.38,0,0.59-0.08,0.84-0.32
			c0.55-0.61,0.8-3.46,1.01-10.16h-4.07c-0.49,1.14-1.08,2.18-1.67,3c-0.3-0.29-0.95-0.72-1.46-1.06v8.87h-5.07v1.39h-2.05v-14.12
			h2.15c0.25-0.95,0.47-2.17,0.55-3.06l2.47,0.34c-0.32,0.95-0.67,1.9-0.99,2.72h2.94v3.08c1.1-1.6,2.01-3.89,2.57-6.12l2.15,0.49
			c-0.19,0.82-0.46,1.62-0.74,2.41H229.07z M217.69,128.93h-3.02V132h3.02V128.93z M217.69,137.68v-3.72h-3.02v3.72H217.69z
			 M224,136.66c-0.53-1.14-1.71-3-2.64-4.39l1.77-1.01c0.95,1.31,2.2,3.12,2.79,4.22L224,136.66z"/>
		<path d="M247.75,125.03v16.34h-2.43v-1.2h-8.43v1.23h-2.34v-16.38H247.75z M236.88,127.31v4.08h8.43v-4.08H236.88z M245.31,137.89
			v-4.26h-8.43v4.26H245.31z"/>
		<path d="M270.17,134.36h-7.37v4.58c0,1.27-0.29,1.9-1.18,2.26c-0.93,0.36-2.22,0.42-3.97,0.4c-0.13-0.67-0.59-1.69-0.97-2.34
			c1.33,0.08,2.81,0.08,3.21,0.06c0.42-0.02,0.55-0.11,0.55-0.44v-4.52h-7.52v-2.26h7.52v-2.64c1.2-0.57,2.56-1.42,3.67-2.24h-9.31
			v-2.24h11.83l0.53-0.11l1.71,1.31c-1.62,1.6-3.89,3.31-6.08,4.48v1.44h7.37V134.36z"/>
		<path d="M274.99,135.4c1.48-0.48,2.34-1.29,2.45-2.3c-0.06,0.02-0.13,0.02-0.21,0.02c-0.95,0-1.8-0.61-1.8-1.69
			c0-1.06,0.86-1.71,1.86-1.71c1.35,0,2.05,1.01,2.05,2.6c0,2.15-1.39,3.91-3.74,4.6L274.99,135.4z"/>
		<path d="M290.13,124.63c-0.51,1.35-1.16,2.72-1.88,4.05v12.92h-2.17v-9.58c-0.4,0.51-0.8,0.97-1.18,1.39
			c-0.21-0.55-0.84-1.8-1.24-2.36c1.73-1.71,3.38-4.39,4.33-7.1L290.13,124.63z M298.36,139.43c1.12,0,1.33-0.48,1.46-2.6
			c0.51,0.34,1.41,0.7,2,0.84c-0.29,2.83-0.95,3.78-3.29,3.78h-4.31c-2.64,0-3.4-0.68-3.4-3.33v-5.32l-1.44,0.57l-0.85-2l2.3-0.89
			V126h2.13v3.63l1.9-0.74v-4.92h2.03v4.12l2.55-0.99l0.19-0.13l1.69,0.51l-0.08,0.36c-0.09,2.72-0.34,6.29-0.76,8.64l-1.86-0.53
			c0.21-1.6,0.34-4.1,0.42-6.42l-2.15,0.87v6.73h-2.03v-5.95l-1.9,0.78v6.16c0,1.12,0.19,1.31,1.44,1.31H298.36z"/>
		<path d="M321.69,126.82c0,0,0,0.76-0.02,1.03c-0.25,8.49-0.46,11.51-1.23,12.52c-0.53,0.7-1.06,0.91-1.82,1.04
			c-0.72,0.1-1.86,0.08-2.98,0.04c-0.04-0.63-0.34-1.58-0.74-2.2c1.22,0.11,2.34,0.11,2.83,0.11c0.38,0,0.59-0.08,0.84-0.32
			c0.55-0.61,0.8-3.46,1.01-10.16h-4.07c-0.49,1.14-1.08,2.18-1.67,3c-0.3-0.29-0.95-0.72-1.46-1.06v8.87h-5.07v1.39h-2.05v-14.12
			h2.15c0.25-0.95,0.47-2.17,0.55-3.06l2.47,0.34c-0.32,0.95-0.67,1.9-0.99,2.72h2.94v3.08c1.1-1.6,2.01-3.89,2.57-6.12l2.15,0.49
			c-0.19,0.82-0.46,1.62-0.74,2.41H321.69z M310.31,128.93h-3.02V132h3.02V128.93z M310.31,137.68v-3.72h-3.02v3.72H310.31z
			 M316.62,136.66c-0.53-1.14-1.71-3-2.64-4.39l1.77-1.01c0.95,1.31,2.2,3.12,2.79,4.22L316.62,136.66z"/>
		<path d="M328.63,130.84c-0.27,2.45-0.74,5.74-1.39,7.88l-2.28-0.91c0.67-2.01,1.22-4.86,1.46-7.39L328.63,130.84z M332.2,129.31
			v8.81c0,0.89,0.15,1.04,1.06,1.04h2.72c0.95,0,1.12-0.61,1.25-3.57c0.53,0.4,1.5,0.8,2.13,0.95c-0.27,3.61-0.87,4.73-3.21,4.73
			H333c-2.47,0-3.15-0.76-3.15-3.15v-8.81H332.2z M332.03,124.2c1.71,1.08,4.12,2.75,5.26,3.93l-1.67,1.77
			c-1.03-1.16-3.36-2.96-5.13-4.16L332.03,124.2z M340.31,129.82c1.06,2.26,2.05,5.11,2.45,7.07l-2.3,0.95
			c-0.28-1.94-1.27-4.94-2.26-7.16L340.31,129.82z"/>
		<path d="M350.04,132.59c0.47-0.55,1.03-1.31,1.31-1.82l1.33,1.24c-0.61,0.55-1.18,1.12-1.65,1.58c0.57,0.61,1.12,1.2,1.33,1.42
			l-1.18,1.77c-0.32-0.53-0.89-1.37-1.48-2.13v6.97h-2.03v-6.78c-0.59,0.68-1.18,1.27-1.79,1.77c-0.15-0.63-0.66-1.82-0.95-2.24
			c1.63-1.18,3.29-3.17,4.31-5.22h-3.74v-2.03h3.02c-0.36-0.7-0.93-1.61-1.41-2.32l1.61-0.99c0.57,0.74,1.25,1.75,1.6,2.39
			l-1.29,0.91h1.33l0.36-0.09l1.12,0.91c-0.55,1.46-1.27,2.91-2.15,4.24v0.11L350.04,132.59z M362.88,139.22v1.99h-10.81v-1.99h4.22
			v-1.94h-3.5v-1.98h3.5v-1.48h-3.61v-9.06h9.48v9.06h-3.76v1.48h3.89v1.98h-3.89v1.94H362.88z M354.7,128.39h1.6v-1.73h-1.6V128.39
			z M356.29,131.93v-1.77h-1.6v1.77H356.29z M360.04,126.67h-1.63v1.73h1.63V126.67z M360.04,130.16h-1.63v1.77h1.63V130.16z"/>
		<path d="M368.51,136.52v1.63h-2.09v-13.24h6.33v11.61H368.51z M368.51,126.97v2.7h2.15v-2.7H368.51z M370.66,134.47v-2.79h-2.15
			v2.79H370.66z M382.74,139.03c0,1.2-0.25,1.79-0.99,2.17c-0.74,0.36-1.84,0.42-3.44,0.42c-0.09-0.63-0.46-1.61-0.78-2.18
			c1.03,0.06,2.17,0.04,2.49,0.02c0.36,0,0.47-0.11,0.47-0.44v-3.34h-4.08c-0.44,2.24-1.35,4.5-3.27,6.06
			c-0.34-0.44-1.24-1.2-1.73-1.46c2.87-2.36,3.12-5.91,3.12-8.76v-6.86h8.21V139.03z M380.5,133.64v-2.43h-3.74v0.3
			c0,0.66-0.02,1.39-0.08,2.13H380.5z M376.76,126.74v2.43h3.74v-2.43H376.76z"/>
		<path d="M402.16,126.65v14.93h-2.39v-1.2h-9.59v1.22h-2.3v-14.95h4.77c0.32-0.93,0.63-1.98,0.78-2.83l2.94,0.38
			c-0.36,0.86-0.72,1.69-1.1,2.45H402.16z M390.17,128.94v3.38h9.59v-3.38H390.17z M399.76,138.08v-3.51h-9.59v3.51H399.76z"/>
		<path d="M421.69,126.4c-0.95,1.94-2.38,3.53-4.12,4.81c1.96,0.84,4.24,1.41,6.72,1.71c-0.51,0.55-1.14,1.54-1.44,2.2
			c-2.81-0.48-5.32-1.29-7.41-2.55c-2.28,1.25-4.92,2.11-7.62,2.66c-0.19-0.65-0.68-1.62-1.1-2.13c2.36-0.38,4.64-1.03,6.63-1.98
			c-0.7-0.57-1.35-1.18-1.9-1.86c-0.82,0.78-1.73,1.5-2.74,2.2c-0.3-0.55-1.03-1.39-1.5-1.75c2.72-1.67,4.63-3.95,5.7-5.91
			l2.43,0.51c-0.27,0.42-0.53,0.86-0.84,1.29h5.24l0.38-0.09L421.69,126.4z M410.56,137.28c3.08,0.49,7.73,1.58,10.14,2.43
			l-1.04,2.11c-2.24-0.85-6.82-2.09-10.05-2.74L410.56,137.28z M413.03,134c2.11,0.44,5.42,1.31,7.09,1.88l-0.97,2.03
			c-1.6-0.59-4.84-1.58-7.05-2.13L413.03,134z M412.76,127.9c0.7,0.8,1.56,1.52,2.58,2.17c1.16-0.72,2.15-1.58,2.93-2.51h-5.21
			L412.76,127.9z"/>
		<path d="M437.46,133.18c1.33,3.02,3.76,5.24,7.47,6.21c-0.55,0.48-1.23,1.46-1.56,2.11c-3.57-1.14-5.87-3.34-7.47-6.46
			c-1.04,2.53-3.19,4.92-7.47,6.52c-0.3-0.57-0.99-1.52-1.48-1.96c4.39-1.56,6.25-4.01,7.03-6.42h-6.36v-2.32h6.84
			c0.04-0.51,0.06-0.99,0.06-1.46v-1.92h-6.21v-2.32h15.05v2.32h-6.46v1.96c0,0.46-0.02,0.93-0.04,1.42h7.24v2.32H437.46z"/>
		<path d="M464.67,126.82c0,0,0,0.76-0.02,1.03c-0.25,8.49-0.46,11.51-1.23,12.52c-0.53,0.7-1.06,0.91-1.82,1.04
			c-0.72,0.1-1.86,0.08-2.98,0.04c-0.04-0.63-0.34-1.58-0.74-2.2c1.22,0.11,2.34,0.11,2.83,0.11c0.38,0,0.59-0.08,0.84-0.32
			c0.55-0.61,0.8-3.46,1.01-10.16h-4.07c-0.49,1.14-1.08,2.18-1.67,3c-0.3-0.29-0.95-0.72-1.46-1.06v8.87h-5.07v1.39h-2.05v-14.12
			h2.15c0.25-0.95,0.47-2.17,0.55-3.06l2.47,0.34c-0.32,0.95-0.67,1.9-0.99,2.72h2.94v3.08c1.1-1.6,2.01-3.89,2.57-6.12l2.15,0.49
			c-0.19,0.82-0.46,1.62-0.74,2.41H464.67z M453.29,128.93h-3.02V132h3.02V128.93z M453.29,137.68v-3.72h-3.02v3.72H453.29z
			 M459.6,136.66c-0.53-1.14-1.71-3-2.64-4.39l1.77-1.01c0.95,1.31,2.2,3.12,2.79,4.22L459.6,136.66z"/>
		<path d="M477.91,127.22v1.77h6.65v10.24c0,1.08-0.23,1.61-0.99,1.96c-0.7,0.32-1.79,0.36-3.25,0.36
			c-0.11-0.57-0.44-1.44-0.74-1.97c0.38,0.02,0.78,0.02,1.14,0.02c-0.63-0.72-1.82-1.84-2.74-2.62l1.35-1.18
			c0.91,0.74,2.18,1.82,2.83,2.49l-1.35,1.33c0.49,0,0.93,0,1.1-0.02c0.32-0.02,0.42-0.09,0.42-0.38v-8.11h-4.43v10.28h-2.22v-10.28
			h-4.58v10.5h-2.17v-12.61h6.74v-1.77h-7.56v-2.22h17.15v2.22H477.91z M471.13,138.39c0.87-0.59,2.24-1.62,3.55-2.64l0.78,1.54
			c-1.04,1.04-2.2,2.11-3.25,3.04L471.13,138.39z M472.55,131.62c0.95,0.72,2.34,1.8,2.98,2.45l-1.35,1.44
			c-0.63-0.68-1.94-1.82-2.91-2.62L472.55,131.62z M478.01,134.17c0.91-0.57,2.3-1.65,3.1-2.45l1.23,1.54
			c-1.03,0.82-2.38,1.75-3.32,2.28L478.01,134.17z"/>
		<path d="M493.7,124.54c-0.4,1.23-0.87,2.49-1.42,3.69v13.39h-2.17v-9.44c-0.36,0.51-0.72,1.01-1.06,1.42
			c-0.17-0.55-0.74-1.86-1.1-2.43c1.5-1.77,2.89-4.5,3.69-7.24L493.7,124.54z M505.42,130.41c0,0-0.02,0.67-0.04,0.97
			c-0.27,6-0.55,8.38-1.2,9.18c-0.47,0.59-0.93,0.78-1.65,0.89c-0.61,0.09-1.62,0.08-2.66,0.04c-0.04-0.65-0.32-1.6-0.7-2.18
			c0.99,0.08,1.9,0.09,2.34,0.09c0.34,0,0.55-0.06,0.76-0.29c0.4-0.46,0.67-2.26,0.86-6.65h-3.63c0.38-1.39,0.84-3.34,1.18-5.22
			h-2.66c-0.13,5.3-0.57,10.9-3.74,14.48c-0.4-0.57-1.12-1.27-1.73-1.62c2.85-3.1,3.06-8.13,3.12-12.86h-1.75v-2.05h9.29
			c-0.3,1.65-0.72,3.59-1.1,5.22H505.42z"/>
		<path d="M524.35,136.62c-0.48-1.37-1.46-3.4-2.55-5.22c-0.65,2.01-1.96,4.05-4.37,5.72c-0.4-0.46-1.16-1.06-1.71-1.44
			c2.62-1.8,3.76-3.97,4.26-5.93h-2.19v-1.35c-1.39,4.33-3.95,7.05-7.2,8.47c-0.32-0.49-1.08-1.37-1.58-1.73
			c2.26-0.89,4.1-2.32,5.4-4.39c-0.67-0.59-1.62-1.29-2.51-1.86c-0.72,0.95-1.54,1.8-2.41,2.49c-0.15-0.55-0.57-1.52-0.87-2.03
			c1.71-1.35,3.15-3.71,3.8-5.68l2.11,0.64c-0.15,0.38-0.34,0.76-0.53,1.16h2.62l0.4-0.06l1.41,0.53c-0.11,0.57-0.25,1.14-0.4,1.67
			h2.28c0.04-0.34,0.04-0.67,0.04-0.97v-2.49h2.15v2.53c0,0.3,0,0.61-0.02,0.93h3.78v2.13h-3.08c1.25,1.96,2.62,4.35,3.21,5.95
			L524.35,136.62z M508.62,140.82c0.76-0.88,1.71-2.39,2.34-3.71l2.13,0.55c-0.61,1.37-1.54,2.98-2.32,4.05L508.62,140.82z
			 M513.23,131.98l-3.59,1.33l-0.46-1.73c0.99-0.23,2.38-0.61,3.82-0.99L513.23,131.98z M512.82,127.6
			c0.82,0.47,1.73,1.04,2.41,1.58c0.27-0.59,0.48-1.23,0.65-1.92h-2.85L512.82,127.6z M516.35,137.63c0.25,1.14,0.47,2.62,0.49,3.55
			l-2.22,0.32c0-0.93-0.15-2.47-0.36-3.65L516.35,137.63z M520.21,137.46c0.47,1.1,0.95,2.6,1.12,3.53l-2.24,0.44
			c-0.11-0.93-0.55-2.45-0.99-3.61L520.21,137.46z M523.97,136.94c0.87,1.16,1.92,2.74,2.39,3.78l-2.13,0.97
			c-0.42-1.03-1.41-2.7-2.26-3.91L523.97,136.94z M524.25,127.58c-0.3-0.7-1.03-1.79-1.69-2.56l1.63-0.91
			c0.68,0.76,1.44,1.79,1.79,2.47L524.25,127.58z"/>
		<path d="M539.59,124.44c-0.09,0.11-0.19,0.25-0.29,0.36c1.75,1.52,4.86,2.83,7.88,3.42c-0.47,0.4-1.12,1.2-1.42,1.73
			c-0.38-0.09-0.78-0.23-1.18-0.34v4.9h-13.2v-4.79c-0.4,0.13-0.8,0.27-1.18,0.36c-0.23-0.42-0.84-1.33-1.22-1.75
			c3.5-0.82,6.88-2.39,8.61-4.6L539.59,124.44z M543.9,129.36c-0.89-0.32-1.75-0.72-2.58-1.16v0.49h-6.67v-0.38
			c-0.74,0.38-1.5,0.74-2.3,1.04H543.9z M532.44,135.14h11.17v6.42h-2.32v-0.46h-6.63v0.51h-2.22V135.14z M534.59,133.14
			c-0.09-0.59-0.34-1.37-0.65-1.98l1.46-0.42h-2.15v2.39H534.59z M534.67,136.62v0.76h6.63v-0.76H534.67z M541.3,139.62v-0.76h-6.63
			v0.76H541.3z M536.98,130.75h-1.48c0.34,0.64,0.65,1.46,0.76,2.01l-1.22,0.38h1.94V130.75z M539.72,127.23
			c-0.57-0.4-1.12-0.82-1.6-1.23c-0.49,0.42-1.04,0.84-1.61,1.23H539.72z M538.81,130.75v2.39h1.77l-1.14-0.32
			c0.27-0.57,0.57-1.44,0.74-2.07H538.81z M542.57,130.75h-1.98l1.48,0.36c-0.38,0.76-0.74,1.5-1.04,2.03h1.54V130.75z"/>
		<path d="M559.23,127.56v2.98l0.38-0.44c2.05,1.03,5.03,2.66,6.48,3.84l-1.67,2.07c-1.1-0.97-3.27-2.36-5.19-3.46v9.02h-2.43
			v-14.02h-6.86v-2.28h16.93v2.28H559.23z"/>
		<path d="M571.87,135.4c1.48-0.48,2.34-1.29,2.45-2.3c-0.06,0.02-0.13,0.02-0.21,0.02c-0.95,0-1.8-0.61-1.8-1.69
			c0-1.06,0.86-1.71,1.86-1.71c1.35,0,2.05,1.01,2.05,2.6c0,2.15-1.39,3.91-3.74,4.6L571.87,135.4z"/>
		<path d="M588.26,128.81h-7.28v-1.79h3.12c-0.29-0.72-0.74-1.67-1.16-2.39l1.65-0.82c0.49,0.78,1.04,1.82,1.35,2.53l-1.22,0.68
			h3.53V128.81z M581.77,131.38v-1.71h5.7v1.71H581.77z M587.5,133.92h-5.74v-1.71h5.74V133.92z M598.35,133.6
			c-0.72,1.33-1.67,2.57-2.77,3.69c1.12,0.95,2.39,2.13,3.08,2.94l-1.79,1.39c-0.59-0.8-1.75-1.96-2.83-2.98
			c-1.63,1.27-3.53,2.32-5.64,3.04c-0.19-0.34-0.57-0.89-0.89-1.31v0.23h-3.84v0.8h-1.88v-6.55h5.72v5c4.07-1.37,7.28-3.99,8.7-6.93
			L598.35,133.6z M585.68,136.64h-2.01v2.13h2.01V136.64z M597.1,129.89c-1.63,3.02-4.41,5.83-7.77,7.47
			c-0.27-0.46-0.84-1.2-1.16-1.6c1.6-0.7,3.08-1.75,4.29-2.93c-2.45,0.19-3,0.3-3.36,0.46c-0.08-0.51-0.3-1.5-0.44-1.99
			c0.42-0.08,1.01-0.23,1.33-0.61c0.29-0.32,0.95-1.54,1.46-2.51h-2.87v-2.05h4.16c-0.17-0.59-0.42-1.23-0.65-1.77l1.96-0.61
			c0.38,0.74,0.78,1.67,0.93,2.38h3.48v2.05h-4.81c-0.49,0.91-1.1,2-1.6,2.93l2.01-0.11c0.42-0.57,0.76-1.16,1.04-1.73L597.1,129.89
			z"/>
		<path d="M606.66,132.76c-0.34,1.73-0.86,3.51-1.48,4.94c0.29,0.19,0.65,0.46,1.16,0.76c1.29,0.78,3.08,0.89,5.3,0.89
			c2.19,0,5.59-0.19,7.69-0.49c-0.27,0.61-0.65,1.71-0.67,2.32c-1.56,0.09-4.92,0.23-7.14,0.23c-2.51,0-4.12-0.21-5.49-1.01
			c-0.8-0.44-1.46-1.06-1.86-1.06c-0.44,0-1.1,1.29-1.58,2.38l-1.5-2.15c0.65-0.8,1.35-1.43,2-1.82c0.42-0.93,0.8-2.13,1.08-3.29
			h-2.39c0.44-1.12,0.95-2.64,1.39-4.12h-1.71v-2.01h4.43c-0.4,1.33-0.84,2.85-1.29,4.18h0.76l0.34-0.08L606.66,132.76z
			 M603.45,127.79c-0.19-0.85-0.7-2.24-1.03-3.27l1.99-0.61c0.36,1.03,0.84,2.3,1.1,3.15L603.45,127.79z M610.99,128.93
			c0.06-0.3,0.13-0.61,0.19-0.93h-4.56v-1.84h2.53c-0.25-0.49-0.59-1.04-0.89-1.5l1.79-0.7c0.44,0.59,0.97,1.39,1.22,1.9l-0.66,0.3
			h2.85c0.44-0.68,0.93-1.6,1.2-2.26l2.18,0.61c-0.4,0.59-0.78,1.14-1.14,1.65h3.04v1.84h-5.13c-0.15,0.34-0.3,0.63-0.46,0.93h4.12
			v9.18h-9.2v-9.18H610.99z M615.03,130.52h-4.84v1.04h4.84V130.52z M615.03,132.99h-4.84v1.03h4.84V132.99z M615.03,135.46h-4.84
			v1.04h4.84V135.46z"/>
		<path d="M630.71,132.93c0,0-0.02,0.55-0.02,0.82c-0.19,4.58-0.38,6.4-0.91,7.05c-0.38,0.46-0.82,0.63-1.42,0.7
			c-0.51,0.08-1.39,0.09-2.3,0.06c-0.02-0.59-0.25-1.41-0.57-1.96c0.76,0.1,1.52,0.1,1.86,0.1c0.29,0,0.46-0.04,0.63-0.25
			c0.29-0.32,0.46-1.54,0.59-4.54h-2.11c-0.44,2.6-1.33,5.03-3.34,6.74c-0.32-0.57-0.97-1.27-1.5-1.65
			c2.49-2.05,2.87-5.47,3.02-8.62h-1.9v-6.61h7.81v6.61h-3.7c-0.04,0.51-0.08,1.04-0.11,1.56H630.71z M624.78,129.36h3.57v-2.6
			h-3.57V129.36z M634.17,136.88h-2.2v-10.7h2.2V136.88z M638.67,124.27v14.63c0,1.33-0.27,1.96-1.04,2.32
			c-0.78,0.36-2.05,0.44-3.78,0.44c-0.09-0.67-0.44-1.71-0.78-2.34c1.24,0.04,2.45,0.04,2.85,0.04c0.36,0,0.51-0.11,0.51-0.46
			v-14.63H638.67z"/>
		<path d="M659.42,126.82c0,0,0,0.76-0.02,1.03c-0.25,8.49-0.46,11.51-1.23,12.52c-0.53,0.7-1.06,0.91-1.82,1.04
			c-0.72,0.1-1.86,0.08-2.98,0.04c-0.04-0.63-0.34-1.58-0.74-2.2c1.22,0.11,2.34,0.11,2.83,0.11c0.38,0,0.59-0.08,0.84-0.32
			c0.55-0.61,0.8-3.46,1.01-10.16h-4.07c-0.49,1.14-1.08,2.18-1.67,3c-0.3-0.29-0.95-0.72-1.46-1.06v8.87h-5.07v1.39h-2.05v-14.12
			h2.15c0.25-0.95,0.47-2.17,0.55-3.06l2.47,0.34c-0.32,0.95-0.67,1.9-0.99,2.72h2.94v3.08c1.1-1.6,2.01-3.89,2.57-6.12l2.15,0.49
			c-0.19,0.82-0.46,1.62-0.74,2.41H659.42z M648.04,128.93h-3.02V132h3.02V128.93z M648.04,137.68v-3.72h-3.02v3.72H648.04z
			 M654.35,136.66c-0.53-1.14-1.71-3-2.64-4.39l1.77-1.01c0.95,1.31,2.2,3.12,2.79,4.22L654.35,136.66z"/>
		<path d="M672.57,123.91c-0.02,0.8-0.06,1.82-0.13,2.96c0.27,2.56,1.42,9.73,8.05,12.65c-0.7,0.55-1.35,1.31-1.65,1.96
			c-4.22-2.01-6.33-5.72-7.43-8.99c-1.04,3.34-3.04,6.78-6.99,9.1c-0.4-0.61-1.12-1.33-1.88-1.84c7.71-4.12,7.35-12.63,7.43-15.84
			H672.57z"/>
		<path d="M694.97,136.54c0.04,0.46,0.13,1.14,0.23,1.5c-2.58,0.7-3.65,1.03-4.18,1.23c0.7,0.06,1.5,0.08,2.32,0.08
			c2.19,0,5.59-0.19,7.68-0.49c-0.25,0.61-0.63,1.71-0.65,2.32c-1.58,0.09-4.92,0.23-7.14,0.23c-2.51,0-4.12-0.21-5.49-1.01
			c-0.78-0.44-1.46-1.06-1.86-1.06c-0.44,0-1.1,1.29-1.58,2.38l-1.5-2.15c0.67-0.82,1.39-1.46,2.05-1.84
			c0.38-0.95,0.72-2.13,0.97-3.27h-2.34c0.46-1.14,0.97-2.64,1.42-4.12h-1.75v-2.01h4.5c-0.4,1.35-0.89,2.87-1.35,4.18h0.68
			l0.34-0.08l0.95,0.34c-0.19,1.01-0.44,2.07-0.74,3.04c1.58-0.27,3.21-0.74,4.54-1.35h-2.83v-3.49h9.76v3.49h-0.4l1.06,0.68
			c-0.53,0.38-1.12,0.78-1.69,1.1c0.8,0.48,1.54,0.93,2.03,1.27l-1.1,1.39c-1.04-0.84-3.21-2.18-4.75-3.13l1.03-1.18l1.37,0.82
			c0.46-0.3,0.93-0.65,1.31-0.95h-3.1c-0.63,0.57-1.42,1.06-2.28,1.52v1.2L694.97,136.54z M685.17,127.77
			c-0.21-0.85-0.72-2.22-1.04-3.25l1.99-0.61c0.36,1.03,0.86,2.3,1.12,3.13L685.17,127.77z M690.62,136.79
			c-0.65,0.23-1.29,0.42-1.96,0.57c-0.25-0.44-0.74-1.1-1.12-1.48c-0.19,0.65-0.42,1.25-0.67,1.82c0.32,0.21,0.68,0.48,1.16,0.76
			c0.68,0.4,1.52,0.63,2.45,0.76c-0.11-0.42-0.36-0.91-0.55-1.18c0.34-0.13,0.68-0.38,0.68-1.1V136.79z M700.48,130.37h-12.73v-1.56
			h12.73V130.37z M699.6,128.22h-10.9v-3.82h10.9V128.22z M691.76,125.66h-1.16v1.31h1.16V125.66z M691.34,133.2h5.43v-0.99h-5.43
			V133.2z M694.68,125.66h-1.22v1.31h1.22V125.66z M697.59,125.66h-1.22v1.31h1.22V125.66z"/>
		<path d="M713.64,139.18c0.49,0.04,1.01,0.06,1.52,0.06c1.06,0,4.71,0,6.06-0.06c-0.3,0.51-0.65,1.5-0.76,2.17h-5.41
			c-3.48,0-5.83-0.49-7.43-2.7c-0.68,1.25-1.56,2.26-2.66,3.02c-0.32-0.42-1.2-1.25-1.71-1.58c1.94-1.2,3.1-3.21,3.53-5.76
			l2.26,0.34c-0.13,0.61-0.29,1.18-0.44,1.73c0.59,1.29,1.52,2,2.74,2.38v-4.83h-7.41v-2h16.76v2h-7.05v1.42h5.85v1.96h-5.85V139.18
			z M718.89,131.13h-13.2v-6.59h13.2V131.13z M716.59,126.11h-8.7v0.97h8.7V126.11z M716.59,128.56h-8.7v0.99h8.7V128.56z"/>
		<path d="M734.34,124.44c-0.09,0.11-0.19,0.25-0.29,0.36c1.75,1.52,4.86,2.83,7.88,3.42c-0.47,0.4-1.12,1.2-1.42,1.73
			c-0.38-0.09-0.78-0.23-1.18-0.34v4.9h-13.2v-4.79c-0.4,0.13-0.8,0.27-1.18,0.36c-0.23-0.42-0.84-1.33-1.22-1.75
			c3.5-0.82,6.88-2.39,8.61-4.6L734.34,124.44z M738.65,129.36c-0.89-0.32-1.75-0.72-2.58-1.16v0.49h-6.67v-0.38
			c-0.74,0.38-1.5,0.74-2.3,1.04H738.65z M727.19,135.14h11.17v6.42h-2.32v-0.46h-6.63v0.51h-2.22V135.14z M729.34,133.14
			c-0.09-0.59-0.34-1.37-0.65-1.98l1.46-0.42h-2.15v2.39H729.34z M729.42,136.62v0.76h6.63v-0.76H729.42z M736.05,139.62v-0.76
			h-6.63v0.76H736.05z M731.73,130.75h-1.48c0.34,0.64,0.65,1.46,0.76,2.01l-1.22,0.38h1.94V130.75z M734.47,127.23
			c-0.57-0.4-1.12-0.82-1.6-1.23c-0.49,0.42-1.04,0.84-1.61,1.23H734.47z M733.56,130.75v2.39h1.77l-1.14-0.32
			c0.27-0.57,0.57-1.44,0.74-2.07H733.56z M737.32,130.75h-1.98l1.48,0.36c-0.38,0.76-0.74,1.5-1.04,2.03h1.54V130.75z"/>
		<path d="M761.6,126.51v2.17h-10.16c-0.63,1.31-1.35,2.58-2.22,3.74v9.19h-2.3V135c-0.53,0.49-1.06,0.91-1.67,1.33
			c-0.25-0.61-0.76-1.63-1.12-2.18c2-1.29,3.59-3.29,4.73-5.47h-4.12v-2.17h5.13c0.32-0.89,0.61-1.77,0.84-2.64l2.38,0.57
			c-0.21,0.7-0.46,1.39-0.72,2.07H761.6z M757.04,139.07h4.5v2.09h-11.38v-2.09h4.6v-4.33h-3.86v-2.09h3.86v-3.15h2.28v3.15h3.76
			v2.09h-3.76V139.07z"/>
		<path d="M768.88,129.71c1.71,0,3.08,1.39,3.08,3.08s-1.37,3.08-3.08,3.08c-1.69,0-3.08-1.39-3.08-3.08
			S767.19,129.71,768.88,129.71z M768.88,134.49c0.95,0,1.71-0.76,1.71-1.71s-0.76-1.71-1.71-1.71c-0.93,0-1.71,0.76-1.71,1.71
			S767.95,134.49,768.88,134.49z"/>
		<path d="M76.73,169.64c-1.5,1.84-3.72,3.8-5.74,5.03c-0.48-0.48-1.33-1.2-1.88-1.58c1.98-1.08,4.16-2.91,5.22-4.41L76.73,169.64z
			 M84.44,158.28v9.08H71.03v-9.08H84.44z M73.36,165.21h8.62v-4.77h-8.62V165.21z M81.08,168.63c1.73,1.35,4.05,3.29,5.17,4.62
			l-2.13,1.33c-0.99-1.31-3.23-3.36-5-4.79L81.08,168.63z"/>
		<path d="M100.76,163.03c2.03,1.46,4.96,3.65,6.33,5.15l-1.92,1.73c-1.18-1.41-3.76-3.57-5.81-5.15v9.84h-2.47v-9.27
			c-1.73,1.84-3.76,3.5-6.04,4.67c-0.36-0.61-1.06-1.54-1.56-2.05c3.46-1.61,6.42-4.56,8.19-7.46h-7.58v-2.32h16.47v2.32h-5.91
			c-0.32,0.59-0.7,1.18-1.1,1.75v1.98L100.76,163.03z"/>
		<path d="M115.03,165.76c-0.34,1.73-0.84,3.51-1.48,4.94c0.3,0.19,0.67,0.46,1.16,0.76c1.31,0.78,3.1,0.89,5.32,0.89
			c2.17,0,5.58-0.19,7.69-0.49c-0.27,0.61-0.65,1.71-0.66,2.32c-1.56,0.09-4.92,0.23-7.14,0.23c-2.53,0-4.12-0.21-5.49-1.01
			c-0.8-0.44-1.48-1.06-1.86-1.06c-0.44,0-1.12,1.29-1.6,2.38l-1.5-2.15c0.67-0.8,1.35-1.43,2-1.82c0.44-0.93,0.82-2.13,1.1-3.29
			h-2.39c0.44-1.12,0.93-2.64,1.37-4.12h-1.71v-2.01h4.45c-0.4,1.33-0.86,2.85-1.31,4.18h0.78l0.34-0.08L115.03,165.76z
			 M111.84,160.77c-0.21-0.85-0.72-2.22-1.04-3.27l1.99-0.61c0.36,1.03,0.86,2.3,1.12,3.15L111.84,160.77z M117.42,171.52h-1.96
			v-8.26h1.41v-5.81h8.19v5.81h1.39v6.34c0,0.89-0.15,1.37-0.74,1.67c-0.55,0.29-1.33,0.3-2.36,0.3c-0.06-0.49-0.27-1.14-0.49-1.63
			h-2.85v0.59h-1.61v-4.79h4.96v4.08c0.36,0,0.67,0,0.78,0c0.21,0,0.27-0.06,0.27-0.25v-4.62h-6.97V171.52z M118.83,163.26h1.06
			v-2.98h3.13v-1.16h-4.2V163.26z M121.72,167.19h-1.71v1.33h1.71V167.19z M123.03,161.68h-1.5v1.58h1.5V161.68z"/>
		<path d="M140.85,157.75c-0.13,0.19-0.27,0.36-0.4,0.55c1.86,1.92,4.9,3.89,7.48,5.02c-0.59,0.47-1.37,1.44-1.77,2.07
			c-1.18-0.61-2.45-1.44-3.67-2.38v1.86h-6.61v-1.9c-1.31,1.01-2.74,1.9-4.14,2.62c-0.38-0.65-1.08-1.52-1.75-2.09
			c3.32-1.44,6.72-3.86,8.59-6.82L140.85,157.75z M144.46,165.8l1.79,0.86c-1.67,2.39-4.1,5.53-6.16,8.07l-2.36-1.1
			c1.42-1.67,3.08-3.7,4.39-5.4h-9.67v-2.32h11.61L144.46,165.8z M142.12,162.72c-1.06-0.85-2.11-1.79-3.02-2.75
			c-0.87,1.01-1.86,1.92-2.91,2.75H142.12z"/>
		<path d="M161.01,166.18c1.33,3.02,3.76,5.24,7.47,6.21c-0.55,0.48-1.23,1.46-1.56,2.11c-3.57-1.14-5.87-3.34-7.47-6.46
			c-1.04,2.53-3.19,4.92-7.47,6.52c-0.3-0.57-0.99-1.52-1.48-1.96c4.39-1.56,6.25-4.01,7.03-6.42h-6.36v-2.32h6.84
			c0.04-0.51,0.06-0.99,0.06-1.46v-1.92h-6.21v-2.32h15.05v2.32h-6.46v1.96c0,0.46-0.02,0.93-0.04,1.42h7.24v2.32H161.01z"/>
		<path d="M181.17,172.18c0.49,0.04,1.01,0.06,1.52,0.06c1.06,0,4.71,0,6.06-0.06c-0.3,0.51-0.65,1.5-0.76,2.17h-5.41
			c-3.48,0-5.83-0.49-7.43-2.7c-0.68,1.25-1.56,2.26-2.66,3.02c-0.32-0.42-1.2-1.25-1.71-1.58c1.94-1.2,3.1-3.21,3.53-5.76
			l2.26,0.34c-0.13,0.61-0.29,1.18-0.44,1.73c0.59,1.29,1.52,2,2.74,2.38v-4.83h-7.41v-2h16.76v2h-7.05v1.42h5.85v1.96h-5.85V172.18
			z M186.41,164.13h-13.2v-6.59h13.2V164.13z M184.11,159.11h-8.7v0.97h8.7V159.11z M184.11,161.56h-8.7v0.99h8.7V161.56z"/>
		<path d="M197.51,157.63c-0.51,1.35-1.16,2.72-1.88,4.05v12.92h-2.17v-9.58c-0.4,0.51-0.8,0.97-1.18,1.39
			c-0.21-0.55-0.84-1.8-1.24-2.36c1.73-1.71,3.38-4.39,4.33-7.1L197.51,157.63z M205.74,172.43c1.12,0,1.33-0.48,1.46-2.6
			c0.51,0.34,1.41,0.7,2,0.84c-0.29,2.83-0.95,3.78-3.29,3.78h-4.31c-2.64,0-3.4-0.68-3.4-3.33v-5.32l-1.44,0.57l-0.85-2l2.3-0.89
			V159h2.13v3.63l1.9-0.74v-4.92h2.03v4.12l2.55-0.99l0.19-0.13l1.69,0.51l-0.08,0.36c-0.09,2.72-0.34,6.29-0.76,8.64l-1.86-0.53
			c0.21-1.6,0.34-4.1,0.42-6.42l-2.15,0.87v6.73h-2.03v-5.95l-1.9,0.78v6.16c0,1.12,0.19,1.31,1.44,1.31H205.74z"/>
		<path d="M217.37,165.99c-0.3,1.69-0.84,3.36-1.6,4.77c0.28,0.17,0.63,0.38,1.06,0.63c1.31,0.74,3.12,0.85,5.28,0.85
			c2.13,0,5.57-0.19,7.71-0.51c-0.27,0.63-0.65,1.75-0.68,2.39c-1.54,0.12-4.9,0.23-7.12,0.23c-2.49,0-4.1-0.21-5.49-0.97
			c-0.8-0.42-1.44-0.99-1.84-0.99c-0.44,0-1.14,1.24-1.65,2.26l-1.48-2.19c0.57-0.68,1.2-1.23,1.8-1.6c0.68-0.95,1.24-2.2,1.58-3.42
			h-2.66c0.49-1.12,1.06-2.64,1.56-4.12h-1.9v-2.01h4.77c-0.46,1.35-1.01,2.87-1.5,4.18h0.49l0.34-0.06L217.37,165.99z
			 M214.12,160.8c-0.32-0.87-0.97-2.26-1.41-3.29l1.96-0.72c0.48,1.04,1.1,2.32,1.46,3.13L214.12,160.8z M229.26,160.75h-12.08V159
			h5.03c-0.23-0.53-0.53-1.14-0.82-1.62l2.18-0.68c0.4,0.63,0.89,1.5,1.12,2.05l-0.76,0.25h5.32V160.75z M218.33,166.41h9.5v4.81
			h-9.5V166.41z M227.66,163.08h-9.12v-1.6h9.12V163.08z M218.54,163.94h9.12v1.6h-9.12V163.94z M220.44,169.6h5.17V168h-5.17V169.6
			z"/>
		<path d="M237.81,157.58c-0.42,1.2-0.91,2.41-1.48,3.61v13.47h-2.15v-9.73c-0.42,0.59-0.84,1.14-1.27,1.63
			c-0.17-0.55-0.72-1.88-1.06-2.45c1.58-1.73,3.02-4.45,3.88-7.18L237.81,157.58z M249.42,157.86v16.58h-2.15v-0.93h-7.14v1.1h-2.05
			v-16.75H249.42z M247.27,171.56v-11.74h-7.14v11.74H247.27z M244.54,163.79v1.63h1.82v5.09h-5.26v-5.09h1.69v-1.63h-2.18v-1.63
			h2.18v-1.94h1.75v1.94h2.3v1.63H244.54z M244.67,166.98h-1.94v2h1.94V166.98z"/>
		<path d="M267.96,171.75c0,1.37-0.32,2.01-1.2,2.39c-0.91,0.4-2.24,0.44-4.2,0.44c-0.13-0.67-0.59-1.75-0.95-2.38
			c1.33,0.08,2.93,0.06,3.34,0.06c0.46,0,0.61-0.15,0.61-0.55v-2.75h-8.13c-0.49,2.13-1.44,4.2-3.21,5.68
			c-0.34-0.47-1.25-1.31-1.75-1.63c2.87-2.45,3.13-6.08,3.13-8.97v-6.25h12.35V171.75z M265.57,166.77v-2.32h-7.62
			c-0.02,0.72-0.06,1.52-0.13,2.32H265.57z M257.95,159.99v2.32h7.62v-2.32H257.95z"/>
		<path d="M281.22,169.28c-2.51,1.12-5.32,2.32-7.47,3.21l-0.76-2.41c0.72-0.25,1.58-0.55,2.53-0.93l-0.38-11.09l2.36-0.1
			l0.34,10.28c0.95-0.4,1.92-0.8,2.87-1.18L281.22,169.28z M289.09,174.62c-0.7-1.23-2.15-2.98-3.55-4.58
			c-1.39,1.98-3.27,3.5-5.78,4.62c-0.32-0.49-1.25-1.52-1.8-2c6.02-2.28,7.98-6.88,8.68-14.68l2.49,0.23
			c-0.4,3.89-1.08,7.07-2.32,9.65c1.58,1.63,3.34,3.55,4.22,4.88L289.09,174.62z M281.96,164.87c-0.47-1.31-1.69-3.31-2.83-4.71
			l2.05-1.03c1.24,1.39,2.43,3.25,3,4.56L281.96,164.87z"/>
		<path d="M309.27,168.08c-0.53-0.59-1.5-1.42-2.45-2.2c-0.38,0.63-0.8,1.18-1.27,1.63c-0.32-0.27-0.95-0.68-1.48-0.97
			c1.69,2.24,4.41,4.25,7.26,5.3c-0.55,0.47-1.29,1.44-1.67,2.07c-2.3-1.06-4.45-2.77-6.16-4.81v5.53h-2.37v-5.41
			c-1.71,1.99-3.84,3.65-6.1,4.69c-0.36-0.55-1.1-1.46-1.6-1.94c3.08-1.2,6.04-3.55,7.69-6.12v-4.39h-6.92v-2.22h6.92v-2.34h2.37
			v2.34h7.16v2.22h-7.16v4.25c0.1,0.15,0.19,0.29,0.29,0.44c1.22-1.08,2.01-2.77,2.39-4.58l2.2,0.4c-0.17,0.7-0.38,1.39-0.63,2.03
			c1.08,0.84,2.39,1.84,3.1,2.49L309.27,168.08z M299.48,162c-0.19,0.7-0.42,1.39-0.68,2.05c0.68,0.59,1.41,1.22,1.84,1.67
			l-1.52,1.58c-0.29-0.36-0.76-0.84-1.27-1.33c-0.63,1.03-1.35,1.92-2.18,2.6c-0.36-0.4-1.25-1.14-1.75-1.48
			c1.67-1.2,2.83-3.19,3.36-5.51L299.48,162z"/>
		<path d="M331.52,159.76h-3.29c0.49,0.4,1.01,0.86,1.31,1.2l-1.37,1.2h1.56v4.81h-6.02v1.12h6.95c0,0-0.02,0.55-0.06,0.82
			c-0.19,2.53-0.42,3.76-0.91,4.25c-0.4,0.46-0.85,0.61-1.44,0.67c-0.53,0.06-1.42,0.08-2.41,0.04c-0.04-0.66-0.27-1.5-0.63-2.05
			c0.8,0.08,1.6,0.09,1.94,0.08c0.29,0,0.48-0.02,0.65-0.17c0.19-0.19,0.34-0.7,0.46-1.75h-4.54v4.69h-2.22v-3.71
			c-1.6,1.56-3.7,2.85-5.77,3.63c-0.32-0.55-0.95-1.37-1.42-1.79c1.98-0.59,4.03-1.63,5.51-2.83h-4.08c0.28-1.29,0.57-3.27,0.7-4.86
			h5.07v-1.08h-5.77v-1.86h3.88c-0.42-0.53-1.16-1.23-1.75-1.75l0.72-0.63h-1.12c-0.61,0.95-1.29,1.8-1.94,2.45
			c-0.32-0.38-1.08-1.18-1.52-1.52c1.12-0.99,2.17-2.49,2.75-3.99l2,0.57c-0.1,0.25-0.21,0.51-0.34,0.76h4.18v1.73h-2.72
			c0.51,0.44,1.01,0.91,1.29,1.25l-1.22,1.12h8.02c-0.42-0.51-1.23-1.2-1.84-1.69l0.82-0.7h-1.56c-0.46,0.72-0.97,1.35-1.48,1.84
			c-0.38-0.38-1.2-1.03-1.69-1.31c1.04-0.89,1.9-2.22,2.38-3.57l2.05,0.51c-0.1,0.27-0.21,0.55-0.32,0.82h5.22V159.76z
			 M321.48,166.96h-3.1c-0.06,0.38-0.09,0.76-0.15,1.12h3.25V166.96z M327.49,164.02h-3.78v1.08h3.78V164.02z"/>
		<path d="M351.98,164.36v2.45H334.5v-2.45H351.98z"/>
		<path d="M361.02,169.49H355v-2.26h6.02V169.49z M360.61,161.81h-5.22v-2.18h5.22V161.81z M366.91,164.85
			c0.8,3.63,2.45,6.46,5.7,7.67c-0.51,0.46-1.2,1.41-1.5,2.01c-2.43-1.08-3.97-2.92-5-5.39c-0.8,2.03-2.41,4.08-5.55,5.58
			c-0.34-0.55-1.16-1.42-1.71-1.86c5.09-2.34,5.62-6.04,5.62-8.49v-1.75h2.43v1.8V164.85z M363.59,162.13
			c-0.59,1.54-1.31,2.89-2.07,3.95c-0.49-0.38-1.65-1.03-2.26-1.31c1.58-1.77,2.7-4.81,3.25-7.87l2.51,0.42
			c-0.19,0.87-0.4,1.73-0.65,2.56h5.72l0.44-0.13l1.65,0.97c-0.49,2.01-1.29,4.05-1.98,5.51c-0.46-0.27-1.39-0.72-1.94-0.93
			c0.36-0.8,0.8-2.01,1.12-3.17H363.59z"/>
		<path d="M381.75,167.05c-0.7,0.19-1.41,0.4-2.13,0.59v4.58c0,1.06-0.19,1.6-0.78,1.96c-0.59,0.34-1.41,0.42-2.58,0.42
			c-0.08-0.57-0.34-1.48-0.63-2.07c0.61,0.04,1.24,0.04,1.44,0.02c0.23,0,0.32-0.08,0.32-0.3v-4.03c-0.65,0.17-1.24,0.32-1.81,0.47
			l-0.55-2.17c0.68-0.13,1.48-0.32,2.36-0.51v-3.46h-2.03v-2.09h2.03v-3.57h2.22v3.57h1.75v2.09h-1.75v2.89l1.84-0.47L381.75,167.05
			z M389.52,172.05c1.06,0,1.25-0.49,1.44-2.62c0.53,0.38,1.52,0.76,2.18,0.91c-0.3,2.85-1.04,3.89-3.42,3.89h-4.12
			c-2.62,0-3.46-0.7-3.46-3.53v-12.92h10.09v10.6h-2.37v-1.2h-5.36v3.53c0,1.16,0.17,1.33,1.35,1.33H389.52z M384.51,160.01v5.03
			h1.62v-5.03H384.51z M389.87,160.01h-1.63v5.03h1.63V160.01z"/>
		<path d="M398.32,161.2c-0.61,0.55-1.22,1.06-1.86,1.48c-0.13-0.49-0.63-1.63-0.91-2.15c1.5-0.89,3.04-2.3,3.88-3.82l1.86,0.68
			c-0.11,0.21-0.25,0.42-0.38,0.63c1.06,0.57,2.3,1.29,2.96,1.79l-1.03,1.65c-0.3-0.23-0.7-0.53-1.18-0.84v1.35h-3.34V161.2z
			 M412.85,162.51c-0.4,3.13-1.18,5.7-2.3,7.73c0.84,1.08,1.84,1.98,3.02,2.58c-0.46,0.4-1.12,1.22-1.44,1.79
			c-1.1-0.66-2.03-1.5-2.83-2.51c-0.87,1.06-1.88,1.94-3.04,2.62c-0.25-0.4-0.65-0.97-1.04-1.41c-0.17,0.49-0.38,0.95-0.63,1.35
			c-0.38-0.32-1.24-0.87-1.71-1.08l-1.16,0.49c-0.09-0.38-0.23-0.86-0.4-1.35c-3.65,1.31-4.27,1.62-4.69,1.92
			c-0.09-0.49-0.42-1.41-0.7-1.84c0.36-0.15,0.78-0.44,0.78-1.16v-9h6.27v6.8h-4.31v2.34l2.09-0.68c-0.13-0.36-0.27-0.68-0.38-0.99
			l1.62-0.57c0.42,1.01,0.93,2.3,1.27,3.25c1.06-2.47,1.16-5.76,1.16-8.21v-4.62h-0.02v-2.03h8.13v2.03h-6.14v2.22h4.77l0.36-0.06
			L412.85,162.51z M398.66,164.28v0.91h2.51v-0.91H398.66z M401.17,167.83v-1.08h-2.51v1.08H401.17z M401.59,160.58
			c-0.55-0.36-1.16-0.74-1.71-1.06c-0.28,0.36-0.61,0.72-0.93,1.06H401.59z M408.07,170.25c-0.7-1.29-1.24-2.74-1.69-4.31
			c-0.06,2.17-0.28,4.71-0.97,6.86C406.41,172.18,407.33,171.31,408.07,170.25z M407.84,164.17c0.36,1.42,0.84,2.79,1.44,4.01
			c0.53-1.18,0.97-2.55,1.27-4.01H407.84z"/>
		<path d="M430.87,172.13c0.72,0,0.99-0.3,1.06-2.66c0.63,0.34,1.35,0.61,2.03,0.74c-0.25,3.44-1.12,4.12-3.23,4.12h-4.03
			c-2.53,0-3.67-1.01-3.67-2.54c0-1.04,0.25-2.15,4.88-6.1h-3.61v-2.01c-0.17,0.23-0.36,0.46-0.55,0.66
			c-0.32-0.3-0.95-0.85-1.46-1.23v6.78h-3.53v1.52h-2.07v-12.86h5.6v3.93c1.33-1.42,2.39-3.5,3.02-5.6l2.24,0.55
			c-0.23,0.72-0.51,1.42-0.82,2.13h6.69v2.11h-7.75c-0.4,0.72-0.86,1.35-1.31,1.94h6.46l0.51-0.06l1.52,0.85
			c-0.08,0.12-0.19,0.25-0.32,0.38c-6.67,5.15-7.16,6.08-7.16,6.69c0,0.48,0.48,0.67,1.25,0.67H430.87z M420.27,160.71h-1.5v6.97
			h1.5V160.71z"/>
		<path d="M451.33,172.3c0.61,0,0.7-0.32,0.8-2.28c0.46,0.34,1.41,0.7,2.03,0.85c-0.25,2.75-0.84,3.5-2.62,3.5h-2.37
			c-2.2,0-2.74-0.68-2.74-2.74v-3.65h-2.54c-0.25,3.63-1.14,5.66-6.16,6.65c-0.17-0.57-0.76-1.46-1.2-1.92
			c4.29-0.7,4.86-2,5.03-4.73h-4.69v-2.13h16.93v2.13h-5.07v3.63c0,0.61,0.11,0.68,0.78,0.68H451.33z M439.48,163.56h-2.24v-4.71
			h6.93c-0.19-0.51-0.42-1.03-0.65-1.48l2.32-0.68c0.38,0.67,0.78,1.46,1.03,2.17h6.55v4.71h-2.38v-2.55h-11.57V163.56z
			 M440.35,164.47v-2.09h9.82v2.09H440.35z"/>
		<path d="M458.82,168.4c1.48-0.48,2.34-1.29,2.45-2.3c-0.06,0.02-0.13,0.02-0.21,0.02c-0.95,0-1.8-0.61-1.8-1.69
			c0-1.06,0.86-1.71,1.86-1.71c1.35,0,2.05,1.01,2.05,2.6c0,2.15-1.39,3.91-3.74,4.6L458.82,168.4z"/>
		<path d="M74.39,198.99c-0.3,1.69-0.84,3.36-1.6,4.77c0.28,0.17,0.63,0.38,1.06,0.63c1.31,0.74,3.12,0.85,5.28,0.85
			c2.13,0,5.57-0.19,7.71-0.51c-0.27,0.63-0.65,1.75-0.68,2.39c-1.54,0.12-4.9,0.23-7.12,0.23c-2.49,0-4.1-0.21-5.49-0.97
			c-0.8-0.42-1.44-0.99-1.84-0.99c-0.44,0-1.14,1.24-1.65,2.26l-1.48-2.19c0.57-0.68,1.2-1.23,1.8-1.6c0.68-0.95,1.24-2.2,1.58-3.42
			H69.3c0.49-1.12,1.06-2.64,1.56-4.12h-1.9v-2.01h4.77c-0.46,1.35-1.01,2.87-1.5,4.18h0.49l0.34-0.06L74.39,198.99z M71.14,193.8
			c-0.32-0.87-0.97-2.26-1.41-3.29l1.96-0.72c0.48,1.04,1.1,2.32,1.46,3.13L71.14,193.8z M86.28,193.75H74.2V192h5.03
			c-0.23-0.53-0.53-1.14-0.82-1.62l2.18-0.68c0.4,0.63,0.89,1.5,1.12,2.05L80.96,192h5.32V193.75z M75.36,199.41h9.5v4.81h-9.5
			V199.41z M84.69,196.08h-9.12v-1.6h9.12V196.08z M75.57,196.94h9.12v1.6h-9.12V196.94z M77.47,202.6h5.17V201h-5.17V202.6z"/>
		<path d="M106.88,197.36v2.45H89.4v-2.45H106.88z"/>
		<path d="M127.25,203.59h-6.5v4.07h-2.34v-4.07h-8.55v-2.17h3v-4.98h5.55v-2.28h-4.07c-0.78,1.35-1.69,2.56-2.58,3.46
			c-0.44-0.38-1.41-1.14-1.96-1.46c1.71-1.44,3.17-3.88,3.99-6.33l2.3,0.59c-0.17,0.53-0.38,1.04-0.63,1.56h10.73v2.19h-5.45v2.28
			h5.02v2.09h-5.02v2.89h6.5V203.59z M118.41,201.42v-2.89h-3.29v2.89H118.41z"/>
		<path d="M138.25,202.28c-2.51,1.12-5.32,2.32-7.47,3.21l-0.76-2.41c0.72-0.25,1.58-0.55,2.53-0.93l-0.38-11.09l2.36-0.1
			l0.34,10.28c0.95-0.4,1.92-0.8,2.87-1.18L138.25,202.28z M146.11,207.62c-0.7-1.23-2.15-2.98-3.55-4.58
			c-1.39,1.98-3.27,3.5-5.78,4.62c-0.32-0.49-1.25-1.52-1.8-2c6.02-2.28,7.98-6.88,8.68-14.68l2.49,0.23
			c-0.4,3.89-1.08,7.07-2.32,9.65c1.58,1.63,3.34,3.55,4.22,4.88L146.11,207.62z M138.99,197.87c-0.47-1.31-1.69-3.31-2.83-4.71
			l2.05-1.03c1.24,1.39,2.43,3.25,3,4.56L138.99,197.87z"/>
		<path d="M166.29,201.08c-0.53-0.59-1.5-1.42-2.45-2.2c-0.38,0.63-0.8,1.18-1.27,1.63c-0.32-0.27-0.95-0.68-1.48-0.97
			c1.69,2.24,4.41,4.25,7.26,5.3c-0.55,0.47-1.29,1.44-1.67,2.07c-2.3-1.06-4.45-2.77-6.16-4.81v5.53h-2.37v-5.41
			c-1.71,1.99-3.84,3.65-6.1,4.69c-0.36-0.55-1.1-1.46-1.6-1.94c3.08-1.2,6.04-3.55,7.69-6.12v-4.39h-6.92v-2.22h6.92v-2.34h2.37
			v2.34h7.16v2.22h-7.16v4.25c0.1,0.15,0.19,0.29,0.29,0.44c1.22-1.08,2.01-2.77,2.39-4.58l2.2,0.4c-0.17,0.7-0.38,1.39-0.63,2.03
			c1.08,0.84,2.39,1.84,3.1,2.49L166.29,201.08z M156.51,195c-0.19,0.7-0.42,1.39-0.68,2.05c0.68,0.59,1.41,1.22,1.84,1.67
			l-1.52,1.58c-0.29-0.36-0.76-0.84-1.27-1.33c-0.63,1.03-1.35,1.92-2.18,2.6c-0.36-0.4-1.25-1.14-1.75-1.48
			c1.67-1.2,2.83-3.19,3.36-5.51L156.51,195z"/>
		<path d="M188.54,192.76h-3.29c0.49,0.4,1.01,0.86,1.31,1.2l-1.37,1.2h1.56v4.81h-6.02v1.12h6.95c0,0-0.02,0.55-0.06,0.82
			c-0.19,2.53-0.42,3.76-0.91,4.25c-0.4,0.46-0.85,0.61-1.44,0.67c-0.53,0.06-1.42,0.08-2.41,0.04c-0.04-0.66-0.27-1.5-0.63-2.05
			c0.8,0.08,1.6,0.09,1.94,0.08c0.29,0,0.48-0.02,0.65-0.17c0.19-0.19,0.34-0.7,0.46-1.75h-4.54v4.69h-2.22v-3.71
			c-1.6,1.56-3.7,2.85-5.77,3.63c-0.32-0.55-0.95-1.37-1.42-1.79c1.98-0.59,4.03-1.63,5.51-2.83h-4.08c0.28-1.29,0.57-3.27,0.7-4.86
			h5.07v-1.08h-5.77v-1.86h3.88c-0.42-0.53-1.16-1.23-1.75-1.75l0.72-0.63h-1.12c-0.61,0.95-1.29,1.8-1.94,2.45
			c-0.32-0.38-1.08-1.18-1.52-1.52c1.12-0.99,2.17-2.49,2.75-3.99l2,0.57c-0.1,0.25-0.21,0.51-0.34,0.76h4.18v1.73h-2.72
			c0.51,0.44,1.01,0.91,1.29,1.25l-1.22,1.12h8.02c-0.42-0.51-1.23-1.2-1.84-1.69l0.82-0.7h-1.56c-0.46,0.72-0.97,1.35-1.48,1.84
			c-0.38-0.38-1.2-1.03-1.69-1.31c1.04-0.89,1.9-2.22,2.38-3.57l2.05,0.51c-0.1,0.27-0.21,0.55-0.32,0.82h5.22V192.76z
			 M178.51,199.96h-3.1c-0.06,0.38-0.09,0.76-0.15,1.12h3.25V199.96z M184.51,197.02h-3.78v1.08h3.78V197.02z"/>
		<path d="M209,197.36v2.45h-17.48v-2.45H209z"/>
		<path d="M218.05,202.49h-6.02v-2.26h6.02V202.49z M217.63,194.81h-5.22v-2.18h5.22V194.81z M223.94,197.85
			c0.8,3.63,2.45,6.46,5.7,7.67c-0.51,0.46-1.2,1.41-1.5,2.01c-2.43-1.08-3.97-2.92-5-5.39c-0.8,2.03-2.41,4.08-5.55,5.58
			c-0.34-0.55-1.16-1.42-1.71-1.86c5.09-2.34,5.62-6.04,5.62-8.49v-1.75h2.43v1.8V197.85z M220.61,195.13
			c-0.59,1.54-1.31,2.89-2.07,3.95c-0.49-0.38-1.65-1.03-2.26-1.31c1.58-1.77,2.7-4.81,3.25-7.87l2.51,0.42
			c-0.19,0.87-0.4,1.73-0.65,2.56h5.72l0.44-0.13l1.65,0.97c-0.49,2.01-1.29,4.05-1.98,5.51c-0.46-0.27-1.39-0.72-1.94-0.93
			c0.36-0.8,0.8-2.01,1.12-3.17H220.61z"/>
		<path d="M247.27,205.7c0.61,0,0.74-0.19,0.82-1.48c0.44,0.29,1.29,0.57,1.86,0.68c-0.23,1.98-0.8,2.49-2.45,2.49h-2.79
			c-2.26,0-2.83-0.49-2.83-2.18v-0.86h-2.09c-0.57,1.9-2.05,2.83-6.61,3.29c-0.15-0.49-0.59-1.29-0.95-1.71
			c3.63-0.21,4.81-0.63,5.3-1.58h-1.96v-6.4h10.96v6.4h-2.45v0.84c0,0.48,0.15,0.51,0.91,0.51H247.27z M234.81,198.78h-1.98v-2.83
			h2.09l-0.3-4.5l-0.02-0.02c1.08-0.36,2.56-1.04,3.44-1.54l1.2,0.95c-0.8,0.42-1.73,0.78-2.6,1.1l0.02,0.46h1.96v1.18h-1.88
			l0.06,0.59h1.88v1.18h-1.8l0.04,0.61h2.64c-0.23-0.23-0.53-0.51-0.74-0.68c0.51-0.23,1.03-0.51,1.48-0.82
			c-0.32-0.21-0.65-0.42-0.95-0.59l0.86-0.76c0.34,0.17,0.67,0.38,1.03,0.61c0.29-0.27,0.53-0.55,0.72-0.82l0.08,0.02
			c-0.21-0.21-0.49-0.44-0.82-0.68c-0.47,0.36-0.95,0.66-1.44,0.89c-0.19-0.21-0.65-0.67-0.93-0.87c0.48-0.21,0.93-0.46,1.35-0.72
			c-0.28-0.17-0.57-0.34-0.84-0.47l0.86-0.76c0.3,0.15,0.61,0.34,0.93,0.53c0.29-0.25,0.53-0.51,0.72-0.78l1.2,0.34
			c-0.27,0.38-0.55,0.74-0.91,1.06c0.3,0.23,0.57,0.46,0.78,0.65l-0.84,0.83l1.1,0.29c-0.27,0.4-0.59,0.8-0.95,1.18
			c0.36,0.27,0.68,0.53,0.93,0.78l-0.82,0.78h3.12l0.04-0.61h-1.9v-1.18h2l0.04-0.59h-1.98v-1.18h2.03l0.02-0.59h-2.3v-1.31h4.35
			c-0.06,1.77-0.15,3.91-0.3,5.45h1.96v2.83h-2.09v-1.42h-12.5V198.78z M237.7,199.73h6.59v-0.63h-6.59V199.73z M237.7,201.44h6.59
			v-0.63h-6.59V201.44z M237.7,203.21h6.59v-0.67h-6.59V203.21z M242.2,195.95c-0.25-0.25-0.53-0.51-0.89-0.78
			c-0.38,0.29-0.76,0.55-1.14,0.78H242.2z"/>
		<path d="M258.92,194.91c-0.46,0.8-1.03,1.6-1.65,2.39v10.31h-2.18v-7.88c-0.57,0.57-1.14,1.1-1.71,1.54
			c-0.17-0.49-0.74-1.79-1.08-2.34c1.69-1.18,3.55-3.02,4.65-4.88L258.92,194.91z M258.6,190.78c-1.25,1.75-3.19,3.61-4.98,4.77
			c-0.23-0.51-0.78-1.44-1.12-1.92c1.48-0.91,3.15-2.45,3.95-3.72L258.6,190.78z M270.15,202.7h-2.6v2.7c0,1.04-0.19,1.58-0.93,1.9
			c-0.7,0.32-1.65,0.32-2.94,0.32c-0.1-0.61-0.42-1.44-0.7-2.01c0.8,0.04,1.69,0.04,1.94,0.04c0.27-0.02,0.34-0.1,0.34-0.3v-2.64
			h-3.99c0.76,0.72,1.69,1.71,2.17,2.38l-1.69,1.2c-0.42-0.72-1.39-1.84-2.19-2.64l1.41-0.93h-2.66v-1.92h6.95v-1.08h-6.5v-1.84h11
			v1.84h-2.2v1.08h2.58L270.15,202.7z M269.12,197.02h-9.4v-6.57h9.4V197.02z M266.84,192.02h-4.94v0.95h4.94V192.02z
			 M266.84,194.45h-4.94v0.99h4.94V194.45z"/>
		<path d="M276.7,199.05c-0.78-0.55-2.41-1.44-3.53-2.05l1.22-1.67c1.04,0.51,2.74,1.33,3.57,1.84L276.7,199.05z M273.44,205.89
			c1.01-1.42,2.47-3.78,3.61-5.98l1.65,1.52c-1.01,2-2.2,4.16-3.36,6L273.44,205.89z M277.52,193.86c-0.74-0.57-2.36-1.46-3.46-2.09
			l1.27-1.63c1.06,0.53,2.72,1.37,3.53,1.9L277.52,193.86z M285.94,197.57v2.39h3.88v7.58h-2.15v-0.68h-5.72v0.78h-2.03v-7.67h3.88
			v-2.39h-5.05v-2.17h5.05v-2.22c-1.25,0.19-2.51,0.32-3.71,0.44c-0.08-0.55-0.38-1.43-0.63-1.94c3.23-0.32,6.78-0.95,8.87-1.79
			l1.75,1.79c-1.23,0.47-2.64,0.83-4.14,1.12v2.6h4.83v2.17H285.94z M287.66,202.01h-5.72v2.79h5.72V202.01z"/>
		<path d="M304.46,199.41c-0.72,0.36-1.46,0.68-2.22,1.01h7.05v7.2h-2.32v-0.49h-7.26v0.49h-2.2v-5.57
			c-1.03,0.3-2.09,0.57-3.13,0.82c-0.21-0.46-0.68-1.37-0.99-1.79c2.15-0.42,4.31-0.95,6.36-1.67h-5.81v-1.94h6.12v-1.08h-4.56
			v-1.84h4.56v-1.04h2.24v1.04h4.18v1.58c0.95-0.65,1.79-1.31,2.49-2.07l1.67,1.06c-0.84,0.84-1.79,1.63-2.83,2.36h3.1v1.94H304.46z
			 M297.36,192.86h-3.44v-1.94h3.44v-1.03h2.24v1.03h2.41v1.94h-2.41v1.16h-2.24V192.86z M306.97,202.12h-7.26v0.93h7.26V202.12z
			 M306.97,205.41v-0.95h-7.26v0.95H306.97z M302.29,197.47h1.98c0.63-0.34,1.25-0.7,1.84-1.08h-3.82V197.47z M305.28,192.86h-2.56
			v-1.94h2.56v-1.03h2.24v1.03h3.29v1.94h-3.29v1.16h-2.24V192.86z"/>
		<path d="M321.14,195.71c-0.06,1.96-0.32,4.31-1.31,6.57c0.91,0.86,1.75,1.63,2.3,2.3l-1.48,1.88c-0.47-0.61-1.16-1.35-1.94-2.13
			c-0.8,1.2-1.82,2.32-3.23,3.34c-0.34-0.48-1.08-1.22-1.6-1.58c1.42-1.01,2.47-2.13,3.21-3.32c-0.97-0.89-1.98-1.8-2.83-2.56
			c0.3-1.14,0.63-2.58,0.89-4.14l-1.06,0.08l-0.21-2.15c0.49-0.02,1.04-0.04,1.62-0.06c0.19-1.37,0.34-2.74,0.42-3.99l2.24,0.09
			c-0.11,1.2-0.27,2.49-0.47,3.8l1.37-0.08v-1.2h2.11v1.08l0.99-0.06v2.03L321.14,195.71z M317.34,195.95
			c-0.23,1.25-0.46,2.49-0.7,3.57c0.47,0.4,0.97,0.82,1.46,1.23c0.65-1.71,0.87-3.44,0.93-4.92L317.34,195.95z M331.67,199.85h-3.8
			v5.34c0,1.16-0.25,1.73-1.04,2.09c-0.76,0.32-1.84,0.38-3.33,0.36c-0.11-0.63-0.44-1.56-0.76-2.15c0.95,0.02,2.05,0.02,2.36,0.02
			c0.32,0,0.42-0.08,0.42-0.36v-5.3h-3.99v-2.15h3.99v-1.82c0.82-0.72,1.65-1.79,2.32-2.77h-5.57v-2.05h7.05l0.53-0.12l1.52,1.1
			c-0.89,1.39-2.15,2.98-3.5,4.24v1.42h3.8V199.85z"/>
		<path d="M351.37,199.85c-0.59,0.32-1.22,0.67-1.82,0.97c0.53,1.69,1.5,3.27,2.77,4.08c-0.46,0.38-1.1,1.14-1.41,1.67
			c-1.39-1.08-2.38-2.94-2.96-5.03l-0.49,0.21c0.63,2.07,0.32,4.16-0.49,4.98c-0.55,0.63-1.12,0.84-1.92,0.84
			c-0.36,0.02-0.78,0-1.2-0.02c-0.04-0.53-0.19-1.37-0.53-1.92c0.51,0.06,0.93,0.08,1.27,0.08c0.36,0,0.63-0.06,0.84-0.42
			c0.25-0.29,0.4-0.93,0.36-1.75c-1.58,1.31-3.65,2.49-5.49,3.13c-0.3-0.46-0.86-1.2-1.27-1.58c2.34-0.65,5-2.01,6.4-3.38
			c-0.08-0.21-0.15-0.4-0.25-0.61c-1.39,1.1-3.29,2.13-4.84,2.7c-0.29-0.44-0.8-1.06-1.18-1.41c1.79-0.49,4.01-1.48,5.24-2.49
			c-0.17-0.19-0.34-0.36-0.51-0.53c-1.16,0.78-2.49,1.48-3.65,1.88c-0.25-0.4-0.78-1.06-1.18-1.39c1.2-0.34,2.58-0.91,3.72-1.56
			h-2.32v-2.7c-0.19,0.17-0.4,0.34-0.59,0.49c-0.29-0.46-0.87-1.16-1.31-1.48l-0.02,0.04v12.94h-2.17v-9.5
			c-0.36,0.48-0.72,0.93-1.08,1.31c-0.21-0.55-0.84-1.79-1.22-2.34c1.63-1.73,3.21-4.43,4.1-7.11l2.13,0.67
			c-0.46,1.31-1.04,2.64-1.71,3.91c1.9-1.37,3.27-3.13,4.01-4.63l2.09,0.4c-0.17,0.3-0.34,0.63-0.53,0.93h2.93l0.4-0.11l1.25,0.95
			c-0.38,0.61-0.85,1.23-1.33,1.82h3.5v4.41h-5.62l-0.06,0.04c0.66,0.57,1.18,1.21,1.58,1.92c1.06-0.55,2.24-1.25,3.02-1.84
			L351.37,199.85z M343.07,192.89c-0.27,0.34-0.55,0.68-0.84,1.01h2.83c0.28-0.3,0.53-0.65,0.78-1.01H343.07z M342.46,196.69h2.09
			v-1.18h-2.09V196.69z M348.83,195.51h-2.26v1.18h2.26V195.51z"/>
		<path d="M368,205.34c1.71,0,2-0.51,2.26-2.98c0.55,0.34,1.5,0.7,2.11,0.84c-0.38,3.15-1.14,4.18-4.22,4.18h-5.93
			c-3.34,0-4.33-0.76-4.33-3.69v-5.09l-2.66,0.84l-0.59-2.05l3.25-1.01v-5.15h2.22v4.45l2.91-0.91v-4.84h2.26v4.12l3.51-1.08
			l0.61-0.42l1.69,0.53l-0.08,0.34c-0.11,2.66-0.4,6.17-0.84,8.49l-1.86-0.53c0.23-1.54,0.38-3.97,0.46-6.23l-3.5,1.12v7.1h-2.26
			v-6.4l-2.91,0.93v5.81c0,1.41,0.27,1.63,2.13,1.63H368z"/>
		<path d="M386.71,196.03c2.03,1.46,4.96,3.65,6.33,5.15l-1.92,1.73c-1.18-1.41-3.76-3.57-5.81-5.15v9.84h-2.47v-9.27
			c-1.73,1.84-3.76,3.5-6.04,4.67c-0.36-0.61-1.06-1.54-1.56-2.05c3.46-1.61,6.42-4.56,8.19-7.46h-7.58v-2.32h16.47v2.32h-5.91
			c-0.32,0.59-0.7,1.18-1.1,1.75v1.98L386.71,196.03z"/>
		<path d="M400.94,200.61c0.85,0.51,2.75,1.9,3.21,2.26l-1.22,1.92c-0.44-0.55-1.25-1.41-1.99-2.15v4.96h-2v-4.77
			c-0.74,1.39-1.63,2.72-2.56,3.61c-0.21-0.63-0.65-1.5-0.97-2.07c1.08-0.99,2.24-2.58,3-4.07h-2.26V195h2.79v-1.27h-3.08v-1.96
			h3.08v-1.75h2v1.75h3.21v1.96h-3.21V195h2.93v5.3h-2.93V200.61z M397.92,198.52h1.18v-1.75h-1.18V198.52z M402.04,196.77h-1.23
			v1.75h1.23V196.77z M410.92,204.25c0.93,0.64,2.09,1.52,2.68,2.15l-1.67,1.21c-0.59-0.68-1.86-1.73-2.83-2.45l1.33-0.91h-3.59
			l1.41,0.87c-0.91,0.97-2.45,1.98-3.71,2.51c-0.34-0.42-0.99-1.01-1.44-1.41c1.1-0.44,2.34-1.25,3.1-1.97h-1.35v-7.62h0.36
			c-0.3-0.44-0.93-1.12-1.31-1.42c1.41-0.53,2.28-1.37,2.68-2.6h-1.88v-1.92h8.32c0,0-0.02,0.49-0.04,0.74
			c-0.15,2.49-0.36,3.67-0.78,4.12c-0.34,0.38-0.72,0.51-1.2,0.59c-0.4,0.06-1.12,0.06-1.86,0.04c-0.04-0.59-0.25-1.35-0.53-1.84
			c0.59,0.08,1.1,0.08,1.37,0.08c0.23,0,0.38-0.02,0.51-0.17c0.17-0.17,0.29-0.63,0.38-1.63h-2.13c-0.49,1.88-1.54,3.15-3.17,4.03
			h7.01v7.62H410.92z M406.85,198.76h3.63v-0.78h-3.63V198.76z M406.85,200.83h3.63v-0.82h-3.63V200.83z M406.85,202.9h3.63v-0.8
			h-3.63V202.9z"/>
		<path d="M420.23,195.71c1.71,0,3.08,1.39,3.08,3.08s-1.37,3.08-3.08,3.08c-1.69,0-3.08-1.39-3.08-3.08
			S418.54,195.71,420.23,195.71z M420.23,200.49c0.95,0,1.71-0.76,1.71-1.71s-0.76-1.71-1.71-1.71c-0.93,0-1.71,0.76-1.71,1.71
			S419.3,200.49,420.23,200.49z"/>
		<path d="M79.94,269.46c2.15,0.78,4.96,1.8,6.48,2.51l-1.06,1.79c-1.63-0.84-5-2.18-7.33-3.08l0.8-1.22h-0.8
			c-0.87,2.24-2.91,3.55-8.24,4.16c-0.11-0.55-0.63-1.42-1.01-1.9c4.03-0.36,5.81-1.06,6.65-2.26h-6.31v-1.86h7.01
			c0.06-0.29,0.09-0.59,0.13-0.91h2.38c-0.04,0.32-0.08,0.63-0.11,0.91h7.79v1.86H79.94z M72.76,266.95h-2.11v-9.73h5.66
			c0.17-0.47,0.32-0.95,0.42-1.33l2.47,0.23c-0.17,0.38-0.34,0.76-0.51,1.1h6.21v8.05c0,0.82-0.13,1.25-0.63,1.54
			c-0.47,0.29-1.08,0.32-1.8,0.32c-0.11-0.44-0.38-1.04-0.61-1.48l-0.61,0.8c-0.63-0.44-1.69-1.08-2.72-1.65v1.37h-1.69v-1.5
			c-0.84,0.8-1.84,1.5-2.77,1.92c-0.25-0.38-0.74-0.95-1.08-1.25c1.06-0.38,2.22-1.06,3.08-1.82H73.4v-1.33h1.31
			c-0.09-0.3-0.23-0.65-0.38-0.91l1.24-0.36c0.23,0.36,0.46,0.87,0.55,1.22l-0.17,0.06h0.89v-1.35c-1.03,0.04-2.03,0.06-2.96,0.04
			c-0.04-0.32-0.21-0.82-0.36-1.14c2.56-0.04,5.72-0.21,7.48-0.51l0.91,1.16c-0.97,0.15-2.15,0.29-3.38,0.36v1.44h0.82l-0.11-0.04
			c0.21-0.42,0.48-1.01,0.59-1.37l1.37,0.38c-0.25,0.38-0.46,0.72-0.63,1.03h1.5v1.33H79.1c1.12,0.55,2.38,1.23,3.08,1.71
			l-0.17,0.27c0.21,0,0.42,0,0.51,0c0.15,0,0.19-0.06,0.19-0.21v-6.29h-9.95V266.95z"/>
		<path d="M95.18,260.79c-0.42,0.85-0.91,1.75-1.46,2.64h0.02v10.2h-2.11v-7.24c-0.46,0.59-0.93,1.12-1.37,1.56
			c-0.23-0.48-0.87-1.62-1.23-2.11c1.52-1.44,3.13-3.63,4.14-5.78L95.18,260.79z M94.85,256.73c-1.24,1.8-3.08,3.91-4.65,5.3
			c-0.23-0.51-0.72-1.39-1.04-1.86c1.31-1.1,2.91-2.93,3.69-4.26L94.85,256.73z M93.87,271.96c0.67-0.87,1.2-2.3,1.48-3.51
			l1.71,0.67c-0.32,1.25-0.82,2.81-1.5,3.82L93.87,271.96z M106.99,267.69h-5.76c0.4,0.67,0.84,1.48,1.08,2.01l-1.75,0.63
			c-0.23-0.59-0.74-1.58-1.14-2.32l0.97-0.32h-5.66v-1.8h12.25V267.69z M99.51,259.99c0.04-0.3,0.08-0.63,0.11-0.97h-4.63v-1.79
			h4.79c0.04-0.51,0.06-0.97,0.08-1.41l2.39,0.08l-0.19,1.33h4.86v1.79h-5.11c-0.06,0.34-0.11,0.67-0.15,0.97h4.69v5.04H95.67v-5.04
			H99.51z M101.9,271.7c0.53,0,0.65-0.21,0.7-1.58c0.4,0.27,1.2,0.55,1.73,0.67c-0.21,2.07-0.74,2.58-2.2,2.58h-2.36
			c-1.96,0-2.43-0.53-2.43-2.19v-2.32h1.98v2.3c0,0.48,0.11,0.53,0.74,0.53H101.9z M98.73,261.59h-1.29v1.84h1.29V261.59z
			 M101.6,261.59h-1.33v1.84h1.33V261.59z M103.12,263.43h1.39v-1.84h-1.39V263.43z M105.15,268.33c0.84,1.12,1.71,2.58,2.01,3.59
			l-1.77,0.8c-0.25-0.99-1.06-2.53-1.9-3.65L105.15,268.33z"/>
		<path d="M113.17,264.82c-0.74-0.67-2.3-1.54-3.51-2.07l1.18-1.69c1.2,0.46,2.81,1.25,3.59,1.9L113.17,264.82z M115.41,267.4
			c-0.95,1.99-2.09,4.16-3.19,5.98l-1.94-1.48c0.97-1.43,2.34-3.78,3.44-5.96L115.41,267.4z M114.23,259.77
			c-0.7-0.68-2.26-1.6-3.48-2.13l1.23-1.67c1.22,0.46,2.79,1.29,3.57,1.96L114.23,259.77z M126.47,265.22
			c-0.67,2.07-1.73,3.69-3.1,4.94c1.25,0.63,2.68,1.1,4.25,1.41c-0.51,0.47-1.16,1.41-1.48,2.03c-1.8-0.44-3.38-1.1-4.75-2
			c-1.62,0.95-3.48,1.58-5.55,2.01c-0.21-0.61-0.7-1.54-1.12-2.03c1.77-0.29,3.4-0.76,4.79-1.46c-0.89-0.85-1.65-1.82-2.28-2.92
			l1.46-0.49h-2.56v-2.01h8.43l0.4-0.08L126.47,265.22z M119.7,259.58c-0.65,2.07-1.61,3.8-2.93,5.02c-0.4-0.38-1.41-1.12-1.96-1.42
			c1.94-1.52,2.93-4.14,3.31-7.28l2.34,0.27c-0.08,0.48-0.15,0.93-0.25,1.39h6.19c0,0-0.02,0.53-0.06,0.84
			c-0.19,3.06-0.44,4.43-0.95,5c-0.4,0.46-0.87,0.61-1.52,0.68c-0.55,0.06-1.46,0.06-2.47,0.04c-0.04-0.65-0.29-1.5-0.67-2.09
			c0.86,0.1,1.71,0.12,2.09,0.12c0.3,0,0.47-0.04,0.67-0.19c0.23-0.23,0.4-0.91,0.51-2.36H119.7z M119.36,266.7
			c0.51,0.82,1.22,1.56,2.03,2.22c0.8-0.63,1.44-1.37,1.96-2.22H119.36z"/>
		<path d="M133.56,263.55c-0.65,1.12-1.37,2.07-2.15,2.75c-0.32-0.49-0.99-1.2-1.44-1.56c1.25-0.93,2.49-2.58,3.23-4.24h-2.75v-1.92
			h3.12v-2.68h2.15v2.68h2.68v1.92h-2.68v0.7c0.76,0.44,2.56,1.73,3,2.09l-1.18,1.8c-0.44-0.48-1.14-1.16-1.82-1.79v3.97h-2.15
			V263.55z M130.1,271.56c0.68-1.01,1.33-2.56,1.65-3.91l2.01,0.8c-0.38,1.35-0.93,3.04-1.6,4.14L130.1,271.56z M140.95,271.26
			c0.89,0,1.03-0.27,1.14-2.18c0.46,0.36,1.41,0.68,2.03,0.8c-0.28,2.72-0.91,3.38-3,3.38h-3.42c-2.58,0-3.23-0.63-3.23-2.6v-2.6
			h2.22v2.57c0,0.57,0.19,0.65,1.22,0.65H140.95z M138.74,266.55l0.38,0.34v-10.05h7.71v10.22h-7.52c0.74,0.68,1.56,1.48,2.01,2.01
			l-1.63,1.37c-0.53-0.68-1.65-1.84-2.51-2.64L138.74,266.55z M141.17,259.73h3.5v-1.1h-3.5V259.73z M141.17,262.5h3.5v-1.1h-3.5
			V262.5z M141.17,265.29h3.5v-1.14h-3.5V265.29z M145.56,267.4c0.76,1.18,1.86,2.79,2.37,3.78l-2.11,1.08
			c-0.46-1.01-1.5-2.68-2.24-3.95L145.56,267.4z"/>
		<path d="M155.88,264.76c-0.34,1.73-0.84,3.51-1.48,4.94c0.3,0.19,0.67,0.46,1.16,0.76c1.31,0.78,3.1,0.89,5.32,0.89
			c2.17,0,5.58-0.19,7.69-0.49c-0.27,0.61-0.65,1.71-0.66,2.32c-1.56,0.09-4.92,0.23-7.14,0.23c-2.53,0-4.12-0.21-5.49-1.01
			c-0.8-0.44-1.48-1.06-1.86-1.06c-0.44,0-1.12,1.29-1.6,2.38l-1.5-2.15c0.67-0.8,1.35-1.43,2-1.82c0.44-0.93,0.82-2.13,1.1-3.29
			h-2.39c0.44-1.12,0.93-2.64,1.37-4.12h-1.71v-2.01h4.45c-0.4,1.33-0.86,2.85-1.31,4.18h0.78l0.34-0.08L155.88,264.76z
			 M152.69,259.77c-0.21-0.85-0.72-2.22-1.04-3.27l1.99-0.61c0.36,1.03,0.86,2.3,1.12,3.15L152.69,259.77z M158.28,270.52h-1.96
			v-8.26h1.41v-5.81h8.19v5.81h1.39v6.34c0,0.89-0.15,1.37-0.74,1.67c-0.55,0.29-1.33,0.3-2.36,0.3c-0.06-0.49-0.27-1.14-0.49-1.63
			h-2.85v0.59h-1.61v-4.79h4.96v4.08c0.36,0,0.67,0,0.78,0c0.21,0,0.27-0.06,0.27-0.25v-4.62h-6.97V270.52z M159.68,262.26h1.06
			v-2.98h3.13v-1.16h-4.2V262.26z M162.57,266.19h-1.71v1.33h1.71V266.19z M163.88,260.68h-1.5v1.58h1.5V260.68z"/>
		<path d="M181.7,256.75c-0.13,0.19-0.27,0.36-0.4,0.55c1.86,1.92,4.9,3.89,7.48,5.02c-0.59,0.47-1.37,1.44-1.77,2.07
			c-1.18-0.61-2.45-1.44-3.67-2.38v1.86h-6.61v-1.9c-1.31,1.01-2.74,1.9-4.14,2.62c-0.38-0.65-1.08-1.52-1.75-2.09
			c3.32-1.44,6.72-3.86,8.59-6.82L181.7,256.75z M185.31,264.8l1.79,0.86c-1.67,2.39-4.1,5.53-6.16,8.07l-2.36-1.1
			c1.42-1.67,3.08-3.7,4.39-5.4h-9.67v-2.32h11.61L185.31,264.8z M182.97,261.72c-1.06-0.85-2.11-1.79-3.02-2.75
			c-0.87,1.01-1.86,1.92-2.91,2.75H182.97z"/>
		<path d="M201.86,265.18c1.33,3.02,3.76,5.24,7.47,6.21c-0.55,0.48-1.23,1.46-1.56,2.11c-3.57-1.14-5.87-3.34-7.47-6.46
			c-1.04,2.53-3.19,4.92-7.47,6.52c-0.3-0.57-0.99-1.52-1.48-1.96c4.39-1.56,6.25-4.01,7.03-6.42h-6.36v-2.32h6.84
			c0.04-0.51,0.06-0.99,0.06-1.46v-1.92h-6.21v-2.32h15.05v2.32h-6.46v1.96c0,0.46-0.02,0.93-0.04,1.42h7.24v2.32H201.86z"/>
		<path d="M222.29,256.44c-0.09,0.11-0.19,0.25-0.29,0.36c1.75,1.52,4.86,2.83,7.88,3.42c-0.47,0.4-1.12,1.2-1.42,1.73
			c-0.38-0.09-0.78-0.23-1.18-0.34v4.9h-13.2v-4.79c-0.4,0.13-0.8,0.27-1.18,0.36c-0.23-0.42-0.84-1.33-1.22-1.75
			c3.5-0.82,6.88-2.39,8.61-4.6L222.29,256.44z M226.6,261.36c-0.89-0.32-1.75-0.72-2.58-1.16v0.49h-6.67v-0.38
			c-0.74,0.38-1.5,0.74-2.3,1.04H226.6z M215.14,267.14h11.17v6.42H224v-0.46h-6.63v0.51h-2.22V267.14z M217.29,265.14
			c-0.09-0.59-0.34-1.37-0.65-1.98l1.46-0.42h-2.15v2.39H217.29z M217.37,268.62v0.76H224v-0.76H217.37z M224,271.62v-0.76h-6.63
			v0.76H224z M219.68,262.75h-1.48c0.34,0.64,0.65,1.46,0.76,2.01l-1.22,0.38h1.94V262.75z M222.42,259.23
			c-0.57-0.4-1.12-0.82-1.6-1.23c-0.49,0.42-1.04,0.84-1.61,1.23H222.42z M221.51,262.75v2.39h1.77l-1.14-0.32
			c0.27-0.57,0.57-1.44,0.74-2.07H221.51z M225.27,262.75h-1.98l1.48,0.36c-0.38,0.76-0.74,1.5-1.04,2.03h1.54V262.75z"/>
		<path d="M242.45,271.18c0.49,0.04,1.01,0.06,1.52,0.06c1.06,0,4.71,0,6.06-0.06c-0.3,0.51-0.65,1.5-0.76,2.17h-5.41
			c-3.48,0-5.83-0.49-7.43-2.7c-0.68,1.25-1.56,2.26-2.66,3.02c-0.32-0.42-1.2-1.25-1.71-1.58c1.94-1.2,3.1-3.21,3.53-5.76
			l2.26,0.34c-0.13,0.61-0.29,1.18-0.44,1.73c0.59,1.29,1.52,2,2.74,2.38v-4.83h-7.41v-2h16.76v2h-7.05v1.42h5.85v1.96h-5.85V271.18
			z M247.69,263.13h-13.2v-6.59h13.2V263.13z M245.39,258.11h-8.7v0.97h8.7V258.11z M245.39,260.56h-8.7v0.99h8.7V260.56z"/>
		<path d="M258.22,264.99c-0.3,1.69-0.84,3.36-1.6,4.77c0.28,0.17,0.63,0.38,1.06,0.63c1.31,0.74,3.12,0.85,5.28,0.85
			c2.13,0,5.57-0.19,7.71-0.51c-0.27,0.63-0.65,1.75-0.68,2.39c-1.54,0.12-4.9,0.23-7.12,0.23c-2.49,0-4.1-0.21-5.49-0.97
			c-0.8-0.42-1.44-0.99-1.84-0.99c-0.44,0-1.14,1.24-1.65,2.26l-1.48-2.19c0.57-0.68,1.2-1.23,1.8-1.6c0.68-0.95,1.24-2.2,1.58-3.42
			h-2.66c0.49-1.12,1.06-2.64,1.56-4.12h-1.9v-2.01h4.77c-0.46,1.35-1.01,2.87-1.5,4.18h0.49l0.34-0.06L258.22,264.99z
			 M254.97,259.8c-0.32-0.87-0.97-2.26-1.41-3.29l1.96-0.72c0.48,1.04,1.1,2.32,1.46,3.13L254.97,259.8z M270.11,259.75h-12.08V258
			h5.03c-0.23-0.53-0.53-1.14-0.82-1.62l2.18-0.68c0.4,0.63,0.89,1.5,1.12,2.05l-0.76,0.25h5.32V259.75z M259.18,265.41h9.5v4.81
			h-9.5V265.41z M268.51,262.08h-9.12v-1.6h9.12V262.08z M259.39,262.94h9.12v1.6h-9.12V262.94z M261.29,268.6h5.17V267h-5.17V268.6
			z"/>
		<path d="M278.66,256.58c-0.42,1.2-0.91,2.41-1.48,3.61v13.47h-2.15v-9.73c-0.42,0.59-0.84,1.14-1.27,1.63
			c-0.17-0.55-0.72-1.88-1.06-2.45c1.58-1.73,3.02-4.45,3.88-7.18L278.66,256.58z M290.27,256.86v16.58h-2.15v-0.93h-7.14v1.1h-2.05
			v-16.75H290.27z M288.12,270.56v-11.74h-7.14v11.74H288.12z M285.38,262.79v1.63h1.82v5.09h-5.26v-5.09h1.69v-1.63h-2.18v-1.63
			h2.18v-1.94h1.75v1.94h2.3v1.63H285.38z M285.52,265.98h-1.94v2h1.94V265.98z"/>
		<path d="M299.18,267.65c-0.23-0.55-0.63-1.41-1.04-2.22v8.19h-2.05v-7.1c-0.49,1.46-1.08,2.79-1.73,3.74
			c-0.21-0.63-0.67-1.48-0.99-2c1.06-1.48,2.07-4.12,2.55-6.36h-2.11v-2.09h2.28v-3.91h2.05v3.91h1.9v2.09h-1.9v0.84
			c0.51,0.7,1.88,2.79,2.2,3.3L299.18,267.65z M304.35,268.43c-0.68,2.34-2.15,3.99-3.93,4.9c-0.25-0.42-0.8-1.08-1.16-1.44
			c1.04-0.47,2.01-1.33,2.64-2.38h-2.07v-1.52h2.96l0.32-0.06L304.35,268.43z M311.13,267.52c-0.93,0.68-1.94,1.39-2.79,1.92
			c0.87,0.89,1.96,1.61,3.15,2.05c-0.44,0.38-1.03,1.16-1.33,1.65c-1.37-0.66-2.56-1.73-3.5-3.04v1.48c0,0.95-0.17,1.44-0.82,1.75
			c-0.63,0.3-1.46,0.32-2.62,0.32c-0.06-0.57-0.32-1.35-0.57-1.84c0.67,0.02,1.39,0.02,1.6,0c0.23,0,0.3-0.06,0.3-0.27v-4.2h-3.12
			v-1.54H306c-0.87-0.36-1.84-0.72-2.68-0.97l0.55-0.61H300v-1.65h4.52v-0.74h-3.31v-1.54h3.31v-0.7h-3.99V258h2.01
			c-0.23-0.49-0.55-1.04-0.86-1.5l1.65-0.61c0.44,0.57,0.93,1.39,1.16,1.9L304,258h3.06l-0.38-0.13c0.34-0.57,0.76-1.42,0.99-1.98
			l2,0.57c-0.42,0.57-0.8,1.08-1.14,1.54h2.34v1.6h-4.18v0.7h3.72v1.54h-3.72v0.74h4.5v1.65h-4.73c0.89,0.32,1.79,0.68,2.38,1.03
			l-1.2,1.35c-0.27-0.15-0.59-0.32-0.97-0.49v0.95c0.19,0.42,0.42,0.8,0.68,1.18c0.76-0.61,1.6-1.37,2.13-1.96L311.13,267.52z"/>
		<path d="M331.44,266.36h-7.37v4.58c0,1.27-0.29,1.9-1.18,2.26c-0.93,0.36-2.22,0.42-3.97,0.4c-0.13-0.67-0.59-1.69-0.97-2.34
			c1.33,0.08,2.81,0.08,3.21,0.06c0.42-0.02,0.55-0.11,0.55-0.44v-4.52h-7.52v-2.26h7.52v-2.64c1.2-0.57,2.56-1.42,3.67-2.24h-9.31
			v-2.24h11.83l0.53-0.11l1.71,1.31c-1.62,1.6-3.89,3.31-6.08,4.48v1.44h7.37V266.36z"/>
		<path d="M336.27,267.4c1.48-0.48,2.34-1.29,2.45-2.3c-0.06,0.02-0.13,0.02-0.21,0.02c-0.95,0-1.8-0.61-1.8-1.69
			c0-1.06,0.86-1.71,1.86-1.71c1.35,0,2.05,1.01,2.05,2.6c0,2.15-1.39,3.91-3.74,4.6L336.27,267.4z"/>
		<path d="M351.41,256.63c-0.51,1.35-1.16,2.72-1.88,4.05v12.92h-2.17v-9.58c-0.4,0.51-0.8,0.97-1.18,1.39
			c-0.21-0.55-0.84-1.8-1.24-2.36c1.73-1.71,3.38-4.39,4.33-7.1L351.41,256.63z M359.64,271.43c1.12,0,1.33-0.48,1.46-2.6
			c0.51,0.34,1.41,0.7,2,0.84c-0.29,2.83-0.95,3.78-3.29,3.78h-4.31c-2.64,0-3.4-0.68-3.4-3.33v-5.32l-1.44,0.57l-0.85-2l2.3-0.89
			V258h2.13v3.63l1.9-0.74v-4.92h2.03v4.12l2.55-0.99l0.19-0.13l1.69,0.51l-0.08,0.36c-0.09,2.72-0.34,6.29-0.76,8.64l-1.86-0.53
			c0.21-1.6,0.34-4.1,0.42-6.42l-2.15,0.87v6.73h-2.03v-5.95l-1.9,0.78v6.16c0,1.12,0.19,1.31,1.44,1.31H359.64z"/>
		<path d="M377.67,268.54c0.04,0.46,0.13,1.14,0.23,1.5c-2.58,0.7-3.65,1.03-4.18,1.23c0.7,0.06,1.5,0.08,2.32,0.08
			c2.19,0,5.59-0.19,7.68-0.49c-0.25,0.61-0.63,1.71-0.65,2.32c-1.58,0.09-4.92,0.23-7.14,0.23c-2.51,0-4.12-0.21-5.49-1.01
			c-0.78-0.44-1.46-1.06-1.86-1.06c-0.44,0-1.1,1.29-1.58,2.38l-1.5-2.15c0.67-0.82,1.39-1.46,2.05-1.84
			c0.38-0.95,0.72-2.13,0.97-3.27h-2.34c0.46-1.14,0.97-2.64,1.42-4.12h-1.75v-2.01h4.5c-0.4,1.35-0.89,2.87-1.35,4.18h0.68
			l0.34-0.08l0.95,0.34c-0.19,1.01-0.44,2.07-0.74,3.04c1.58-0.27,3.21-0.74,4.54-1.35h-2.83v-3.49h9.76v3.49h-0.4l1.06,0.68
			c-0.53,0.38-1.12,0.78-1.69,1.1c0.8,0.48,1.54,0.93,2.03,1.27l-1.1,1.39c-1.04-0.84-3.21-2.18-4.75-3.13l1.03-1.18l1.37,0.82
			c0.46-0.3,0.93-0.65,1.31-0.95h-3.1c-0.63,0.57-1.42,1.06-2.28,1.52v1.2L377.67,268.54z M367.87,259.77
			c-0.21-0.85-0.72-2.22-1.04-3.25l1.99-0.61c0.36,1.03,0.86,2.3,1.12,3.13L367.87,259.77z M373.32,268.79
			c-0.65,0.23-1.29,0.42-1.96,0.57c-0.25-0.44-0.74-1.1-1.12-1.48c-0.19,0.65-0.42,1.25-0.67,1.82c0.32,0.21,0.68,0.48,1.16,0.76
			c0.68,0.4,1.52,0.63,2.45,0.76c-0.11-0.42-0.36-0.91-0.55-1.18c0.34-0.13,0.68-0.38,0.68-1.1V268.79z M383.18,262.37h-12.73v-1.56
			h12.73V262.37z M382.3,260.22h-10.9v-3.82h10.9V260.22z M374.46,257.66h-1.16v1.31h1.16V257.66z M374.04,265.2h5.43v-0.99h-5.43
			V265.2z M377.38,257.66h-1.22v1.31h1.22V257.66z M380.29,257.66h-1.22v1.31h1.22V257.66z"/>
		<path d="M397.64,262.03c2.03,1.46,4.96,3.65,6.33,5.15l-1.92,1.73c-1.18-1.41-3.76-3.57-5.81-5.15v9.84h-2.47v-9.27
			c-1.73,1.84-3.76,3.5-6.04,4.67c-0.36-0.61-1.06-1.54-1.56-2.05c3.46-1.61,6.42-4.56,8.19-7.46h-7.58v-2.32h16.47v2.32h-5.91
			c-0.32,0.59-0.7,1.18-1.1,1.75v1.98L397.64,262.03z"/>
		<path d="M411.87,260.93c-0.65,2.83-1.67,6.36-3.25,8.45c-0.57-0.38-1.61-0.91-2.2-1.18c1.52-1.92,2.47-5.24,2.87-7.71
			L411.87,260.93z M416.71,256.16v14.65c0,1.39-0.32,2.01-1.16,2.37c-0.89,0.36-2.18,0.44-4.03,0.44c-0.13-0.66-0.55-1.73-0.89-2.36
			c1.24,0.06,2.64,0.06,3.06,0.04c0.42,0,0.57-0.13,0.57-0.49v-14.65H416.71z M421.01,260.28c1.54,2.7,3.1,6.14,3.57,8.51
			l-2.47,0.97c-0.38-2.3-1.82-5.87-3.32-8.64L421.01,260.28z"/>
		<path d="M430.75,262.84c-0.27,2.45-0.74,5.74-1.39,7.88l-2.28-0.91c0.67-2.01,1.22-4.86,1.46-7.39L430.75,262.84z M434.33,261.31
			v8.81c0,0.89,0.15,1.04,1.06,1.04h2.72c0.95,0,1.12-0.61,1.25-3.57c0.53,0.4,1.5,0.8,2.13,0.95c-0.27,3.61-0.87,4.73-3.21,4.73
			h-3.15c-2.47,0-3.15-0.76-3.15-3.15v-8.81H434.33z M434.16,256.2c1.71,1.08,4.12,2.75,5.26,3.93l-1.67,1.77
			c-1.03-1.16-3.36-2.96-5.13-4.16L434.16,256.2z M442.44,261.82c1.06,2.26,2.05,5.11,2.45,7.07l-2.3,0.95
			c-0.28-1.94-1.27-4.94-2.26-7.16L442.44,261.82z"/>
		<path d="M456.69,255.87h2.05v8.07c0,3.59-0.47,7.56-3.59,9.71c-0.3-0.48-1.01-1.27-1.48-1.63c1.81-1.01,2.53-2.77,2.81-4.67
			c-0.65,0.53-1.27,1.06-1.88,1.54l-1.22-2.07l0.04-0.02h-1.03v2.55c0.67-0.17,1.31-0.32,1.98-0.49l0.27,1.88
			c-2.38,0.66-4.9,1.35-6.86,1.86l-0.46-2.05l0.95-0.21v-6.14h1.56v5.78l0.76-0.19v-6.76h-2.28v-6.21h5.74v2.36l1.58-0.7
			c0.4,0.65,0.76,1.41,1.06,2.13V255.87z M450.13,261.15h2.01v-2.47h-2.01V261.15z M454.16,266.42c0.74-0.4,1.62-0.87,2.51-1.41
			c0.02-0.36,0.02-0.72,0.02-1.06v-1.2l-1.29,0.57c-0.15-1.03-0.72-2.55-1.35-3.76v3.46h-1.65v1.8h1.77V266.42z M463.07,271.37
			c0.3,0,0.36-0.48,0.42-2.11c0.47,0.38,1.25,0.76,1.86,0.89c-0.21,2.3-0.74,3.21-2.11,3.21h-1.46c-1.62,0-2.07-0.63-2.07-2.96
			v-14.53h2.11v5.57c0.47-1.03,0.93-2.2,1.22-3.15l2.11,1.01c-0.78,1.37-1.58,2.98-2.26,4.01l-1.06-0.59v1.9l0.38-0.38
			c1.03,0.82,2.47,2.01,3.17,2.81l-1.48,1.6c-0.46-0.57-1.25-1.37-2.07-2.11v3.89c0,0.84,0.06,0.95,0.38,0.95H463.07z"/>
		<path d="M473.79,270.58c1.01,0.34,2.28,0.42,3.8,0.42c1.44,0.02,6.48,0.02,8.19-0.08c-0.34,0.53-0.72,1.56-0.85,2.24h-7.33
			c-3.51,0-5.78-0.47-7.28-2.6c-0.19,1.29-0.47,2.41-0.87,3.34c-0.42-0.27-1.42-0.76-1.9-0.97c0.93-1.92,1.12-5.09,1.16-8.34
			l2.07,0.15c-0.02,0.84-0.06,1.67-0.09,2.45c0.27,0.83,0.63,1.5,1.04,2.01v-5.72h-3.69v-1.98h3.21v-1.77h-2.68v-1.96h2.68v-1.84
			h2.13v1.84h2.53v1.96h-2.53v1.77h2.98v1.98h-2.56v2.05h2.41v1.96h-2.41V270.58z M479.96,270.12c-2.13,0-2.81-0.65-2.81-3.06
			v-10.43h7.33v7.22h-5.15v3.21c0,0.87,0.11,1.03,0.91,1.03h2.45c0.72,0,0.85-0.44,0.97-2.45c0.47,0.36,1.37,0.72,1.98,0.87
			c-0.25,2.7-0.85,3.61-2.75,3.61H479.96z M479.34,258.61v3.29h2.98v-3.29H479.34z"/>
		<path d="M496.95,267.12c-1.14,3.61-3.72,5.66-6.84,6.69c-0.23-0.48-0.85-1.25-1.25-1.6c1.2-0.32,2.28-0.8,3.23-1.42
			c-0.34-0.42-0.87-0.95-1.37-1.41c-0.38,0.29-0.74,0.55-1.12,0.78c-0.3-0.34-0.97-1.03-1.35-1.35c1.48-0.76,2.87-1.96,3.63-3.36
			h-3.34v-1.77h2.96v-1.25h-1.96v-1.8h1.96v-1.37h2.11v1.37h1.16v-1.31h1.96v1.31h1.27v-1.31h1.96v1.31h1.22v-1.39h2.17v1.39h1.82
			v1.8h-1.82v1.25h2.49v1.77h-13.17l1.1,0.3c-0.15,0.28-0.32,0.57-0.49,0.85h2.15l0.32-0.06L496.95,267.12z M492.03,258.7
			c-0.61,0.59-1.29,1.12-2.03,1.63c-0.38-0.46-1.1-1.04-1.62-1.31c1.6-0.93,2.79-2.13,3.48-3.17l2.17,0.42
			c-0.17,0.27-0.34,0.51-0.53,0.76h11.21v1.67H492.03z M492.12,268.09l-0.19,0.19c0.53,0.44,1.08,0.93,1.5,1.37
			c0.44-0.48,0.8-0.97,1.1-1.56H492.12z M493.61,263.68h1.16v-1.25h-1.16V263.68z M505.94,271.58h-3v2.01h-2.15v-2.01h-2.34
			l-2.05,0.02c0.36-0.89,0.74-2.11,1.1-3.27h-0.51v-1.73h3.8v-0.93h2.15v0.93h2.64v1.73h-2.64v1.56h3V271.58z M496.72,262.43v1.25
			h1.27v-1.25H496.72z M500.79,269.89v-1.56h-1.23c-0.17,0.53-0.34,1.04-0.51,1.56H500.79z M499.95,262.43v1.25h1.22v-1.25H499.95z"
			/>
		<path d="M524.44,267.08c-0.53-0.59-1.5-1.42-2.45-2.2c-0.38,0.63-0.8,1.18-1.27,1.63c-0.32-0.27-0.95-0.68-1.48-0.97
			c1.69,2.24,4.41,4.25,7.26,5.3c-0.55,0.47-1.29,1.44-1.67,2.07c-2.3-1.06-4.45-2.77-6.16-4.81v5.53h-2.37v-5.41
			c-1.71,1.99-3.84,3.65-6.1,4.69c-0.36-0.55-1.1-1.46-1.6-1.94c3.08-1.2,6.04-3.55,7.69-6.12v-4.39h-6.92v-2.22h6.92v-2.34h2.37
			v2.34h7.16v2.22h-7.16v4.25c0.1,0.15,0.19,0.29,0.29,0.44c1.22-1.08,2.01-2.77,2.39-4.58l2.2,0.4c-0.17,0.7-0.38,1.39-0.63,2.03
			c1.08,0.84,2.39,1.84,3.1,2.49L524.44,267.08z M514.66,261c-0.19,0.7-0.42,1.39-0.68,2.05c0.68,0.59,1.41,1.22,1.84,1.67
			l-1.52,1.58c-0.29-0.36-0.76-0.84-1.27-1.33c-0.63,1.03-1.35,1.92-2.18,2.6c-0.36-0.4-1.25-1.14-1.75-1.48
			c1.67-1.2,2.83-3.19,3.36-5.51L514.66,261z"/>
		<path d="M533.28,261.71c1.71,0,3.08,1.39,3.08,3.08s-1.37,3.08-3.08,3.08c-1.69,0-3.08-1.39-3.08-3.08
			S531.59,261.71,533.28,261.71z M533.28,266.49c0.95,0,1.71-0.76,1.71-1.71s-0.76-1.71-1.71-1.71c-0.93,0-1.71,0.76-1.71,1.71
			S532.35,266.49,533.28,266.49z"/>
	</g>
</g>
</svg>
