<?xml version="1.0" encoding="utf-8"?>
<!-- Generator: Adobe Illustrator 26.3.1, SVG Export Plug-In . SVG Version: 6.00 Build 0)  -->
<svg version="1.1" xmlns="http://www.w3.org/2000/svg" xmlns:xlink="http://www.w3.org/1999/xlink" x="0px" y="0px"
	 viewBox="0 0 41.5 32.38" style="enable-background:new 0 0 41.5 32.38;" xml:space="preserve">
<style type="text/css">
	.st0{fill:#FFFFFF;}
</style>
<g id="圖層_2">
	<path class="st0" d="M6.54,1.5C3.77,1.5,1.5,3.77,1.5,6.54v19.3c0,2.77,2.27,5.04,5.04,5.04h28.42c2.77,0,5.04-2.27,5.04-5.04V6.54
		c0-2.77-2.27-5.04-5.04-5.04H6.54z"/>
</g>
<g id="圖層_1">
	<g>
		<path d="M34.96,0.75H6.75H6.54c-3.2,0.01-5.78,2.59-5.79,5.79v19.3c0.01,3.2,2.59,5.78,5.79,5.79h28.42
			c3.2-0.01,5.78-2.59,5.79-5.79V6.54C40.74,3.34,38.16,0.76,34.96,0.75z M34.96,2.75c0.56,0.02,1.12,0.16,1.62,0.42
			c-3.75,4-12.01,12-15.83,12s-12.06-8-15.82-12C5.5,2.9,6.12,2.76,6.75,2.75H34.96z M38.75,25.84c0,2.09-1.7,3.79-3.79,3.79H6.54
			c-2.09,0-3.79-1.7-3.79-3.79V6.54c0-0.78,0.24-1.5,0.63-2.1c2.88,3.1,12.26,12.75,17.37,12.75c5.12,0,14.51-9.68,17.36-12.76
			c0.41,0.6,0.64,1.33,0.64,2.11V25.84z"/>
		<path d="M34.96,32.38H6.54c-3.6-0.01-6.53-2.94-6.54-6.54V6.54C0.01,2.94,2.94,0.01,6.54,0h28.42c3.6,0.01,6.53,2.94,6.54,6.54
			v19.3C41.49,29.44,38.56,32.37,34.96,32.38z M6.54,1.5C3.77,1.5,1.5,3.77,1.5,6.54v19.3c0,2.77,2.27,5.04,5.04,5.04h28.42
			c2.77,0,5.04-2.27,5.04-5.04V6.54c0-2.77-2.27-5.04-5.04-5.04H6.54z M34.96,30.38H6.54c-2.5,0-4.54-2.04-4.54-4.54V6.54
			c0-0.9,0.26-1.76,0.76-2.51l0.53-0.79l0.65,0.7c5.62,6.05,12.99,12.51,16.82,12.51c3.88,0,11.23-6.47,16.81-12.52l0.64-0.7
			l0.53,0.79c0.5,0.75,0.77,1.62,0.77,2.53v19.3C39.5,28.34,37.46,30.38,34.96,30.38z M3.6,5.77C3.53,6.02,3.5,6.28,3.5,6.54v19.3
			c0,1.68,1.36,3.04,3.04,3.04h28.42c1.68,0,3.04-1.36,3.04-3.04V6.54c0-0.27-0.04-0.53-0.1-0.79c-3.5,3.7-12.08,12.19-17.15,12.19
			C15.81,17.94,7.61,9.99,3.6,5.77z M20.75,15.92c-4.51,0-13.67-9.37-16.37-12.24l-0.7-0.75l0.93-0.44C5.27,2.18,6.01,2.01,6.74,2
			h28.24c0.67,0.02,1.35,0.19,1.94,0.5l0.88,0.46l-0.68,0.72C35.21,5.73,25.42,15.92,20.75,15.92z M6.31,3.53
			c5.35,5.55,11.67,10.89,14.44,10.89c2.79,0,9.13-5.34,14.46-10.9c-0.09-0.01-0.18-0.02-0.26-0.02H6.75
			C6.6,3.5,6.46,3.51,6.31,3.53z"/>
	</g>
</g>
</svg>
