<?xml version="1.0" encoding="utf-8"?>
<!-- Generator: Adobe Illustrator 26.2.1, SVG Export Plug-In . SVG Version: 6.00 Build 0)  -->
<svg version="1.1" xmlns="http://www.w3.org/2000/svg" xmlns:xlink="http://www.w3.org/1999/xlink" x="0px" y="0px"
	 viewBox="0 0 121.53 136" style="enable-background:new 0 0 121.53 136;" xml:space="preserve">
<style type="text/css">
	.st0{fill:#FFFFFF;}
	.st1{fill:#FFC331;}
	.st2{fill:#FFC331;stroke:#000000;stroke-width:0.75;stroke-miterlimit:10;}
	.st3{fill:#FFD631;}
	.st4{fill:#FFF2BF;}
	.st5{fill:#F1D457;}
	.st6{fill:none;stroke:#000000;stroke-miterlimit:10;}
	.st7{fill:none;stroke:#000000;stroke-width:2;stroke-miterlimit:10;}
	.st8{fill:none;stroke:#000000;stroke-width:2.5;stroke-linecap:round;stroke-miterlimit:10;}
	.st9{fill:none;stroke:#000000;stroke-width:2;stroke-linecap:round;stroke-miterlimit:10;}
	.st10{fill:none;stroke:#000000;stroke-width:2.5;stroke-linecap:round;stroke-linejoin:round;stroke-miterlimit:10;}
	.st11{fill:none;stroke:#000000;stroke-width:2;stroke-linecap:round;stroke-linejoin:round;stroke-miterlimit:10;}
	.st12{stroke:#000000;stroke-width:2;stroke-linecap:round;stroke-linejoin:round;stroke-miterlimit:10;}
	.st13{fill:#FFFFFF;stroke:#000000;stroke-width:2;stroke-linecap:round;stroke-linejoin:round;stroke-miterlimit:10;}
	.st14{fill:none;stroke:#000000;stroke-width:1.5;stroke-linecap:round;stroke-linejoin:round;stroke-miterlimit:10;}
	.st15{fill:none;stroke:#FFFFFF;stroke-width:2;stroke-miterlimit:10;}
	.st16{fill:none;stroke:#FFFFFF;stroke-width:2;stroke-linecap:round;stroke-linejoin:round;stroke-miterlimit:10;}
	.st17{fill:none;stroke:#FFFFFF;stroke-width:2;stroke-linecap:round;stroke-miterlimit:10;}
	.st18{fill:none;stroke:#000000;stroke-width:2.5;stroke-miterlimit:10;}
	
		.st19{fill:none;stroke:#000000;stroke-width:2.5;stroke-linecap:round;stroke-linejoin:round;stroke-miterlimit:10;stroke-dasharray:15,20;}
	.st20{fill:none;stroke:#808080;stroke-width:2;stroke-miterlimit:10;}
	.st21{opacity:0.7;}
	.st22{fill:none;stroke:#000000;stroke-width:3;stroke-miterlimit:10;}
	.st23{fill:#221714;}
	.st24{fill:none;stroke:#221714;stroke-width:2;stroke-miterlimit:10;}
	.st25{opacity:0.5;fill:#FFC331;}
	.st26{fill-rule:evenodd;clip-rule:evenodd;fill:none;stroke:#000000;stroke-miterlimit:10;}
</style>
<g id="bg">
</g>
<g id="yellow">
</g>
<g id="diary_視覺">
</g>
<g id="Line_and_font">
	<g>
		<g>
			<g>
				<path class="st0" d="M119.53,20.06v-1.89l0,0v-1.88c-2.86,0-5.19-2.32-5.19-5.19c0-2.7,2.06-4.92,4.69-5.16
					c0.28-0.03,0.49-0.26,0.49-0.54V2.83c0-0.46-0.37-0.83-0.83-0.83h-3.08c-0.18,0-0.32,0.14-0.33,0.31
					c-0.16,2.72-2.42,4.88-5.18,4.88c-2.86,0-5.19-2.32-5.19-5.19h-1.88h0h-1.88c0,2.86-2.32,5.19-5.19,5.19
					c-2.86,0-5.19-2.32-5.19-5.19h-1.88h-1.88c0,2.86-2.32,5.19-5.19,5.19c-2.86,0-5.19-2.32-5.19-5.19h-1.88h-1.89
					c0,2.86-2.32,5.19-5.19,5.19c-2.87,0-5.19-2.32-5.19-5.19H60.6h-1.88c0,2.86-2.32,5.19-5.19,5.19c-2.86,0-5.19-2.32-5.19-5.19
					h-1.88h-1.88c0,2.86-2.32,5.19-5.19,5.19c-2.86,0-5.19-2.32-5.19-5.19h-1.88h-1.88c0,2.86-2.32,5.19-5.19,5.19
					c-2.87,0-5.19-2.32-5.19-5.19h-1.88h-1.89c0,2.86-2.32,5.19-5.19,5.19c-2.7,0-4.91-2.06-5.16-4.69C5.91,2.21,5.67,2,5.39,2H2.83
					C2.37,2,2,2.37,2,2.83v3.08c0,0.17,0.14,0.32,0.31,0.33c2.72,0.16,4.88,2.42,4.88,5.18c0,2.87-2.32,5.19-5.19,5.19v1.89v1.88
					c2.86,0,5.19,2.32,5.19,5.19c0,2.86-2.32,5.19-5.19,5.19v1.88v0.33v1.88c2.86,0,5.19,2.32,5.19,5.19c0,2.87-2.32,5.19-5.19,5.19
					v1.88v1.89c2.86,0,5.19,2.32,5.19,5.19c0,2.86-2.32,5.19-5.19,5.19v1.89v1.88c2.86,0,5.19,2.32,5.19,5.19
					c0,2.87-2.32,5.19-5.19,5.19v1.88v1.89c2.86,0,5.19,2.32,5.19,5.19c0,2.86-2.32,5.19-5.19,5.19v1.88v1.89
					c2.86,0,5.19,2.32,5.19,5.19c0,2.87-2.32,5.19-5.19,5.19v1.89v1.88c2.86,0,5.19,2.32,5.19,5.19c0,2.87-2.32,5.19-5.19,5.19v1.88
					v1.89c2.86,0,5.19,2.32,5.19,5.19c0,2.7-2.06,4.91-4.69,5.16C2.21,130.09,2,130.33,2,130.61v2.56c0,0.46,0.37,0.83,0.83,0.83
					h3.08c0.18,0,0.32-0.14,0.33-0.31c0.16-2.72,2.42-4.88,5.18-4.88c2.86,0,5.19,2.32,5.19,5.19h1.88h0l0,0h1.89
					c0-2.86,2.32-5.19,5.19-5.19c2.86,0,5.19,2.32,5.19,5.19h1.88h1.88c0-2.86,2.32-5.19,5.19-5.19c2.86,0,5.19,2.32,5.19,5.19h1.88
					h1.88c0-2.86,2.32-5.19,5.19-5.19c2.86,0,5.19,2.32,5.19,5.19h1.88h1.88c0-2.86,2.32-5.19,5.19-5.19c2.87,0,5.19,2.32,5.19,5.19
					h1.88h1.89c0-2.86,2.32-5.19,5.19-5.19c2.86,0,5.19,2.32,5.19,5.19h1.56l0,0h0.33h1.88c0-2.86,2.32-5.19,5.19-5.19
					s5.19,2.32,5.19,5.19h1.88h1.88c0-2.86,2.32-5.19,5.19-5.19c2.7,0,4.92,2.06,5.16,4.69c0.03,0.28,0.26,0.49,0.54,0.49h2.56
					c0.46,0,0.83-0.37,0.83-0.83v-3.08c0-0.18-0.14-0.32-0.31-0.33c-2.72-0.16-4.88-2.42-4.88-5.18c0-2.87,2.32-5.19,5.19-5.19
					v-1.88v-1.89c-2.86,0-5.19-2.32-5.19-5.19c0-2.86,2.32-5.19,5.19-5.19v-1.89v-1.88c-2.86,0-5.19-2.32-5.19-5.19
					c0-2.87,2.32-5.19,5.19-5.19v-1.89v-1.88c-2.86,0-5.19-2.32-5.19-5.19c0-2.86,2.32-5.19,5.19-5.19v-1.88v-1.89
					c-2.86,0-5.19-2.32-5.19-5.19c0-2.87,2.32-5.19,5.19-5.19v-1.89v-1.88c-2.86,0-5.19-2.32-5.19-5.19c0-2.87,2.32-5.19,5.19-5.19
					v-1.88V44.9c-2.86,0-5.19-2.32-5.19-5.19c0-2.86,2.32-5.19,5.19-5.19v-1.89v-0.32v-1.89c-2.86,0-5.19-2.32-5.19-5.19
					C114.35,22.38,116.67,20.06,119.53,20.06z"/>
				<path d="M118.7,2c0.46,0,0.83,0.37,0.83,0.83v2.56c0,0.28-0.21,0.52-0.49,0.54c-2.63,0.25-4.69,2.47-4.69,5.16
					c0,2.86,2.32,5.19,5.19,5.19v1.88v1.89c-2.86,0-5.19,2.32-5.19,5.19c0,2.87,2.32,5.19,5.19,5.19v1.89v0.32v1.89
					c-2.86,0-5.19,2.32-5.19,5.19c0,2.87,2.32,5.19,5.19,5.19v1.89v1.88c-2.86,0-5.19,2.32-5.19,5.19c0,2.86,2.32,5.19,5.19,5.19
					v1.88v1.89c-2.86,0-5.19,2.32-5.19,5.19c0,2.86,2.32,5.19,5.19,5.19v1.89v1.88c-2.86,0-5.19,2.32-5.19,5.19
					c0,2.87,2.32,5.19,5.19,5.19v1.88v1.89c-2.86,0-5.19,2.32-5.19,5.19c0,2.86,2.32,5.19,5.19,5.19v1.88v1.89
					c-2.86,0-5.19,2.32-5.19,5.19c0,2.87,2.32,5.19,5.19,5.19v1.89v1.88c-2.86,0-5.19,2.32-5.19,5.19c0,2.76,2.16,5.02,4.88,5.18
					c0.18,0.01,0.31,0.16,0.31,0.33v3.08c0,0.46-0.37,0.83-0.83,0.83h-2.56c-0.28,0-0.52-0.21-0.54-0.49
					c-0.25-2.63-2.47-4.69-5.16-4.69c-2.86,0-5.19,2.32-5.19,5.19h-1.88h-1.88c0-2.86-2.32-5.19-5.19-5.19
					c-2.86,0-5.19,2.32-5.19,5.19h-1.88h-0.33h-1.56c0-2.86-2.32-5.19-5.19-5.19c-2.87,0-5.19,2.32-5.19,5.19h-1.89h-1.88
					c0-2.86-2.32-5.19-5.19-5.19c-2.86,0-5.19,2.32-5.19,5.19h-1.88h-1.88c0-2.86-2.32-5.19-5.19-5.19c-2.86,0-5.19,2.32-5.19,5.19
					h-1.88H44.9c0-2.86-2.32-5.19-5.19-5.19c-2.86,0-5.19,2.32-5.19,5.19h-1.88h-1.88c0-2.86-2.32-5.19-5.19-5.19
					c-2.87,0-5.19,2.32-5.19,5.19H18.5h0h-1.88c0-2.86-2.32-5.19-5.19-5.19c-2.76,0-5.02,2.16-5.18,4.88
					C6.24,133.86,6.09,134,5.92,134H2.83C2.37,134,2,133.63,2,133.17v-2.56c0-0.28,0.21-0.52,0.49-0.54
					c2.63-0.25,4.69-2.47,4.69-5.16c0-2.86-2.32-5.19-5.19-5.19v-1.89v-1.88c2.86,0,5.19-2.32,5.19-5.19c0-2.87-2.32-5.19-5.19-5.19
					v-1.88v-1.89c2.86,0,5.19-2.32,5.19-5.19c0-2.86-2.32-5.19-5.19-5.19v-1.89v-1.88c2.86,0,5.19-2.32,5.19-5.19
					c0-2.86-2.32-5.19-5.19-5.19V75.4v-1.88c2.86,0,5.19-2.32,5.19-5.19c0-2.86-2.32-5.19-5.19-5.19v-1.88v-1.89
					c2.86,0,5.19-2.32,5.19-5.19c0-2.87-2.32-5.19-5.19-5.19v-1.89v-1.88c2.86,0,5.19-2.32,5.19-5.19c0-2.86-2.32-5.19-5.19-5.19
					v-1.88v-0.33v-1.88c2.86,0,5.19-2.32,5.19-5.19c0-2.87-2.32-5.19-5.19-5.19V18.5v-1.89c2.86,0,5.19-2.32,5.19-5.19
					c0-2.76-2.16-5.02-4.88-5.18C2.14,6.24,2,6.09,2,5.92V2.83C2,2.37,2.37,2,2.83,2h2.56c0.28,0,0.52,0.21,0.54,0.49
					C6.18,5.13,8.4,7.19,11.1,7.19c2.87,0,5.19-2.32,5.19-5.19h1.89h1.88c0,2.86,2.32,5.19,5.19,5.19c2.86,0,5.19-2.32,5.19-5.19
					h1.88h1.88c0,2.86,2.32,5.19,5.19,5.19c2.86,0,5.19-2.32,5.19-5.19h1.88h1.88c0,2.86,2.32,5.19,5.19,5.19
					c2.87,0,5.19-2.32,5.19-5.19h1.88h1.89c0,2.86,2.32,5.19,5.19,5.19c2.86,0,5.19-2.32,5.19-5.19h1.89h1.88
					c0,2.86,2.32,5.19,5.19,5.19c2.86,0,5.19-2.32,5.19-5.19h1.88h1.88c0,2.86,2.32,5.19,5.19,5.19c2.86,0,5.19-2.32,5.19-5.19h1.88
					h0h1.88c0,2.86,2.32,5.19,5.19,5.19c2.76,0,5.02-2.16,5.18-4.88C115.3,2.14,115.44,2,115.62,2H118.7 M118.7,0h-3.08
					c-1.23,0-2.25,0.96-2.33,2.19c-0.1,1.68-1.5,3-3.18,3c-1.76,0-3.19-1.43-3.19-3.19V0h-2h-1.88h-1.89h-2v2
					c0,1.76-1.43,3.19-3.19,3.19c-1.76,0-3.19-1.43-3.19-3.19V0h-2h-1.88h-1.88h-2v2c0,1.76-1.43,3.19-3.19,3.19
					c-1.76,0-3.19-1.43-3.19-3.19V0h-2h-1.88h-1.89h-2v2c0,1.76-1.43,3.19-3.19,3.19c-1.76,0-3.19-1.43-3.19-3.19V0h-2H60.6h-1.88
					h-2v2c0,1.76-1.43,3.19-3.19,3.19c-1.76,0-3.19-1.43-3.19-3.19V0h-2h-1.88h-1.88h-2v2c0,1.76-1.43,3.19-3.19,3.19
					c-1.76,0-3.19-1.43-3.19-3.19V0h-2h-1.88h-1.88h-2v2c0,1.76-1.43,3.19-3.19,3.19c-1.76,0-3.19-1.43-3.19-3.19V0h-2h-1.88h-1.89
					h-2v2c0,1.76-1.43,3.19-3.19,3.19c-1.65,0-3.02-1.24-3.17-2.88C7.8,0.99,6.71,0,5.39,0H2.83C1.27,0,0,1.27,0,2.83v3.08
					c0,1.23,0.96,2.25,2.19,2.33c1.68,0.1,3,1.5,3,3.18c0,1.76-1.43,3.19-3.19,3.19H0v2v1.89v1.88v2h2c1.76,0,3.19,1.43,3.19,3.19
					S3.76,28.76,2,28.76H0v2v1.88v0.33v1.88v2h2c1.76,0,3.19,1.43,3.19,3.19S3.76,43.22,2,43.22H0v2v1.88v1.89v2h2
					c1.76,0,3.19,1.43,3.19,3.19c0,1.76-1.43,3.19-3.19,3.19H0v2v1.89v1.88v2h2c1.76,0,3.19,1.43,3.19,3.19S3.76,71.51,2,71.51H0v2
					v1.88v1.89v2h2c1.76,0,3.19,1.43,3.19,3.19S3.76,85.66,2,85.66H0v2v1.88v1.89v2h2c1.76,0,3.19,1.43,3.19,3.19
					c0,1.76-1.43,3.19-3.19,3.19H0v2v1.89v1.88v2h2c1.76,0,3.19,1.43,3.19,3.19s-1.43,3.19-3.19,3.19H0v2v1.88v1.89v2h2
					c1.76,0,3.19,1.43,3.19,3.19c0,1.65-1.24,3.02-2.88,3.17C0.99,128.2,0,129.29,0,130.61v2.56c0,1.56,1.27,2.83,2.83,2.83h3.08
					c1.24,0,2.26-0.97,2.33-2.21c0.1-1.67,1.5-2.98,3.18-2.98c1.76,0,3.19,1.43,3.19,3.19v2h2h1.88h1.89h2v-2
					c0-1.76,1.43-3.19,3.19-3.19c1.76,0,3.19,1.43,3.19,3.19v2h2h1.88h1.88h2v-2c0-1.76,1.43-3.19,3.19-3.19s3.19,1.43,3.19,3.19v2
					h2h1.88h1.88h2v-2c0-1.76,1.43-3.19,3.19-3.19c1.76,0,3.19,1.43,3.19,3.19v2h2h1.88h1.88h2v-2c0-1.76,1.43-3.19,3.19-3.19
					c1.76,0,3.19,1.43,3.19,3.19v2h2h1.88h1.89h2v-2c0-1.76,1.43-3.19,3.19-3.19c1.76,0,3.19,1.43,3.19,3.19v2h2h1.56h0.33h1.88h2
					v-2c0-1.76,1.43-3.19,3.19-3.19c1.76,0,3.19,1.43,3.19,3.19v2h2h1.88h1.88h2v-2c0-1.76,1.43-3.19,3.19-3.19
					c1.65,0,3.02,1.24,3.17,2.88c0.12,1.31,1.21,2.31,2.54,2.31h2.56c1.56,0,2.83-1.27,2.83-2.83v-3.08c0-1.23-0.96-2.25-2.19-2.33
					c-1.68-0.1-3-1.5-3-3.18c0-1.76,1.43-3.19,3.19-3.19h2v-2v-1.88v-1.89v-2h-2c-1.76,0-3.19-1.43-3.19-3.19
					c0-1.76,1.43-3.19,3.19-3.19h2v-2v-1.89v-1.88v-2h-2c-1.76,0-3.19-1.43-3.19-3.19s1.43-3.19,3.19-3.19h2v-2v-1.89v-1.88v-2h-2
					c-1.76,0-3.19-1.43-3.19-3.19s1.43-3.19,3.19-3.19h2v-2v-1.88v-1.89v-2h-2c-1.76,0-3.19-1.43-3.19-3.19
					c0-1.76,1.43-3.19,3.19-3.19h2v-2v-1.89v-1.88v-2h-2c-1.76,0-3.19-1.43-3.19-3.19s1.43-3.19,3.19-3.19h2v-2v-1.88V44.9v-2h-2
					c-1.76,0-3.19-1.43-3.19-3.19c0-1.76,1.43-3.19,3.19-3.19h2v-2v-1.89v-0.32v-1.89v-2h-2c-1.76,0-3.19-1.43-3.19-3.19
					c0-1.76,1.43-3.19,3.19-3.19h2v-2v-1.89v-1.88v-2h-2c-1.76,0-3.19-1.43-3.19-3.19c0-1.65,1.24-3.02,2.88-3.17
					c1.31-0.12,2.31-1.21,2.31-2.54V2.83C121.53,1.27,120.26,0,118.7,0L118.7,0z"/>
			</g>
		</g>
		<g>
			<g>
				<path d="M30.88,21.82h-9.72v-3.59h14.36v2.6c-5.02,6.13-5.69,10.54-6.04,19h-4.35C25.51,32.33,26.76,27.54,30.88,21.82z"/>
			</g>
		</g>
		<g>
			<g>
				<path d="M40.98,23.87c0-4.02,1.57-5.99,3.95-5.99c2.36,0,3.93,1.98,3.93,5.99s-1.57,6.08-3.93,6.08
					C42.55,29.95,40.98,27.87,40.98,23.87z M46.67,23.87c0-3.25-0.75-4.2-1.74-4.2c-1.01,0-1.76,0.94-1.76,4.2
					c0,3.27,0.75,4.28,1.76,4.28C45.91,28.14,46.67,27.13,46.67,23.87z"/>
				<path d="M50.39,23.87c0-4.02,1.57-5.99,3.95-5.99c2.36,0,3.93,1.98,3.93,5.99s-1.57,6.08-3.93,6.08
					C51.96,29.95,50.39,27.87,50.39,23.87z M56.08,23.87c0-3.25-0.75-4.2-1.74-4.2c-1.01,0-1.76,0.94-1.76,4.2
					c0,3.27,0.75,4.28,1.76,4.28C55.33,28.14,56.08,27.13,56.08,23.87z"/>
			</g>
		</g>
		<g>
			<g>
				<path d="M70.48,37.43c-0.07,2.19,0.45,4.34,0.38,6.53c-0.02,0.79,0.74,1.21,1.42,1.08c6.6-1.18,13.2-2.35,19.8-3.53
					c0.64-0.11,0.87-0.83,0.79-1.38c-0.19-1.18-0.37-2.36-0.56-3.55c-0.14-0.9-0.11-2.23-0.72-2.97c-0.59-0.72-1.47-0.7-2.3-0.49
					c-1.17,0.3-2.31,0.7-3.47,1.02c-4.62,1.25-9.34,2.08-14.14,2.03c-1.45-0.02-1.45,2.23,0,2.25c4.16,0.04,8.3-0.54,12.34-1.5
					c0.99-0.23,1.97-0.49,2.95-0.76c0.89-0.25,2.12-0.4,2.92-0.87c0.47-0.27-0.14-0.01-0.07-0.17c-0.06,0.14,0.09,0.59,0.12,0.75
					c0.09,0.56,0.18,1.12,0.27,1.68c0.17,1.06,0.33,2.11,0.5,3.17c0.26-0.46,0.52-0.92,0.79-1.38c-6.6,1.18-13.2,2.35-19.8,3.53
					c0.47,0.36,0.95,0.72,1.42,1.08c0.07-2.19-0.45-4.34-0.38-6.53C72.78,35.98,70.53,35.98,70.48,37.43L70.48,37.43z"/>
				<path d="M80.98,54.91c1.14-0.08,2.28-0.15,3.41-0.23c0.47-0.03,1,0,1.46-0.1c0.45-0.09,0.09,0.14,0.03-0.05
					c0.07,0.23,0.11,0.48,0.16,0.72c0.33,1.68,0.36,3.44,0.14,5.13c-0.45,3.46-1.96,6.74-4.01,9.54
					c-4.59,6.24-11.91,9.41-19.4,10.52c-4.52,0.67-9.14,0.6-13.69,0.21c-1.44-0.12-1.43,2.13,0,2.25
					c8.95,0.75,18.44,0.16,26.46-4.27c6.87-3.8,12.21-10.86,12.95-18.79c0.18-1.93,0.25-4.6-0.6-6.39c-0.45-0.95-1.29-1.16-2.27-1.1
					c-1.55,0.09-3.09,0.21-4.63,0.31C79.54,52.75,79.53,55,80.98,54.91L80.98,54.91z"/>
				<path d="M48.79,82.36c0.18,1.87,1.53,3.15,2.97,4.21c1.64,1.2,3.53,2.35,5.49,2.95c4.72,1.44,10.59,0.87,15.09-1.02
					c4.27-1.8,8.19-4.55,11.39-7.91c3.03-3.18,6-7.26,6.97-11.62c1.14-5.1-0.05-10.59-2.63-15.07c-0.72-1.25-2.67-0.12-1.94,1.14
					c2.01,3.47,3.04,7.54,2.68,11.56c-0.36,3.97-2.63,7.64-5.13,10.66c-2.59,3.13-5.74,5.77-9.29,7.75
					c-3.92,2.19-8.07,3.14-12.56,2.95c-2.52-0.1-4.64-0.69-6.81-1.95c-1.23-0.72-3.83-1.99-3.98-3.63
					C50.91,80.93,48.66,80.92,48.79,82.36L48.79,82.36z"/>
				<path d="M48.66,82.37c3.91-1.36,7.84-2.67,11.73-4.11c3.35-1.24,6.64-2.69,9.44-4.94c2.83-2.28,4.9-5.33,6.7-8.45
					c2.01-3.49,3.88-7.06,5.74-10.63c0.67-1.28-1.27-2.42-1.94-1.14c-1.77,3.38-3.55,6.76-5.43,10.08
					c-1.72,3.03-3.62,6.04-6.33,8.29c-2.67,2.22-5.94,3.59-9.18,4.77c-3.76,1.37-7.55,2.65-11.33,3.96
					C46.7,80.67,47.28,82.85,48.66,82.37L48.66,82.37z"/>
				<path d="M79.85,42.91c0,3.18,0,6.35,0,9.53c0,1.45,2.25,1.45,2.25,0c0-3.18,0-6.35,0-9.53C82.1,41.46,79.85,41.45,79.85,42.91
					L79.85,42.91z"/>
				<path d="M84.43,43.63c0.12,1.53,0.5,3.01,0.86,4.5c0.34,1.44,0.67,2.74,0.62,4.18c-0.02,0.61,0.53,1.12,1.12,1.12
					c0.63,0,1.1-0.52,1.12-1.12c0.1-2.95-1.26-5.93-1.47-8.68c-0.05-0.61-0.48-1.12-1.12-1.12C84.98,42.5,84.38,43.02,84.43,43.63
					L84.43,43.63z"/>
			</g>
			<path d="M19.7,101.04c-0.01,5.29-0.01,10.58-0.02,15.87c0,1.27,1.87,1.53,2.21,0.3c0.41-1.45,0.11-2.98,0.49-4.41
				c0.28-1.08,1.13-1.97,2.16-1.04c0.88,0.81,1.09,2.26,0.68,3.35c-0.39,1.02-1.6,1.83-2.68,1.3c-1.3-0.63-2.44,1.31-1.14,1.94
				c1.98,0.96,4.35,0.25,5.51-1.62c1.11-1.8,0.97-4.33-0.31-6.01c-1.29-1.7-3.71-2.3-5.29-0.6c-1.73,1.86-0.97,4.28-1.59,6.49
				c0.74,0.1,1.47,0.2,2.21,0.3c0.01-5.29,0.01-10.58,0.02-15.87C21.95,99.59,19.7,99.59,19.7,101.04L19.7,101.04z"/>
			<path d="M32.9,110.42c0.7-0.99,2.33-1.2,3.32-0.54c1.35,0.92,1.37,3.09,1.12,4.52c-0.15,0.85-0.45,1.77-1.15,2.32
				c-0.48,0.38-1.32,0.67-1.84,0.21c-0.35-0.3-0.55-0.89-0.12-1.19c0.63-0.45,1.73-0.26,2.44-0.23c2.8,0.11,5.6,0.22,8.4,0.33
				c1.45,0.06,1.45-2.19,0-2.25c-1.75-0.07-3.5-0.14-5.25-0.2c-1.52-0.06-3.08-0.23-4.6-0.14c-1.37,0.08-2.79,0.59-3.31,1.98
				c-0.43,1.14-0.01,2.48,0.85,3.31c1,0.97,2.51,1.09,3.76,0.57c1.35-0.56,2.24-1.71,2.72-3.06c0.84-2.36,0.72-5.86-1.28-7.63
				c-2.09-1.85-5.42-1.35-7,0.88c-0.35,0.5-0.09,1.25,0.4,1.54C31.92,111.15,32.55,110.92,32.9,110.42L32.9,110.42z"/>
			<path d="M48.65,106.49c-0.31,3.83-0.33,7.67-0.06,11.5c0.04,0.61,0.49,1.12,1.12,1.12c0.58,0,1.17-0.52,1.12-1.12
				c-0.27-3.83-0.25-7.67,0.06-11.5c0.05-0.61-0.55-1.12-1.12-1.12C49.12,105.36,48.7,105.88,48.65,106.49L48.65,106.49z"/>
			<path d="M50.66,111.23c0.67-0.53,1.43-1.14,2.31-1.27c-0.19,0.03,0.14,0,0.17,0c0.12,0,0.23,0,0.35,0.01
				c-0.19-0.03,0.12,0.04,0.15,0.05c0.04,0.01,0.07,0.02,0.11,0.03c-0.08-0.04-0.08-0.04-0.01,0c0.04,0.02,0.28,0.17,0.22,0.13
				c-0.06-0.05,0.13,0.13,0.16,0.16c0.05,0.06,0.05,0.05-0.02-0.03c0.03,0.04,0.06,0.09,0.08,0.13c0.02,0.03,0.16,0.29,0.11,0.19
				c-0.05-0.12,0.05,0.13,0.06,0.16c0.03,0.1,0.06,0.21,0.09,0.31c0.03,0.11,0.05,0.21,0.07,0.32c0.01,0.05,0.05,0.33,0.03,0.13
				c0.06,0.49,0.08,0.99,0.12,1.48c0.08,1.16,0.16,2.31,0.23,3.47c0.04,0.59,0.49,1.15,1.12,1.12c0.58-0.03,1.17-0.5,1.12-1.12
				c-0.09-1.35-0.18-2.7-0.27-4.05c-0.08-1.13-0.17-2.37-0.85-3.32c-0.84-1.18-2.19-1.58-3.58-1.36c-1.3,0.21-2.36,1.06-3.36,1.86
				c-0.48,0.38-0.4,1.2,0,1.59C49.54,111.69,50.18,111.61,50.66,111.23L50.66,111.23z"/>
			<path d="M61.17,108.89c1.48-0.07,3.33-0.22,4.38,1.05c0.85,1.02,1.23,2.76,0.56,3.96c-0.3,0.52-0.82,0.91-1.42,1
				c-0.23,0.03-0.49,0.01-0.71-0.08c-0.2-0.09-0.29-0.21-0.37-0.33c-0.1-0.14-0.18-0.41-0.19-0.5c-0.03-0.28-0.01-0.4,0.08-0.56
				c0.23-0.39,1.03-0.41,1.56-0.41c2.33-0.01,4.66,0.03,6.98,0.05c1.45,0.01,1.45-2.24,0-2.25c-1.35-0.01-2.7-0.02-4.04-0.03
				c-1.31-0.01-2.66-0.12-3.96,0.04c-1.15,0.15-2.19,0.71-2.64,1.82c-0.38,0.92-0.27,2,0.21,2.87c1.18,2.1,4,2.02,5.65,0.54
				c1.81-1.63,1.73-4.44,0.73-6.47c-0.59-1.2-1.61-2.11-2.86-2.57c-1.25-0.46-2.63-0.42-3.94-0.36
				C59.72,106.71,59.72,108.96,61.17,108.89L61.17,108.89z"/>
			<path d="M75.35,106.47c-0.1,3.07-0.2,6.14-0.31,9.21c-0.05,1.45,2.2,1.45,2.25,0c0.1-3.07,0.2-6.14,0.31-9.21
				C77.65,105.02,75.4,105.02,75.35,106.47L75.35,106.47z"/>
			<path d="M77.68,109.75c0.27-0.89,0.89-1.63,1.71-2.1c0.38-0.22,0.89-0.4,1.28-0.45c0.19-0.02,0.47-0.08,0.65-0.01
				c0.2,0.07,0.03,0.02,0.04,0.03c-0.06-0.07,0.04,0.15,0.05,0.18c0.34,1.29,0.37,2.73,0.41,4.06c0.05,1.49-0.01,2.97-0.16,4.45
				c-0.06,0.61,0.56,1.12,1.12,1.12c0.66,0,1.06-0.52,1.12-1.12c0.18-1.83,0.22-3.66,0.11-5.5c-0.06-0.92-0.16-1.84-0.29-2.75
				c-0.12-0.83-0.29-1.66-0.98-2.22c-1.22-1-3.26-0.45-4.5,0.26c-1.32,0.76-2.3,1.99-2.74,3.44
				C75.08,110.54,77.25,111.14,77.68,109.75L77.68,109.75z"/>
			<path d="M90.03,109.19c0.83-1.38,2.54-0.27,3.12,0.71c0.45,0.77,0.63,1.7,0.71,2.58c0.04,0.42,0.18,1,0.04,1.41
				c-0.12,0.36-0.54,0.6-0.85,0.79c-0.41,0.25-0.84,0.44-1.3,0.57c-0.22,0.06-0.44,0.12-0.67,0.16c-0.08,0.01-0.19,0.02-0.27,0.04
				c-0.07,0-0.13,0.01-0.2,0.01c0.07,0.05,0.14,0.11,0.21,0.16c0.03-0.02-0.44-1.24-0.49-1.36c-0.04-0.12-0.12-0.58-0.23-0.65
				c0.04,0.03-0.11-0.13-0.06,0c0.04,0.1-0.23,0.07,0.03,0.01c1.69-0.37,3.6-0.28,5.33-0.21c2.13,0.09,4.26,0.47,6.14,1.53
				c1.26,0.71,2.4-1.23,1.14-1.94c-2.53-1.42-5.42-1.83-8.29-1.86c-1.35-0.01-2.76-0.02-4.1,0.15c-1.35,0.17-2.59,0.96-2.44,2.48
				c0.07,0.74,0.44,1.49,0.69,2.18c0.25,0.69,0.5,1.32,1.23,1.61c1.29,0.52,3.16-0.23,4.29-0.88c1.39-0.8,2.16-1.87,2.08-3.51
				c-0.08-1.45-0.28-2.93-0.97-4.23c-0.65-1.22-1.83-2.3-3.22-2.55c-1.51-0.27-3.07,0.33-3.87,1.67
				C87.35,109.3,89.29,110.44,90.03,109.19L90.03,109.19z"/>
		</g>
		<rect x="20.99" y="44" width="14" height="2"/>
	</g>
</g>
<g id="outline_frame">
</g>
</svg>
