<?xml version="1.0" encoding="utf-8"?>
<!-- Generator: Adobe Illustrator 26.3.1, SVG Export Plug-In . SVG Version: 6.00 Build 0)  -->
<svg version="1.1" id="圖層_1" xmlns="http://www.w3.org/2000/svg" xmlns:xlink="http://www.w3.org/1999/xlink" x="0px" y="0px"
	 viewBox="0 0 121.5 136" style="enable-background:new 0 0 121.5 136;" xml:space="preserve">
<style type="text/css">
	.st0{fill:#FFFFFF;}
</style>
<g id="bg">
</g>
<g id="yellow">
</g>
<g id="diary_視覺">
</g>
<g>
	<g>
		<path class="st0" d="M120.3,20.1v-1.9l0,0v-1.9c-2.9,0-5.2-2.3-5.2-5.2c0-2.7,2.1-4.9,4.7-5.2c0.3,0,0.5-0.3,0.5-0.5V2.9
			c0-0.5-0.4-0.8-0.8-0.8h-3.1c-0.2,0-0.3,0.1-0.3,0.3c-0.2,2.7-2.4,4.9-5.2,4.9c-2.9,0-5.2-2.3-5.2-5.2h-1.9h0h-1.9
			c0,2.9-2.3,5.2-5.2,5.2s-5.2-2.3-5.2-5.2h-1.9h-1.9c0,2.9-2.3,5.2-5.2,5.2s-5.2-2.3-5.2-5.2h-1.9h-1.9c0,2.9-2.3,5.2-5.2,5.2
			c-2.9,0-5.2-2.3-5.2-5.2h-1.9h-1.9c0,2.9-2.3,5.2-5.2,5.2c-2.9,0-5.2-2.3-5.2-5.2h-1.9h-1.9c0,2.9-2.3,5.2-5.2,5.2
			c-2.9,0-5.2-2.3-5.2-5.2H33h-1.9c0,2.9-2.3,5.2-5.2,5.2c-2.9,0-5.2-2.3-5.2-5.2h-1.9H17c0,2.9-2.3,5.2-5.2,5.2
			c-2.7,0-4.9-2.1-5.2-4.7c0-0.3-0.3-0.5-0.5-0.5H3.6c-0.5,0-0.8,0.4-0.8,0.8V6c0,0.2,0.1,0.3,0.3,0.3c2.7,0.2,4.9,2.4,4.9,5.2
			c0,2.9-2.3,5.2-5.2,5.2v1.9v1.9c2.9,0,5.2,2.3,5.2,5.2c0,2.9-2.3,5.2-5.2,5.2v1.9V33v1.9c2.9,0,5.2,2.3,5.2,5.2
			c0,2.9-2.3,5.2-5.2,5.2v1.9V49c2.9,0,5.2,2.3,5.2,5.2c0,2.9-2.3,5.2-5.2,5.2v1.9v1.9c2.9,0,5.2,2.3,5.2,5.2c0,2.9-2.3,5.2-5.2,5.2
			v1.9v1.9c2.9,0,5.2,2.3,5.2,5.2c0,2.9-2.3,5.2-5.2,5.2v1.9v1.9c2.9,0,5.2,2.3,5.2,5.2c0,2.9-2.3,5.2-5.2,5.2v1.9v1.9
			c2.9,0,5.2,2.3,5.2,5.2S5.6,116,2.7,116v1.9v1.9c2.9,0,5.2,2.3,5.2,5.2c0,2.7-2.1,4.9-4.7,5.2c-0.3,0-0.5,0.3-0.5,0.5v2.6
			c0,0.5,0.4,0.8,0.8,0.8h3.1c0.2,0,0.3-0.1,0.3-0.3c0.2-2.7,2.4-4.9,5.2-4.9c2.9,0,5.2,2.3,5.2,5.2h1.9h0l0,0h1.9
			c0-2.9,2.3-5.2,5.2-5.2c2.9,0,5.2,2.3,5.2,5.2h1.9h1.9c0-2.9,2.3-5.2,5.2-5.2c2.9,0,5.2,2.3,5.2,5.2h1.9h1.9
			c0-2.9,2.3-5.2,5.2-5.2c2.9,0,5.2,2.3,5.2,5.2h1.9h1.9c0-2.9,2.3-5.2,5.2-5.2c2.9,0,5.2,2.3,5.2,5.2h1.9h1.9
			c0-2.9,2.3-5.2,5.2-5.2c2.9,0,5.2,2.3,5.2,5.2h1.6l0,0H90h1.9c0-2.9,2.3-5.2,5.2-5.2c2.9,0,5.2,2.3,5.2,5.2h1.9h1.9
			c0-2.9,2.3-5.2,5.2-5.2c2.7,0,4.9,2.1,5.2,4.7c0,0.3,0.3,0.5,0.5,0.5h2.6c0.5,0,0.8-0.4,0.8-0.8v-3.1c0-0.2-0.1-0.3-0.3-0.3
			c-2.7-0.2-4.9-2.4-4.9-5.2c0-2.9,2.3-5.2,5.2-5.2v-1.9v-1.9c-2.9,0-5.2-2.3-5.2-5.2c0-2.9,2.3-5.2,5.2-5.2v-1.9v-1.9
			c-2.9,0-5.2-2.3-5.2-5.2c0-2.9,2.3-5.2,5.2-5.2v-1.9v-1.9c-2.9,0-5.2-2.3-5.2-5.2c0-2.9,2.3-5.2,5.2-5.2v-1.9v-1.9
			c-2.9,0-5.2-2.3-5.2-5.2c0-2.9,2.3-5.2,5.2-5.2V61v-1.9c-2.9,0-5.2-2.3-5.2-5.2c0-2.9,2.3-5.2,5.2-5.2v-1.9V45
			c-2.9,0-5.2-2.3-5.2-5.2c0-2.9,2.3-5.2,5.2-5.2v-1.9v-0.3v-1.9c-2.9,0-5.2-2.3-5.2-5.2C115.1,22.4,117.4,20.1,120.3,20.1z"/>
		<path d="M119.4,2.1c0.5,0,0.8,0.4,0.8,0.8v2.6c0,0.3-0.2,0.5-0.5,0.5c-2.6,0.2-4.7,2.5-4.7,5.2c0,2.9,2.3,5.2,5.2,5.2v1.9v1.9
			c-2.9,0-5.2,2.3-5.2,5.2c0,2.9,2.3,5.2,5.2,5.2v1.9v0.3v1.9c-2.9,0-5.2,2.3-5.2,5.2c0,2.9,2.3,5.2,5.2,5.2v1.9v1.9
			c-2.9,0-5.2,2.3-5.2,5.2c0,2.9,2.3,5.2,5.2,5.2V61v1.9c-2.9,0-5.2,2.3-5.2,5.2c0,2.9,2.3,5.2,5.2,5.2v1.9V77
			c-2.9,0-5.2,2.3-5.2,5.2c0,2.9,2.3,5.2,5.2,5.2v1.9v1.9c-2.9,0-5.2,2.3-5.2,5.2c0,2.9,2.3,5.2,5.2,5.2v1.9v1.9
			c-2.9,0-5.2,2.3-5.2,5.2c0,2.9,2.3,5.2,5.2,5.2v1.9v1.9c-2.9,0-5.2,2.3-5.2,5.2c0,2.8,2.2,5,4.9,5.2c0.2,0,0.3,0.2,0.3,0.3v3.1
			c0,0.5-0.4,0.8-0.8,0.8h-2.6c-0.3,0-0.5-0.2-0.5-0.5c-0.2-2.6-2.5-4.7-5.2-4.7c-2.9,0-5.2,2.3-5.2,5.2h-1.9h-1.9
			c0-2.9-2.3-5.2-5.2-5.2c-2.9,0-5.2,2.3-5.2,5.2H90h-0.3h-1.6c0-2.9-2.3-5.2-5.2-5.2c-2.9,0-5.2,2.3-5.2,5.2h-1.9h-1.9
			c0-2.9-2.3-5.2-5.2-5.2c-2.9,0-5.2,2.3-5.2,5.2h-1.9h-1.9c0-2.9-2.3-5.2-5.2-5.2c-2.9,0-5.2,2.3-5.2,5.2h-1.9h-1.9
			c0-2.9-2.3-5.2-5.2-5.2c-2.9,0-5.2,2.3-5.2,5.2h-1.9h-1.9c0-2.9-2.3-5.2-5.2-5.2c-2.9,0-5.2,2.3-5.2,5.2h-1.9h0h-1.9
			c0-2.9-2.3-5.2-5.2-5.2c-2.8,0-5,2.2-5.2,4.9c0,0.2-0.2,0.3-0.3,0.3H3.6c-0.5,0-0.8-0.4-0.8-0.8v-2.6c0-0.3,0.2-0.5,0.5-0.5
			c2.6-0.2,4.7-2.5,4.7-5.2c0-2.9-2.3-5.2-5.2-5.2v-1.9V116c2.9,0,5.2-2.3,5.2-5.2c0-2.9-2.3-5.2-5.2-5.2v-1.9v-1.9
			c2.9,0,5.2-2.3,5.2-5.2c0-2.9-2.3-5.2-5.2-5.2v-1.9v-1.9c2.9,0,5.2-2.3,5.2-5.2c0-2.9-2.3-5.2-5.2-5.2v-1.9v-1.9
			c2.9,0,5.2-2.3,5.2-5.2c0-2.9-2.3-5.2-5.2-5.2v-1.9v-1.9c2.9,0,5.2-2.3,5.2-5.2c0-2.9-2.3-5.2-5.2-5.2v-1.9v-1.9
			c2.9,0,5.2-2.3,5.2-5.2c0-2.9-2.3-5.2-5.2-5.2V33v-0.3v-1.9c2.9,0,5.2-2.3,5.2-5.2c0-2.9-2.3-5.2-5.2-5.2v-1.9v-1.9
			c2.9,0,5.2-2.3,5.2-5.2c0-2.8-2.2-5-4.9-5.2C2.9,6.3,2.7,6.1,2.7,6V2.9c0-0.5,0.4-0.8,0.8-0.8h2.6c0.3,0,0.5,0.2,0.5,0.5
			c0.2,2.6,2.5,4.7,5.2,4.7c2.9,0,5.2-2.3,5.2-5.2h1.9h1.9c0,2.9,2.3,5.2,5.2,5.2c2.9,0,5.2-2.3,5.2-5.2H33h1.9
			c0,2.9,2.3,5.2,5.2,5.2s5.2-2.3,5.2-5.2h1.9h1.9c0,2.9,2.3,5.2,5.2,5.2c2.9,0,5.2-2.3,5.2-5.2h1.9h1.9c0,2.9,2.3,5.2,5.2,5.2
			c2.9,0,5.2-2.3,5.2-5.2h1.9h1.9c0,2.9,2.3,5.2,5.2,5.2s5.2-2.3,5.2-5.2h1.9h1.9c0,2.9,2.3,5.2,5.2,5.2c2.9,0,5.2-2.3,5.2-5.2h1.9
			h0h1.9c0,2.9,2.3,5.2,5.2,5.2c2.8,0,5-2.2,5.2-4.9c0-0.2,0.2-0.3,0.3-0.3H119.4 M119.4,0.1h-3.1c-1.2,0-2.3,1-2.3,2.2
			c-0.1,1.7-1.5,3-3.2,3c-1.8,0-3.2-1.4-3.2-3.2v-2h-2h-1.9h-1.9h-2v2c0,1.8-1.4,3.2-3.2,3.2c-1.8,0-3.2-1.4-3.2-3.2v-2h-2h-1.9
			h-1.9h-2v2c0,1.8-1.4,3.2-3.2,3.2s-3.2-1.4-3.2-3.2v-2h-2h-1.9h-1.9h-2v2c0,1.8-1.4,3.2-3.2,3.2c-1.8,0-3.2-1.4-3.2-3.2v-2h-2
			h-1.9h-1.9h-2v2c0,1.8-1.4,3.2-3.2,3.2s-3.2-1.4-3.2-3.2v-2h-2h-1.9h-1.9h-2v2c0,1.8-1.4,3.2-3.2,3.2s-3.2-1.4-3.2-3.2v-2h-2H33
			h-1.9h-2v2c0,1.8-1.4,3.2-3.2,3.2c-1.8,0-3.2-1.4-3.2-3.2v-2h-2h-1.9H17h-2v2c0,1.8-1.4,3.2-3.2,3.2c-1.7,0-3-1.2-3.2-2.9
			C8.5,1,7.4,0.1,6.1,0.1H3.6C2,0.1,0.7,1.3,0.7,2.9V6c0,1.2,1,2.3,2.2,2.3c1.7,0.1,3,1.5,3,3.2c0,1.8-1.4,3.2-3.2,3.2h-2v2v1.9v1.9
			v2h2c1.8,0,3.2,1.4,3.2,3.2s-1.4,3.2-3.2,3.2h-2v2v1.9V33v1.9v2h2c1.8,0,3.2,1.4,3.2,3.2c0,1.8-1.4,3.2-3.2,3.2h-2v2v1.9V49v2h2
			c1.8,0,3.2,1.4,3.2,3.2c0,1.8-1.4,3.2-3.2,3.2h-2v2v1.9v1.9v2h2c1.8,0,3.2,1.4,3.2,3.2s-1.4,3.2-3.2,3.2h-2v2v1.9v1.9v2h2
			c1.8,0,3.2,1.4,3.2,3.2s-1.4,3.2-3.2,3.2h-2v2v1.9v1.9v2h2c1.8,0,3.2,1.4,3.2,3.2c0,1.8-1.4,3.2-3.2,3.2h-2v2v1.9v1.9v2h2
			c1.8,0,3.2,1.4,3.2,3.2S4.5,114,2.7,114h-2v2v1.9v1.9v2h2c1.8,0,3.2,1.4,3.2,3.2c0,1.7-1.2,3-2.9,3.2c-1.3,0.1-2.3,1.2-2.3,2.5
			v2.6c0,1.6,1.3,2.8,2.8,2.8h3.1c1.2,0,2.3-1,2.3-2.2c0.1-1.7,1.5-3,3.2-3c1.8,0,3.2,1.4,3.2,3.2v2h2h1.9h1.9h2v-2
			c0-1.8,1.4-3.2,3.2-3.2s3.2,1.4,3.2,3.2v2h2h1.9h1.9h2v-2c0-1.8,1.4-3.2,3.2-3.2c1.8,0,3.2,1.4,3.2,3.2v2h2h1.9h1.9h2v-2
			c0-1.8,1.4-3.2,3.2-3.2s3.2,1.4,3.2,3.2v2h2h1.9h1.9h2v-2c0-1.8,1.4-3.2,3.2-3.2s3.2,1.4,3.2,3.2v2h2h1.9h1.9h2v-2
			c0-1.8,1.4-3.2,3.2-3.2s3.2,1.4,3.2,3.2v2h2h1.6H90h1.9h2v-2c0-1.8,1.4-3.2,3.2-3.2c1.8,0,3.2,1.4,3.2,3.2v2h2h1.9h1.9h2v-2
			c0-1.8,1.4-3.2,3.2-3.2c1.7,0,3,1.2,3.2,2.9c0.1,1.3,1.2,2.3,2.5,2.3h2.6c1.6,0,2.8-1.3,2.8-2.8v-3.1c0-1.2-1-2.3-2.2-2.3
			c-1.7-0.1-3-1.5-3-3.2c0-1.8,1.4-3.2,3.2-3.2h2v-2v-1.9v-1.9v-2h-2c-1.8,0-3.2-1.4-3.2-3.2c0-1.8,1.4-3.2,3.2-3.2h2v-2v-1.9v-1.9
			v-2h-2c-1.8,0-3.2-1.4-3.2-3.2s1.4-3.2,3.2-3.2h2v-2v-1.9v-1.9v-2h-2c-1.8,0-3.2-1.4-3.2-3.2s1.4-3.2,3.2-3.2h2v-2v-1.9v-1.9v-2
			h-2c-1.8,0-3.2-1.4-3.2-3.2c0-1.8,1.4-3.2,3.2-3.2h2v-2V61v-1.9v-2h-2c-1.8,0-3.2-1.4-3.2-3.2c0-1.8,1.4-3.2,3.2-3.2h2v-2v-1.9V45
			v-2h-2c-1.8,0-3.2-1.4-3.2-3.2c0-1.8,1.4-3.2,3.2-3.2h2v-2v-1.9v-0.3v-1.9v-2h-2c-1.8,0-3.2-1.4-3.2-3.2c0-1.8,1.4-3.2,3.2-3.2h2
			v-2v-1.9v-1.9v-2h-2c-1.8,0-3.2-1.4-3.2-3.2c0-1.7,1.2-3,2.9-3.2c1.3-0.1,2.3-1.2,2.3-2.5V2.9C122.3,1.3,121,0.1,119.4,0.1
			L119.4,0.1z"/>
	</g>
</g>
<g>
	<g>
		<path d="M24.1,35.2c0.8,0.8,2.1,1.5,3.4,1.5c2.4,0,4.4-1.8,4.6-7.3c-1.1,1.5-2.9,2.4-4.4,2.4c-3.6,0-6.2-2.2-6.2-6.8
			c0-4.4,3.1-7.2,6.8-7.2c4.1,0,7.8,3.2,7.8,10.7c0,8.2-4,11.7-8.3,11.7c-2.7,0-4.6-1.1-5.9-2.5L24.1,35.2z M32,26.4
			c-0.4-3.9-1.9-5.4-3.7-5.4c-1.6,0-2.9,1.3-2.9,4c0,2.5,1.2,3.7,3.1,3.7C29.7,28.7,31,28.1,32,26.4z"/>
	</g>
</g>
<g>
	<g>
		<path d="M41.6,23.8c0-4,1.6-6,3.9-6c2.4,0,3.9,2,3.9,6s-1.6,6.1-3.9,6.1C43.2,29.9,41.6,27.8,41.6,23.8z M47.3,23.8
			c0-3.3-0.8-4.2-1.7-4.2c-1,0-1.8,0.9-1.8,4.2c0,3.3,0.8,4.3,1.8,4.3C46.5,28.1,47.3,27.1,47.3,23.8z"/>
		<path d="M51,23.8c0-4,1.6-6,3.9-6c2.4,0,3.9,2,3.9,6s-1.6,6.1-3.9,6.1C52.6,29.9,51,27.8,51,23.8z M56.7,23.8
			c0-3.3-0.8-4.2-1.7-4.2c-1,0-1.8,0.9-1.8,4.2c0,3.3,0.8,4.3,1.8,4.3C55.9,28.1,56.7,27.1,56.7,23.8z"/>
	</g>
</g>
<path d="M39.7,105.7c6.2-3.8,12.5-8.7,15.6-15.5c1.7-3.7,2.2-7.6,1.9-11.7c-0.3-4.6-0.7-9.1,0.1-13.7c0.7-3.8,2-8.8,5.4-11.1
	c3.2-2.2,7.5-0.3,9.5,2.7c2.5,3.7,2.5,8.4,2.4,12.6c-0.1,4.4-0.5,8.8,0.1,13.2c0.6,4.5,2.7,8.2,5,12c2.2,3.5,4.4,7.1,4,11.4
	c-0.1,1.4,2.1,1.4,2.2,0c0.8-8.1-6.6-13.8-8.6-21.2c-2.3-8.8,1.5-18.6-2.2-27.1c-1.5-3.5-4.6-6.3-8.5-6.7c-3.9-0.5-7,2.2-8.8,5.4
	c-2.2,4-3.1,8.6-3.3,13.1c-0.2,4.8,0.9,9.7,0.3,14.5c-1,9.2-9,15.8-16.4,20.3C37.4,104.5,38.5,106.5,39.7,105.7L39.7,105.7z"/>
<path d="M62.2,48c-0.6-1.8-0.8-3.7-0.4-5.6c0.1-0.7,0.3-1.5,0.9-2c0.2-0.2,0.9-0.2,0.6,0.3c-0.5,1,0.5,2.2,1.5,1.5
	c1.2-0.8,2.4-1.6,3.7-2.3c0.6-0.3,0.6-0.2,0.8,0.4c0.2,0.6,0.2,1.3,0.4,1.9c0.3,0.7,0.9,1,1.7,0.7c0.6-0.3,1.2-0.5,1.9-0.7
	c0.5-0.2,1.1-0.4,1.6-0.4c0.8,0.1,1.2,1.1,1.4,1.8c0.4,2.1-0.5,4.2-2,5.6c-1.1,1,0.5,2.6,1.6,1.6c2.2-2,3.4-5.5,2.4-8.5
	c-0.5-1.3-1.4-2.4-2.8-2.7c-1.7-0.4-3.7,0.6-5.2,1.4c0.6,0.2,1.1,0.4,1.7,0.7c-0.4-0.9-0.3-1.8-0.7-2.7c-0.4-0.8-1-1.4-1.9-1.5
	c-1-0.1-1.8,0.5-2.7,1c-1,0.6-1.9,1.2-2.9,1.8c0.5,0.5,1,1,1.5,1.5c0.6-1.2,0.3-2.7-0.9-3.5c-1.3-0.8-2.8-0.2-3.6,0.9
	c-0.9,1.2-1.2,2.8-1.3,4.3c-0.1,1.7,0.1,3.4,0.7,5C60.5,49.9,62.7,49.4,62.2,48L62.2,48z"/>
<g>
	<g>
		<path d="M62.3,64.2c1.4,0,1.5-2.3,0-2.3C60.8,61.9,60.8,64.2,62.3,64.2L62.3,64.2z"/>
	</g>
</g>
<g>
	<g>
		<path d="M70.5,63.8c1.4,0,1.5-2.2,0-2.2C69.1,61.6,69.1,63.8,70.5,63.8L70.5,63.8z"/>
	</g>
</g>
<path d="M64.6,70.9c1.4,0,2.8,0,4.2,0c0.3,0,0.7,0,1,0c0.2,0,0.3,0,0.5,0c0,0,0.2,0,0.2,0c-0.2,0-0.4-0.1-0.4-0.3
	c-0.1-0.1-0.2-0.2-0.2-0.4c0,0.1,0.1,0.1,0-0.1c0,0,0,0.2,0,0.2c0,0.1-0.1,0.3-0.1,0.4c-0.1,0.3-0.2,0.6-0.4,0.9
	c-0.2,0.7-0.5,1.3-0.7,2c-0.1,0.3-0.2,0.6-0.4,0.9c-0.1,0.2-0.1,0.3-0.2,0.5c0,0.1-0.1,0.2-0.1,0.2c0.1-0.2,0.1,0,0,0
	c-0.1,0.1,0.1-0.1,0.1-0.1c0.2-0.1,0.6-0.2,0.6-0.1c0,0,0,0,0,0c-0.1-0.1-0.1-0.1-0.1,0c0.1,0.1,0,0,0,0c-0.2-0.2-0.5-0.4-0.7-0.6
	c-0.2-0.2-0.4-0.4-0.5-0.6c0-0.1-0.1-0.1-0.1-0.2c0,0,0.1,0.2,0,0c-0.1-0.1-0.2-0.2-0.3-0.4c-0.2-0.3-0.3-0.5-0.5-0.8
	c-0.1-0.1-0.1-0.3-0.2-0.4c0,0-0.1-0.2,0-0.1c0.1,0.1-0.1-0.1-0.1-0.1c-0.2-0.6-0.4-1.2-0.5-1.8c-0.1-0.6-0.9-1-1.4-0.8
	c-0.6,0.2-0.9,0.8-0.8,1.4c0.2,1.4,0.7,2.7,1.5,3.9c0.4,0.6,0.9,1.2,1.4,1.7c0.6,0.6,1.5,1.4,2.4,1.1c0.9-0.3,1.2-1.3,1.5-2.1
	c0.3-0.8,0.6-1.5,0.9-2.3c0.1-0.4,0.3-0.8,0.4-1.2c0.1-0.3,0.3-0.6,0.3-1c0.1-0.5,0-1.1-0.4-1.5c-0.4-0.4-0.9-0.5-1.4-0.5
	c-1.9,0-3.8,0-5.7,0c-0.6,0-1.2,0.5-1.1,1.1C63.5,70.3,63.9,70.9,64.6,70.9L64.6,70.9z"/>
<path d="M55.2,50c-4.6-2.2-10.3-2.3-14.1,1.5c-3.2,3.2-3.4,8.7,0,11.8c0.2-0.6,0.3-1.3,0.5-1.9c-2.1,0.6-4.3,0.3-6.2,1.4
	c-1.7,0.9-2.9,2.5-3.7,4.2c-0.9,2-1.2,4.1-1.4,6.2c-0.2,1.8-0.3,3.7,1.2,5c0.3-0.6,0.5-1.3,0.8-1.9c-2,0.1-4.3,0.3-6,1.5
	c-2.1,1.5-2.3,4-2.6,6.3c-0.3,2.5-0.3,5.3,1.1,7.4c1.2,1.8,3.2,3.2,5.5,2.9c1.4-0.1,1.4-2.4,0-2.2c-4.4,0.5-4.8-5.1-4.4-8.2
	c0.2-1.6,0.3-3.6,1.8-4.5c1.3-0.8,3-0.9,4.5-0.9c0.9,0,1.5-1.2,0.8-1.9c-1.1-1-0.6-3-0.4-4.3c0.2-1.7,0.5-3.4,1.3-4.9
	c0.7-1.4,1.8-2.6,3.3-3c1.6-0.5,3.3-0.4,4.9-0.8c0.8-0.2,1.1-1.3,0.5-1.9c-2.7-2.4-2.3-6.5,0.2-8.9c3-2.9,7.5-2.6,11.1-0.9
	C55.4,52.6,56.6,50.6,55.2,50L55.2,50z"/>
<path d="M82.6,53.5c3.4-0.1,6.5,2.1,7.8,5.2c1.6,3.6,0.7,7.7-1.2,11c-0.4,0.8,0.1,1.7,1,1.7c2.2,0.1,4.4,0.4,6.6,1
	c1.9,0.6,3.4,1.5,3.6,3.7c0.5,4-3.1,6.7-5.9,8.8c-0.7,0.5-0.3,1.7,0.5,1.9c3.1,0.6,7.4,2.2,6.3,6.2c-1.1,4-5.7,5.2-9.2,6.1
	c-1.4,0.4-0.8,2.5,0.6,2.2c4.5-1.1,10.1-3,10.9-8.3c0.8-5-3.9-7.4-8-8.3c0.2,0.6,0.3,1.3,0.5,1.9c3.6-2.8,7.4-6.4,6.4-11.4
	c-1.1-5.3-8-5.9-12.4-6c0.3,0.6,0.6,1.1,1,1.7c2.3-4,3.1-9,1.2-13.3c-1.7-3.8-5.6-6.5-9.8-6.4C81.2,51.3,81.2,53.5,82.6,53.5
	L82.6,53.5z"/>
<g>
	<path d="M23.3,117.5c2.5-0.3,4.9-0.7,7.4-1c0.6-0.1,0.9-0.9,0.8-1.4c-0.2-0.6-0.8-0.9-1.4-0.8c-2.5,0.3-4.9,0.7-7.4,1
		c-0.6,0.1-0.9,0.9-0.8,1.4C22.1,117.4,22.7,117.6,23.3,117.5L23.3,117.5z"/>
	<path d="M26.1,111.3c-0.4,1.7-0.6,3.4-0.4,5.1c0.2,1.7,0.5,3.7,1.5,5c1,1.2,2.6,1.6,4.1,1.2c1.6-0.4,2.8-1.6,3.9-2.7
		c1-1-0.6-2.6-1.6-1.6c-0.8,0.8-1.6,1.8-2.7,2.1c-0.4,0.1-0.9,0.1-1.3,0c-0.4-0.1-0.6-0.4-0.8-0.8c-0.5-1.1-0.8-2.5-0.8-3.7
		c-0.1-1.4,0-2.7,0.4-4.1C28.6,110.5,26.5,109.9,26.1,111.3L26.1,111.3z"/>
	<path d="M39.9,115.5c-0.3,1.2-0.4,2.6,0,3.7c0.4,1,1.2,1.8,2.2,2.3c1,0.4,2.1,0.6,3.1,0.3c1.1-0.3,2-1,2.7-1.9c0.7-1,1.1-2.2,1-3.4
		c0-0.6-0.5-1.2-1.1-1.1c-0.6,0-1.1,0.5-1.1,1.1c0,0.1,0,0.3,0,0.4c0,0.1,0,0.5,0,0.2c0,0.3-0.1,0.5-0.2,0.8c0,0-0.2,0.4-0.1,0.2
		c-0.1,0.1-0.1,0.2-0.2,0.3c-0.1,0.1-0.1,0.2-0.2,0.3c0,0.1-0.2,0.2-0.1,0.1c-0.2,0.2-0.3,0.4-0.5,0.5c0.2-0.2-0.1,0.1-0.2,0.1
		c-0.1,0.1-0.2,0.1-0.3,0.2c-0.1,0.1-0.1,0.1,0,0c-0.1,0-0.1,0-0.2,0.1c-0.1,0-0.2,0.1-0.3,0.1c-0.1,0-0.1,0,0,0c-0.1,0-0.1,0-0.2,0
		c-0.1,0-0.2,0-0.3,0c-0.1,0-0.2,0-0.3,0c0.3,0-0.1,0-0.1,0c-0.1,0-0.2-0.1-0.3-0.1c-0.1,0-0.1,0-0.2-0.1c0.1,0.1,0.1,0.1,0,0
		c-0.1-0.1-0.2-0.1-0.3-0.2c-0.1,0-0.3-0.3-0.1-0.1c-0.1-0.1-0.2-0.2-0.3-0.2c0,0-0.2-0.3-0.1-0.1c0.1,0.1-0.1-0.1-0.1-0.2
		c0-0.1-0.1-0.1-0.1-0.2c0,0.1,0,0.1,0-0.1c0-0.1-0.1-0.3-0.1-0.4c0-0.1,0-0.2,0,0c0-0.1,0-0.2,0-0.2c0-0.7,0-1,0.2-1.7
		c0.1-0.6-0.2-1.2-0.8-1.4C40.7,114.6,40.1,114.9,39.9,115.5L39.9,115.5z"/>
	<path d="M53.9,114.7c0.2,2.6,0.2,5.2,0,7.8c-0.1,0.6,0.6,1.1,1.1,1.1c0.7,0,1.1-0.5,1.1-1.1c0.2-2.6,0.2-5.2,0-7.8
		c-0.1-0.6-0.5-1.1-1.1-1.1C54.4,113.6,53.8,114.1,53.9,114.7L53.9,114.7z"/>
	<path d="M56.2,118.6c0.4-0.2,0.8-0.4,1.2-0.6c0.1,0,0.2-0.1,0.2-0.1c0,0,0.4-0.2,0.1-0.1c0.2-0.1,0.4-0.2,0.6-0.2
		c0.8-0.3,1.6-0.5,2.4-0.7c0.6-0.1,1-0.8,0.8-1.4c-0.2-0.6-0.8-0.9-1.4-0.8c-1.8,0.4-3.5,1-5.1,1.9c-0.5,0.3-0.7,1-0.4,1.5
		C55,118.7,55.6,118.9,56.2,118.6L56.2,118.6z"/>
	<path d="M66.8,111.1c-0.9,3.5-1.5,7.2-1.6,10.9c0,1.4,2.2,1.4,2.2,0c0.1-3.5,0.6-6.9,1.5-10.3C69.3,110.3,67.1,109.7,66.8,111.1
		L66.8,111.1z"/>
	<path d="M72.4,113.1c-2.3,0.8-4.4,2-6.3,3.5c-0.4,0.4-0.4,1.2,0,1.6c0.5,0.4,1.1,0.4,1.6,0c0.2-0.2,0.4-0.3,0.6-0.5
		c-0.1,0.1-0.1,0.1,0,0c0.1,0,0.1-0.1,0.2-0.1c0.1-0.1,0.2-0.2,0.3-0.2c0.4-0.3,0.9-0.6,1.4-0.9c0.5-0.3,0.9-0.5,1.4-0.7
		c0,0,0.2-0.1,0.1,0c-0.1,0.1,0.1,0,0.1,0c0.1-0.1,0.2-0.1,0.4-0.1c0.3-0.1,0.5-0.2,0.8-0.3c0.6-0.2,1-0.8,0.8-1.4
		C73.6,113.4,73,112.9,72.4,113.1L72.4,113.1z"/>
	<path d="M68.1,118.1c2.1,1.3,4.1,2.5,6.2,3.8c0.5,0.3,1.3,0.1,1.5-0.4c0.3-0.5,0.1-1.2-0.4-1.5c-2.1-1.3-4.1-2.5-6.2-3.8
		c-0.5-0.3-1.3-0.1-1.5,0.4C67.4,117.1,67.6,117.7,68.1,118.1L68.1,118.1z"/>
	<path d="M79.9,118.2c1.2,0.1,2.3,0.1,3.5,0.2c1,0.1,2.1,0.2,3-0.1c1.1-0.3,1.9-1.1,2-2.3c0.1-0.9-0.3-1.8-0.9-2.4
		c-1.6-1.7-4.2-0.8-5.7,0.5c-1.5,1.4-2.4,3.7-1.2,5.5c0.6,0.9,1.6,1.6,2.7,2c1.2,0.4,2.5,0.4,3.8,0.3c0.6,0,1.2-0.5,1.1-1.1
		c0-0.6-0.5-1.1-1.1-1.1c-0.4,0-0.9,0-1.3,0c-0.2,0-0.4,0-0.5,0c-0.1,0-0.3,0-0.4,0c-0.2,0,0,0-0.2,0c-0.2,0-0.4-0.1-0.6-0.1
		c-0.1,0-0.2-0.1-0.3-0.1c-0.2-0.1-0.1,0,0,0c-0.2-0.1-0.3-0.2-0.5-0.2c-0.1,0-0.1-0.1-0.2-0.1c-0.2-0.1,0.1,0.1-0.1-0.1
		c-0.1-0.1-0.2-0.2-0.4-0.4c-0.2-0.2,0.1,0.1,0-0.1c0-0.1-0.1-0.1-0.1-0.2c0-0.1-0.1-0.1-0.1-0.2c0.1,0.2,0,0,0-0.1
		c0-0.1,0-0.2-0.1-0.2c-0.1-0.2,0,0.2,0-0.1c0-0.1,0-0.1,0-0.2c0-0.3-0.1,0.2,0-0.1c0-0.1,0.1-0.3,0.1-0.4c-0.1,0.2,0.1-0.1,0.1-0.1
		c0-0.1,0.1-0.1,0.1-0.2c0-0.1,0.1-0.1,0.1-0.2c0.1-0.1,0.1-0.1,0,0c0,0,0.1-0.1,0.1-0.1c0.1-0.1,0.2-0.3,0.4-0.4
		c0.1-0.1,0.1-0.1,0.2-0.2c0,0,0.2-0.2,0.1-0.1c0.1-0.1,0.3-0.2,0.4-0.3c0.1,0,0.2-0.1,0.3-0.1c0,0,0.3-0.1,0.1-0.1
		c0.2-0.1,0.4-0.1,0.5-0.2c0,0,0.2,0,0,0c0.1,0,0.2,0,0.3,0c0.1,0,0.2,0,0.3,0c-0.1,0-0.2,0,0,0c0,0,0.3,0.1,0.1,0
		c-0.2-0.1,0.1,0.1,0.1,0.1c0.1,0,0.2,0.2,0,0c0,0,0.1,0.1,0.1,0.1c0,0,0.2,0.3,0,0c0,0,0.1,0.1,0.1,0.1c0,0.1,0.1,0.1,0.1,0.2
		c-0.1-0.2,0,0,0,0.1c0,0.1,0,0.1,0,0.2c0.1,0.2,0-0.2,0,0c0,0-0.1,0.3,0,0.1c0.1-0.2,0,0.1,0,0.1c0-0.2,0.1-0.1,0,0
		c-0.2,0.2,0.1-0.1,0,0c0,0-0.2,0.2,0,0.1c-0.1,0-0.1,0.1-0.2,0.1c0.2-0.1,0,0-0.1,0c-0.1,0-0.2,0.1-0.4,0.1c0.1,0,0.2,0,0,0
		c-0.1,0-0.2,0-0.3,0c-0.2,0-0.5,0-0.7,0c-0.5,0-1-0.1-1.5-0.1c-1-0.1-2.1-0.1-3.1-0.2c-0.6,0-1.2,0.5-1.1,1.1
		C78.8,117.7,79.2,118.1,79.9,118.2L79.9,118.2z"/>
	<path d="M94.7,114.1c0.1,1.8,0.6,3.6,1.3,5.2c0.2,0.5,1.1,0.7,1.5,0.4c0.6-0.4,0.7-1,0.4-1.5c0-0.1-0.1-0.2-0.1-0.3
		c0.1,0.3,0,0,0,0c-0.1-0.2-0.1-0.4-0.2-0.6c-0.1-0.4-0.2-0.7-0.3-1.1c-0.1-0.4-0.2-0.7-0.2-1.1c0-0.1,0-0.2,0-0.3
		c0,0.3,0-0.1,0-0.1c0-0.2,0-0.4,0-0.6c0-0.6-0.5-1.2-1.1-1.1C95.2,113,94.6,113.5,94.7,114.1L94.7,114.1z"/>
	<path d="M100.4,113.5c-2.1,3.4-4.6,6.6-7.3,9.6c-1,1.1,0.6,2.7,1.6,1.6c2.8-3.1,5.4-6.5,7.6-10.1
		C103.1,113.4,101.1,112.3,100.4,113.5L100.4,113.5z"/>
</g>
<rect x="21.7" y="44.1" width="14" height="2"/>
<g>
	<g>
		<path d="M64.8,35c1.9,0,1.9-3,0-3C62.9,32,62.9,35,64.8,35L64.8,35z"/>
	</g>
</g>
<g>
	<g>
		<path d="M72.4,35.2c1.9,0,1.9-3,0-3C70.4,32.2,70.4,35.2,72.4,35.2L72.4,35.2z"/>
	</g>
</g>
<g>
	<g>
		<path d="M78.6,38.2c1.9,0,1.9-3,0-3C76.6,35.2,76.6,38.2,78.6,38.2L78.6,38.2z"/>
	</g>
</g>
<g>
	<g>
		<path d="M68.2,47.4c1.9,0,1.9-3,0-3C66.3,44.4,66.3,47.4,68.2,47.4L68.2,47.4z"/>
	</g>
</g>
</svg>
